SplineFontDB: 3.0
FontName: Mong
FullName: Mong
FamilyName: Mong
Weight: Book
Version: Converted from q:\WACHALO.TF1 by ALLTYPE
ItalicAngle: 23853
UnderlinePosition: -155
UnderlineWidth: 50
Ascent: 800
Descent: 200
InvalidEm: 0
sfntRevision: 0x00000000
LayerCount: 2
Layer: 0 1 "Back" 1
Layer: 1 1 "Fore" 0
XUID: [1021 341 221541093 674034]
StyleMap: 0x0040
FSType: 4
OS2Version: 1
OS2_WeightWidthSlopeOnly: 0
OS2_UseTypoMetrics: 0
CreationTime: -2082844800
ModificationTime: 1572307739
PfmFamily: 17
TTFWeight: 400
TTFWidth: 5
LineGap: 150
VLineGap: 0
Panose: 2 11 6 0 0 0 0 2 0 0
OS2TypoAscent: 885
OS2TypoAOffset: 0
OS2TypoDescent: -198
OS2TypoDOffset: 0
OS2TypoLinegap: 150
OS2WinAscent: 1031
OS2WinAOffset: 0
OS2WinDescent: 236
OS2WinDOffset: 0
HheadAscent: 885
HheadAOffset: 0
HheadDescent: -199
HheadDOffset: 0
OS2SubXSize: 750
OS2SubYSize: 750
OS2SubXOff: 0
OS2SubYOff: 200
OS2SupXSize: 750
OS2SupYSize: 750
OS2SupXOff: 0
OS2SupYOff: 300
OS2StrikeYSize: 50
OS2StrikeYPos: 343
OS2FamilyClass: 2048
OS2Vendor: 'ATEC'
OS2CodePages: 80000001.00000000
OS2UnicodeRanges: 00000000.00000000.00000000.00000000
DEI: 91125
TtTable: prep
PUSHW_1
 511
SCANCTRL
EndTTInstrs
TtTable: fpgm
PUSHB_1
 0
FDEF
DUP
MDAP[rnd]
PUSHB_1
 2
CINDEX
SHP[rp1]
ROLL
PUSHW_1
 4096
MUL
PUSHB_1
 2
SWAP
WCVTF
PUSHB_1
 2
RCVT
DUP
PUSHB_1
 4
CINDEX
PUSHB_1
 4
CINDEX
MD[grid]
SUB
ABS
PUSHB_1
 64
LT
IF
PUSHB_1
 3
CINDEX
SWAP
MSIRP[no-rp0]
ELSE
POP
EIF
POP
PUSHB_1
 1
SWAP
WS
DUP
IF
SLOOP
ALIGNRP
ELSE
POP
EIF
PUSHB_1
 1
RS
SRP0
DUP
IF
SLOOP
ALIGNRP
ELSE
POP
EIF
ENDF
PUSHB_1
 1
FDEF
MDRP[grey]
ENDF
EndTTInstrs
ShortTable: cvt  8
  550
  550
  1000
  -3298
  0
  -18500
  -17749
  -16896
EndShort
ShortTable: maxp 16
  1
  0
  401
  191
  7
  0
  0
  1
  0
  2
  2
  1
  764
  0
  0
  0
EndShort
LangName: 1033 "" "" "Regular" "ALLTYPE:Mong Regular:ATECH" "" "Converted from q:+AFwA-WACHALO.TF1 by ALLTYPE"
GaspTable: 1 65535 2 0
Encoding: Original
UnicodeInterp: none
NameList: AGL For New Fonts
DisplaySize: -72
AntiAlias: 1

StartChar: .notdef
Encoding: 0 -1 0
Width: 750
Flags: W
LayerCount: 2
Fore
SplineSet
125 0 m 1,0,-1
 125 625 l 1,1,-1
 625 625 l 1,2,-1
 625 0 l 1,3,-1
 125 0 l 1,4,-1
 125 0 l 1,0,-1
608 16 m 1,5,-1
 608 608 l 1,6,-1
 141 608 l 1,7,-1
 141 16 l 1,8,-1
 608 16 l 1,9,-1
 608 16 l 1,5,-1
EndSplineSet
Validated: 5
EndChar

StartChar: exclam
Encoding: 3 33 3
Width: 199
GlyphClass: 2
Flags: W
LayerCount: 2
Fore
SplineSet
64 0 m 1,0,1
 53 0 53 0 44 3 c 128,-1,2
 35 6 35 6 28 13 c 0,3,4
 21 21 21 21 17.5 30 c 128,-1,5
 14 39 14 39 14 50 c 256,6,7
 14 61 14 61 18 70 c 128,-1,8
 22 79 22 79 29 86 c 256,9,10
 36 93 36 93 45 96.5 c 128,-1,11
 54 100 54 100 64 100 c 0,12,13
 75 100 75 100 84.5 96.5 c 128,-1,14
 94 93 94 93 101 85 c 0,15,16
 108 78 108 78 111 69.5 c 128,-1,17
 114 61 114 61 114 50 c 0,18,19
 114 38 114 38 111 29 c 128,-1,20
 108 20 108 20 101 13 c 0,21,22
 95 6 95 6 85.5 3 c 128,-1,23
 76 0 76 0 64 0 c 1,24,-1
 64 0 l 1,0,1
14 512 m 1,25,26
 14 522 14 522 18 529 c 128,-1,27
 22 536 22 536 29 541 c 0,28,29
 37 546 37 546 45.5 548.5 c 128,-1,30
 54 551 54 551 64 551 c 0,31,32
 75 551 75 551 84 548.5 c 128,-1,33
 93 546 93 546 100 541 c 0,34,35
 108 536 108 536 111 529 c 128,-1,36
 114 522 114 522 114 512 c 2,37,-1
 94 183 l 2,38,39
 94 177 94 177 92 172 c 128,-1,40
 90 167 90 167 85 164 c 0,41,42
 81 161 81 161 76 159 c 128,-1,43
 71 157 71 157 64 157 c 0,44,45
 59 157 59 157 54 159 c 128,-1,46
 49 161 49 161 45 164 c 256,47,48
 41 167 41 167 38.5 172 c 128,-1,49
 36 177 36 177 34 183 c 2,50,-1
 14 512 l 1,51,-1
 14 512 l 1,25,26
EndSplineSet
Validated: 5
EndChar

StartChar: quotedbl
Encoding: 4 34 4
Width: 320
GlyphClass: 2
Flags: W
LayerCount: 2
Fore
SplineSet
219 554 m 1,0,1
 219 542 219 542 216.5 532.5 c 128,-1,2
 214 523 214 523 209 516 c 256,3,4
 204 509 204 509 198 505.5 c 128,-1,5
 192 502 192 502 186 502 c 256,6,7
 180 502 180 502 175 505.5 c 128,-1,8
 170 509 170 509 166 516 c 0,9,10
 162 522 162 522 159.5 531.5 c 128,-1,11
 157 541 157 541 157 554 c 2,12,-1
 157 675 l 2,13,14
 157 681 157 681 160 685.5 c 128,-1,15
 163 690 163 690 169 694 c 0,16,17
 174 697 174 697 181.5 698.5 c 128,-1,18
 189 700 189 700 197 700 c 256,19,20
 205 700 205 700 211.5 698.5 c 128,-1,21
 218 697 218 697 223 694 c 0,22,23
 229 691 229 691 232 686 c 128,-1,24
 235 681 235 681 235 675 c 2,25,-1
 219 554 l 1,26,-1
 219 554 l 1,0,1
93 554 m 1,27,28
 93 528 93 528 85.5 515 c 128,-1,29
 78 502 78 502 64 502 c 0,30,31
 58 502 58 502 52 505.5 c 128,-1,32
 46 509 46 509 41 516 c 256,33,34
 36 523 36 523 33.5 532.5 c 128,-1,35
 31 542 31 542 30 554 c 2,36,-1
 14 675 l 2,37,38
 14 681 14 681 17 685.5 c 128,-1,39
 20 690 20 690 26 694 c 0,40,41
 32 697 32 697 39 698.5 c 128,-1,42
 46 700 46 700 53 700 c 0,43,44
 61 700 61 700 68.5 698.5 c 128,-1,45
 76 697 76 697 81 694 c 0,46,47
 87 691 87 691 90 686 c 128,-1,48
 93 681 93 681 93 675 c 2,49,-1
 93 554 l 1,50,-1
 93 554 l 1,27,28
EndSplineSet
Validated: 5
EndChar

StartChar: numbersign
Encoding: 5 35 5
Width: 662
GlyphClass: 2
Flags: W
LayerCount: 2
Fore
SplineSet
82 45 m 1,0,-1
 104 131 l 1,1,-1
 40 131 l 2,2,3
 33 131 33 131 27.5 133 c 128,-1,4
 22 135 22 135 19 139 c 0,5,6
 15 144 15 144 13 149 c 128,-1,7
 11 154 11 154 11 160 c 0,8,9
 11 167 11 167 13 172.5 c 128,-1,10
 15 178 15 178 19 182 c 0,11,12
 22 186 22 186 27.5 188 c 128,-1,13
 33 190 33 190 40 190 c 2,14,-1
 122 190 l 1,15,-1
 165 355 l 1,16,-1
 80 355 l 2,17,18
 73 355 73 355 68 357.5 c 128,-1,19
 63 360 63 360 59 364 c 0,20,21
 55 369 55 369 53.5 374 c 128,-1,22
 52 379 52 379 52 385 c 0,23,24
 52 392 52 392 53.5 397.5 c 128,-1,25
 55 403 55 403 59 407 c 0,26,27
 63 412 63 412 68 414 c 128,-1,28
 73 416 73 416 80 416 c 2,29,-1
 179 416 l 1,30,-1
 209 532 l 2,31,32
 213 546 213 546 222 553.5 c 128,-1,33
 231 561 231 561 245 561 c 0,34,35
 252 561 252 561 257.5 559 c 128,-1,36
 263 557 263 557 268 553 c 256,37,38
 273 549 273 549 275.5 543.5 c 128,-1,39
 278 538 278 538 278 531 c 0,40,41
 278 530 278 530 277.5 528 c 128,-1,42
 277 526 277 526 277 525 c 0,43,44
 276 523 276 523 275.5 521.5 c 128,-1,45
 275 520 275 520 274 518 c 2,46,-1
 247 416 l 1,47,-1
 425 416 l 1,48,-1
 455 532 l 2,49,50
 458 546 458 546 467 553.5 c 128,-1,51
 476 561 476 561 489 561 c 0,52,53
 497 561 497 561 502.5 559 c 128,-1,54
 508 557 508 557 513 553 c 256,55,56
 518 549 518 549 520 543.5 c 128,-1,57
 522 538 522 538 522 531 c 0,58,59
 522 530 522 530 522 528 c 128,-1,60
 522 526 522 526 521 525 c 0,61,62
 521 523 521 523 520.5 521.5 c 128,-1,63
 520 520 520 520 520 518 c 2,64,-1
 495 416 l 1,65,-1
 560 416 l 2,66,67
 567 416 567 416 572 414 c 128,-1,68
 577 412 577 412 580 407 c 0,69,70
 584 403 584 403 585.5 397.5 c 128,-1,71
 587 392 587 392 587 385 c 0,72,73
 587 379 587 379 585.5 374 c 128,-1,74
 584 369 584 369 580 364 c 0,75,76
 576 360 576 360 571.5 357.5 c 128,-1,77
 567 355 567 355 560 355 c 2,78,-1
 477 355 l 1,79,-1
 435 190 l 1,80,-1
 517 190 l 2,81,82
 524 190 524 190 529.5 188 c 128,-1,83
 535 186 535 186 539 182 c 256,84,85
 543 178 543 178 545 172.5 c 128,-1,86
 547 167 547 167 547 160 c 0,87,88
 547 154 547 154 545 149 c 128,-1,89
 543 144 543 144 539 139 c 0,90,91
 535 135 535 135 529.5 133 c 128,-1,92
 524 131 524 131 517 131 c 2,93,-1
 419 131 l 1,94,-1
 392 22 l 2,95,96
 388 9 388 9 380.5 3 c 128,-1,97
 373 -3 373 -3 362 -3 c 0,98,99
 355 -3 355 -3 348.5 -1 c 128,-1,100
 342 1 342 1 337 5 c 0,101,102
 331 10 331 10 328 15.5 c 128,-1,103
 325 21 325 21 325 28 c 0,104,105
 325 30 325 30 325 31.5 c 128,-1,106
 325 33 325 33 326 35 c 0,107,108
 327 36 327 36 328 38 c 128,-1,109
 329 40 329 40 330 41 c 2,110,-1
 352 131 l 1,111,-1
 172 131 l 1,112,-1
 145 22 l 2,113,114
 139 10 139 10 131.5 5 c 128,-1,115
 124 0 124 0 113 0 c 0,116,117
 106 0 106 0 99.5 1.5 c 128,-1,118
 93 3 93 3 88 8 c 256,119,120
 83 13 83 13 80 18.5 c 128,-1,121
 77 24 77 24 77 31 c 0,122,123
 77 35 77 35 78 38.5 c 128,-1,124
 79 42 79 42 82 45 c 1,125,-1
 82 45 l 1,0,-1
366 190 m 1,126,-1
 409 355 l 1,127,-1
 231 355 l 1,128,-1
 189 190 l 1,129,-1
 366 190 l 1,130,-1
 366 190 l 1,126,-1
EndSplineSet
Validated: 5
EndChar

StartChar: dollar
Encoding: 6 123214 6
Width: 580
GlyphClass: 2
Flags: W
LayerCount: 2
Fore
SplineSet
193 129 m 1,0,-1
 193 195 l 2,1,2
 193 209 193 209 192 220.5 c 128,-1,3
 191 232 191 232 189 239 c 0,4,5
 187 247 187 247 182 253 c 128,-1,6
 177 259 177 259 169 264 c 1,7,8
 193 264 193 264 209.5 259 c 128,-1,9
 226 254 226 254 234 243 c 0,10,11
 243 233 243 233 247.5 214 c 128,-1,12
 252 195 252 195 252 167 c 2,13,-1
 252 129 l 2,14,15
 252 98 252 98 244 73.5 c 128,-1,16
 236 49 236 49 219 32 c 0,17,18
 203 16 203 16 182 8 c 128,-1,19
 161 0 161 0 135 0 c 0,20,21
 110 0 110 0 88 8.5 c 128,-1,22
 66 17 66 17 49 33 c 0,23,24
 32 50 32 50 23 74 c 128,-1,25
 14 98 14 98 14 129 c 2,26,-1
 14 385 l 2,27,28
 14 405 14 405 19.5 425 c 128,-1,29
 25 445 25 445 35 464 c 0,30,31
 45 484 45 484 59.5 499 c 128,-1,32
 74 514 74 514 93 526 c 256,33,34
 112 538 112 538 134.5 544 c 128,-1,35
 157 550 157 550 183 550 c 0,36,37
 208 550 208 550 232.5 543.5 c 128,-1,38
 257 537 257 537 282 524 c 0,39,40
 306 511 306 511 321.5 486 c 128,-1,41
 337 461 337 461 344 423 c 2,42,-1
 435 90 l 1,43,-1
 435 530 l 2,44,45
 435 541 435 541 432 550 c 128,-1,46
 429 559 429 559 424 565 c 0,47,48
 419 570 419 570 408.5 577.5 c 128,-1,49
 398 585 398 585 383 593 c 1,50,-1
 404 593 l 2,51,52
 449 593 449 593 472 577.5 c 128,-1,53
 495 562 495 562 495 530 c 2,54,-1
 495 50 l 2,55,56
 495 38 495 38 490.5 29 c 128,-1,57
 486 20 486 20 478 13 c 256,58,59
 470 6 470 6 460.5 3 c 128,-1,60
 451 0 451 0 440 0 c 0,61,62
 430 0 430 0 420 4 c 128,-1,63
 410 8 410 8 401 15 c 0,64,65
 393 23 393 23 388.5 33.5 c 128,-1,66
 384 44 384 44 383 58 c 2,67,-1
 282 415 l 1,68,69
 276 452 276 452 251.5 470.5 c 128,-1,70
 227 489 227 489 183 489 c 0,71,72
 164 489 164 489 147.5 484.5 c 128,-1,73
 131 480 131 480 119 471 c 0,74,75
 106 462 106 462 97.5 451 c 128,-1,76
 89 440 89 440 84 427 c 256,77,78
 79 414 79 414 76.5 403.5 c 128,-1,79
 74 393 74 393 74 385 c 2,80,-1
 74 129 l 2,81,82
 74 111 74 111 79 97.5 c 128,-1,83
 84 84 84 84 93 76 c 256,84,85
 102 68 102 68 112.5 64 c 128,-1,86
 123 60 123 60 135 60 c 0,87,88
 146 60 146 60 156.5 64 c 128,-1,89
 167 68 167 68 175 76 c 0,90,91
 184 84 184 84 188.5 97 c 128,-1,92
 193 110 193 110 193 129 c 1,93,-1
 193 129 l 1,0,-1
EndSplineSet
Validated: 5
EndChar

StartChar: percent
Encoding: 7 37 7
Width: 667
GlyphClass: 2
Flags: W
LayerCount: 2
Fore
SplineSet
149 38 m 1,0,-1
 397 532 l 2,1,2
 402 544 402 544 409.5 550 c 128,-1,3
 417 556 417 556 429 556 c 0,4,5
 436 556 436 556 441.5 554.5 c 128,-1,6
 447 553 447 553 451 549 c 0,7,8
 456 546 456 546 457.5 541 c 128,-1,9
 459 536 459 536 459 530 c 0,10,11
 459 528 459 528 459 526 c 128,-1,12
 459 524 459 524 459 523 c 0,13,14
 458 521 458 521 458 520 c 128,-1,15
 458 519 458 519 458 518 c 2,16,-1
 209 22 l 2,17,18
 206 9 206 9 198 3 c 128,-1,19
 190 -3 190 -3 177 -3 c 0,20,21
 170 -3 170 -3 165 -1.5 c 128,-1,22
 160 0 160 0 155 2 c 0,23,24
 151 6 151 6 148 11 c 128,-1,25
 145 16 145 16 145 22 c 0,26,27
 145 27 145 27 146 30.5 c 128,-1,28
 147 34 147 34 149 38 c 1,29,-1
 149 38 l 1,0,-1
472 0 m 1,30,31
 441 0 441 0 419 9 c 128,-1,32
 397 18 397 18 386 37 c 0,33,34
 374 56 374 56 368.5 78 c 128,-1,35
 363 100 363 100 363 125 c 256,36,37
 363 150 363 150 368.5 171.5 c 128,-1,38
 374 193 374 193 386 212 c 0,39,40
 397 231 397 231 419 240.5 c 128,-1,41
 441 250 441 250 472 250 c 0,42,43
 504 250 504 250 526 240.5 c 128,-1,44
 548 231 548 231 559 212 c 0,45,46
 571 193 571 193 577 171.5 c 128,-1,47
 583 150 583 150 583 125 c 256,48,49
 583 100 583 100 577 78 c 128,-1,50
 571 56 571 56 559 37 c 0,51,52
 548 18 548 18 526 9 c 128,-1,53
 504 0 504 0 472 0 c 1,54,-1
 472 0 l 1,30,31
423 125 m 1,55,56
 423 108 423 108 425.5 95.5 c 128,-1,57
 428 83 428 83 434 75 c 0,58,59
 439 68 439 68 449 64 c 128,-1,60
 459 60 459 60 472 60 c 0,61,62
 486 60 486 60 495.5 64 c 128,-1,63
 505 68 505 68 511 75 c 0,64,65
 517 83 517 83 519.5 95.5 c 128,-1,66
 522 108 522 108 522 125 c 256,67,68
 522 142 522 142 519.5 154.5 c 128,-1,69
 517 167 517 167 511 174 c 0,70,71
 506 182 506 182 496 185.5 c 128,-1,72
 486 189 486 189 472 189 c 0,73,74
 459 189 459 189 449.5 186 c 128,-1,75
 440 183 440 183 435 175 c 0,76,77
 430 168 430 168 427 155 c 128,-1,78
 424 142 424 142 423 125 c 1,79,-1
 423 125 l 1,55,56
127 300 m 1,80,81
 96 300 96 300 74 309 c 128,-1,82
 52 318 52 318 41 337 c 0,83,84
 29 356 29 356 23.5 378 c 128,-1,85
 18 400 18 400 18 425 c 256,86,87
 18 450 18 450 23.5 471.5 c 128,-1,88
 29 493 29 493 41 512 c 0,89,90
 52 531 52 531 74 540.5 c 128,-1,91
 96 550 96 550 127 550 c 0,92,93
 159 550 159 550 180.5 540.5 c 128,-1,94
 202 531 202 531 214 512 c 256,95,96
 226 493 226 493 232 471.5 c 128,-1,97
 238 450 238 450 238 425 c 256,98,99
 238 400 238 400 232 378 c 128,-1,100
 226 356 226 356 214 337 c 256,101,102
 202 318 202 318 180.5 309 c 128,-1,103
 159 300 159 300 127 300 c 1,104,-1
 127 300 l 1,80,81
77 425 m 1,105,106
 77 408 77 408 80 395.5 c 128,-1,107
 83 383 83 383 88 375 c 0,108,109
 94 368 94 368 104 364 c 128,-1,110
 114 360 114 360 127 360 c 0,111,112
 141 360 141 360 151 364 c 128,-1,113
 161 368 161 368 166 375 c 0,114,115
 172 383 172 383 174.5 395 c 128,-1,116
 177 407 177 407 177 425 c 0,117,118
 177 442 177 442 174.5 454.5 c 128,-1,119
 172 467 172 467 166 474 c 0,120,121
 161 482 161 482 151 485.5 c 128,-1,122
 141 489 141 489 127 489 c 0,123,124
 114 489 114 489 104 485.5 c 128,-1,125
 94 482 94 482 88 474 c 0,126,127
 83 467 83 467 80 454.5 c 128,-1,128
 77 442 77 442 77 425 c 1,129,-1
 77 425 l 1,105,106
EndSplineSet
Validated: 5
EndChar

StartChar: ampersand
Encoding: 8 38 8
Width: 548
GlyphClass: 2
Flags: W
LayerCount: 2
Fore
SplineSet
155 272 m 1,0,1
 146 266 146 266 138.5 260 c 128,-1,2
 131 254 131 254 123 248 c 0,3,4
 121 246 121 246 118.5 244 c 128,-1,5
 116 242 116 242 114 240 c 0,6,7
 110 236 110 236 106.5 232.5 c 128,-1,8
 103 229 103 229 99 224 c 0,9,10
 94 218 94 218 90 210.5 c 128,-1,11
 86 203 86 203 82 193 c 0,12,13
 79 184 79 184 77 172.5 c 128,-1,14
 75 161 75 161 74 147 c 0,15,16
 74 127 74 127 80 110.5 c 128,-1,17
 86 94 86 94 96 83 c 0,18,19
 107 71 107 71 123 65.5 c 128,-1,20
 139 60 139 60 159 60 c 2,21,-1
 197 60 l 2,22,23
 209 60 209 60 220.5 63 c 128,-1,24
 232 66 232 66 242 72 c 256,25,26
 252 78 252 78 263.5 87.5 c 128,-1,27
 275 97 275 97 288 110 c 1,28,-1
 155 272 l 1,29,-1
 155 272 l 1,0,1
202 489 m 1,30,-1
 175 489 l 2,31,32
 150 489 150 489 138 478.5 c 128,-1,33
 126 468 126 468 126 448 c 0,34,35
 126 439 126 439 129.5 427.5 c 128,-1,36
 133 416 133 416 139 403 c 0,37,38
 142 396 142 396 145.5 389.5 c 128,-1,39
 149 383 149 383 153 377 c 0,40,41
 158 370 158 370 162.5 363.5 c 128,-1,42
 167 357 167 357 173 350 c 1,43,44
 184 355 184 355 193 362.5 c 128,-1,45
 202 370 202 370 210 378 c 0,46,47
 214 382 214 382 217 386.5 c 128,-1,48
 220 391 220 391 223 395 c 256,49,50
 226 399 226 399 228 403.5 c 128,-1,51
 230 408 230 408 232 412 c 0,52,53
 236 421 236 421 237.5 429.5 c 128,-1,54
 239 438 239 438 239 446 c 0,55,56
 239 455 239 455 237 463 c 128,-1,57
 235 471 235 471 230 477 c 256,58,59
 225 483 225 483 218 486 c 128,-1,60
 211 489 211 489 202 489 c 1,61,-1
 202 489 l 1,30,-1
205 550 m 1,62,63
 225 550 225 550 242 542 c 128,-1,64
 259 534 259 534 272 519 c 0,65,66
 286 504 286 504 292.5 486 c 128,-1,67
 299 468 299 468 299 446 c 0,68,69
 299 427 299 427 293 408 c 128,-1,70
 287 389 287 389 276 370 c 256,71,72
 265 351 265 351 248 334 c 128,-1,73
 231 317 231 317 208 302 c 1,74,-1
 322 157 l 1,75,-1
 364 212 l 2,76,77
 369 217 369 217 374 219.5 c 128,-1,78
 379 222 379 222 386 222 c 0,79,80
 392 222 392 222 397.5 220.5 c 128,-1,81
 403 219 403 219 407 215 c 0,82,83
 412 211 412 211 414 206 c 128,-1,84
 416 201 416 201 416 195 c 256,85,86
 416 189 416 189 414 183.5 c 128,-1,87
 412 178 412 178 407 173 c 2,88,-1
 363 113 l 1,89,-1
 385 84 l 2,90,91
 404 63 404 63 425 52.5 c 128,-1,92
 446 42 446 42 468 42 c 1,93,94
 467 32 467 32 463 24 c 128,-1,95
 459 16 459 16 452 11 c 0,96,97
 445 5 445 5 436.5 2.5 c 128,-1,98
 428 0 428 0 417 0 c 0,99,100
 394 0 394 0 374.5 12 c 128,-1,101
 355 24 355 24 340 48 c 1,102,-1
 322 68 l 1,103,104
 294 34 294 34 262.5 17 c 128,-1,105
 231 0 231 0 197 0 c 2,106,-1
 163 0 l 2,107,108
 129 0 129 0 102 8.5 c 128,-1,109
 75 17 75 17 55 35 c 256,110,111
 35 53 35 53 24.5 81.5 c 128,-1,112
 14 110 14 110 14 147 c 0,113,114
 15 172 15 172 19.5 192 c 128,-1,115
 24 212 24 212 32 228 c 256,116,117
 40 244 40 244 49 256 c 128,-1,118
 58 268 58 268 67 276 c 256,119,120
 76 284 76 284 90 294.5 c 128,-1,121
 104 305 104 305 123 318 c 1,122,123
 95 353 95 353 81.5 387.5 c 128,-1,124
 68 422 68 422 68 456 c 0,125,126
 68 477 68 477 74.5 494 c 128,-1,127
 81 511 81 511 94 524 c 0,128,129
 108 537 108 537 127.5 543.5 c 128,-1,130
 147 550 147 550 173 550 c 2,131,-1
 205 550 l 1,132,-1
 205 550 l 1,62,63
EndSplineSet
Validated: 5
EndChar

StartChar: quotesingle
Encoding: 9 43 9
Width: 320
GlyphClass: 2
Flags: W
LayerCount: 2
Fore
SplineSet
74 550 m 1,0,-1
 74 427 l 1,1,2
 81 441 81 441 92 455.5 c 128,-1,3
 103 470 103 470 119 486 c 256,4,5
 135 502 135 502 149.5 510 c 128,-1,6
 164 518 164 518 177 518 c 0,7,8
 179 519 179 519 181.5 519.5 c 128,-1,9
 184 520 184 520 188 520 c 0,10,11
 197 520 197 520 204.5 516.5 c 128,-1,12
 212 513 212 513 219 505 c 0,13,14
 226 498 226 498 229 488 c 128,-1,15
 232 478 232 478 232 465 c 1,16,17
 216 465 216 465 199.5 458.5 c 128,-1,18
 183 452 183 452 166 440 c 0,19,20
 150 428 150 428 136.5 411 c 128,-1,21
 123 394 123 394 111 373 c 0,22,23
 99 351 99 351 90 326.5 c 128,-1,24
 81 302 81 302 74 274 c 1,25,-1
 14 274 l 1,26,-1
 14 550 l 1,27,-1
 74 550 l 1,28,-1
 74 550 l 1,0,-1
EndSplineSet
Validated: 5
EndChar

StartChar: parenleft
Encoding: 10 40 10
Width: 232
GlyphClass: 2
Flags: W
LayerCount: 2
Fore
SplineSet
173 -60 m 1,0,1
 142 -59 142 -59 117.5 -43.5 c 128,-1,2
 93 -28 93 -28 75 0 c 0,3,4
 57 31 57 31 44.5 64 c 128,-1,5
 32 97 32 97 26 133 c 0,6,7
 19 169 19 169 15.5 197 c 128,-1,8
 12 225 12 225 12 245 c 2,9,-1
 12 304 l 2,10,11
 12 324 12 324 15.5 352 c 128,-1,12
 19 380 19 380 26 416 c 0,13,14
 32 452 32 452 44 485.5 c 128,-1,15
 56 519 56 519 73 549 c 256,16,17
 90 579 90 579 114 594.5 c 128,-1,18
 138 610 138 610 167 610 c 1,19,20
 154 595 154 595 140 564.5 c 128,-1,21
 126 534 126 534 109 487 c 0,22,23
 93 440 93 440 85 394 c 128,-1,24
 77 348 77 348 77 302 c 2,25,-1
 77 247 l 2,26,27
 77 216 77 216 81.5 184 c 128,-1,28
 86 152 86 152 93 119 c 0,29,30
 101 86 101 86 111 57.5 c 128,-1,31
 121 29 121 29 132 5 c 0,32,33
 143 -18 143 -18 153.5 -34 c 128,-1,34
 164 -50 164 -50 173 -59 c 1,35,-1
 173 -60 l 1,0,1
EndSplineSet
Validated: 1
EndChar

StartChar: parenright
Encoding: 11 41 11
Width: 258
GlyphClass: 2
Flags: W
LayerCount: 2
Fore
SplineSet
12 610 m 1,0,1
 36 610 36 610 56.5 600.5 c 128,-1,2
 77 591 77 591 93 572 c 256,3,4
 109 553 109 553 121.5 530 c 128,-1,5
 134 507 134 507 142 480 c 0,6,7
 151 454 151 454 157 428.5 c 128,-1,8
 163 403 163 403 166 378 c 0,9,10
 169 354 169 354 171 335.5 c 128,-1,11
 173 317 173 317 173 304 c 2,12,-1
 173 245 l 2,13,14
 173 225 173 225 169.5 197 c 128,-1,15
 166 169 166 169 160 133 c 0,16,17
 153 97 153 97 141 64 c 128,-1,18
 129 31 129 31 112 0 c 0,19,20
 95 -28 95 -28 71 -43.5 c 128,-1,21
 47 -59 47 -59 18 -59 c 1,22,23
 23 -53 23 -53 29.5 -42.5 c 128,-1,24
 36 -32 36 -32 43 -17 c 0,25,26
 51 -2 51 -2 58.5 15.5 c 128,-1,27
 66 33 66 33 73 54 c 0,28,29
 81 76 81 76 87 99.5 c 128,-1,30
 93 123 93 123 98 148 c 0,31,32
 103 174 103 174 105 198.5 c 128,-1,33
 107 223 107 223 107 248 c 2,34,-1
 107 302 l 2,35,36
 107 334 107 334 103 366.5 c 128,-1,37
 99 399 99 399 91 431 c 0,38,39
 84 463 84 463 74 491.5 c 128,-1,40
 64 520 64 520 53 544 c 0,41,42
 42 569 42 569 31.5 585 c 128,-1,43
 21 601 21 601 12 610 c 1,44,-1
 12 610 l 1,0,1
EndSplineSet
Validated: 5
EndChar

StartChar: asterisk
Encoding: 12 42 12
Width: 449
GlyphClass: 2
Flags: W
LayerCount: 2
Fore
SplineSet
300 113 m 1,0,-1
 189 189 l 1,1,-1
 80 113 l 1,2,-1
 123 238 l 1,3,-1
 14 310 l 1,4,-1
 147 310 l 1,5,-1
 189 437 l 1,6,-1
 232 312 l 1,7,-1
 364 312 l 1,8,-1
 258 238 l 1,9,-1
 300 113 l 1,10,-1
 300 113 l 1,0,-1
EndSplineSet
Validated: 5
EndChar

StartChar: plus
Encoding: 13 123193 13
Width: 320
GlyphClass: 2
Flags: W
LayerCount: 2
Fore
SplineSet
74 550 m 1,0,-1
 74 427 l 1,1,2
 81 441 81 441 92 455.5 c 128,-1,3
 103 470 103 470 119 486 c 256,4,5
 135 502 135 502 149.5 510 c 128,-1,6
 164 518 164 518 177 518 c 0,7,8
 179 519 179 519 181.5 519.5 c 128,-1,9
 184 520 184 520 188 520 c 0,10,11
 197 520 197 520 204.5 516.5 c 128,-1,12
 212 513 212 513 219 505 c 0,13,14
 226 498 226 498 229 488 c 128,-1,15
 232 478 232 478 232 465 c 1,16,17
 216 465 216 465 199.5 458.5 c 128,-1,18
 183 452 183 452 166 440 c 0,19,20
 150 428 150 428 136.5 411 c 128,-1,21
 123 394 123 394 111 373 c 0,22,23
 99 351 99 351 90 326.5 c 128,-1,24
 81 302 81 302 74 274 c 1,25,-1
 14 274 l 1,26,-1
 14 550 l 1,27,-1
 74 550 l 1,28,-1
 74 550 l 1,0,-1
EndSplineSet
Validated: 5
EndChar

StartChar: comma
Encoding: 14 44 14
Width: 228
GlyphClass: 2
Flags: W
LayerCount: 2
Fore
SplineSet
8 -97 m 1,0,1
 40 -71 40 -71 56 -47 c 128,-1,2
 72 -23 72 -23 72 0 c 1,3,4
 53 0 53 0 41 2.5 c 128,-1,5
 29 5 29 5 24 11 c 0,6,7
 20 17 20 17 17 27 c 128,-1,8
 14 37 14 37 14 50 c 0,9,10
 14 61 14 61 18 70 c 128,-1,11
 22 79 22 79 29 86 c 256,12,13
 36 93 36 93 45 96.5 c 128,-1,14
 54 100 54 100 64 100 c 2,15,-1
 93 100 l 2,16,17
 104 100 104 100 112.5 96.5 c 128,-1,18
 121 93 121 93 128 85 c 0,19,20
 136 78 136 78 139.5 69.5 c 128,-1,21
 143 61 143 61 143 50 c 0,22,23
 143 48 143 48 143 45.5 c 128,-1,24
 143 43 143 43 143 39 c 0,25,26
 143 37 143 37 143 35.5 c 128,-1,27
 143 34 143 34 144 33 c 0,28,29
 144 32 144 32 144 31 c 128,-1,30
 144 30 144 30 144 29 c 0,31,32
 144 -34 144 -34 115 -66 c 128,-1,33
 86 -98 86 -98 28 -98 c 0,34,35
 21 -98 21 -98 16 -97.5 c 128,-1,36
 11 -97 11 -97 8 -96 c 2,37,-1
 8 -97 l 1,0,1
EndSplineSet
Validated: 5
EndChar

StartChar: hyphen
Encoding: 15 45 15
Width: 367
GlyphClass: 2
Flags: W
LayerCount: 2
Fore
SplineSet
250 242 m 1,0,-1
 50 242 l 2,1,2
 41 242 41 242 34 245 c 128,-1,3
 27 248 27 248 22 252 c 0,4,5
 18 257 18 257 15 262 c 128,-1,6
 12 267 12 267 12 273 c 0,7,8
 12 280 12 280 15 286 c 128,-1,9
 18 292 18 292 22 296 c 0,10,11
 27 300 27 300 34 302 c 128,-1,12
 41 304 41 304 50 304 c 2,13,-1
 250 304 l 2,14,15
 259 304 259 304 266 302 c 128,-1,16
 273 300 273 300 278 296 c 256,17,18
 283 292 283 292 285.5 286 c 128,-1,19
 288 280 288 280 288 273 c 0,20,21
 288 267 288 267 285 262 c 128,-1,22
 282 257 282 257 277 252 c 0,23,24
 272 248 272 248 265 245 c 128,-1,25
 258 242 258 242 250 242 c 1,26,-1
 250 242 l 1,0,-1
EndSplineSet
Validated: 5
EndChar

StartChar: period
Encoding: 16 46 16
Width: 209
GlyphClass: 2
Flags: W
LayerCount: 2
Fore
SplineSet
70 0 m 1,0,1
 58 0 58 0 48 4 c 128,-1,2
 38 8 38 8 30 16 c 0,3,4
 23 24 23 24 18.5 33.5 c 128,-1,5
 14 43 14 43 14 54 c 256,6,7
 14 65 14 65 18.5 75 c 128,-1,8
 23 85 23 85 31 93 c 0,9,10
 40 101 40 101 49.5 105.5 c 128,-1,11
 59 110 59 110 70 110 c 256,12,13
 81 110 81 110 90.5 105.5 c 128,-1,14
 100 101 100 101 108 93 c 256,15,16
 116 85 116 85 120.5 75 c 128,-1,17
 125 65 125 65 125 54 c 256,18,19
 125 43 125 43 121 33.5 c 128,-1,20
 117 24 117 24 109 16 c 0,21,22
 102 8 102 8 92 4 c 128,-1,23
 82 0 82 0 70 0 c 1,24,-1
 70 0 l 1,0,1
EndSplineSet
Validated: 5
EndChar

StartChar: slash
Encoding: 17 47 17
Width: 347
GlyphClass: 2
Flags: W
LayerCount: 2
Fore
SplineSet
263 506 m 1,0,-1
 99 18 l 2,1,2
 93 6 93 6 84.5 0.5 c 128,-1,3
 76 -5 76 -5 65 -5 c 0,4,5
 63 -5 63 -5 61.5 -5 c 128,-1,6
 60 -5 60 -5 58 -4 c 0,7,8
 54 -3 54 -3 50.5 -1.5 c 128,-1,9
 47 0 47 0 44 2 c 0,10,11
 40 6 40 6 37 10.5 c 128,-1,12
 34 15 34 15 34 20 c 256,13,14
 34 25 34 25 35 28.5 c 128,-1,15
 36 32 36 32 39 35 c 2,16,-1
 198 522 l 2,17,18
 202 536 202 536 210.5 543 c 128,-1,19
 219 550 219 550 232 550 c 0,20,21
 239 550 239 550 245 548 c 128,-1,22
 251 546 251 546 256 541 c 0,23,24
 261 537 261 537 264 532 c 128,-1,25
 267 527 267 527 267 520 c 0,26,27
 267 516 267 516 266 512.5 c 128,-1,28
 265 509 265 509 263 506 c 1,29,-1
 263 506 l 1,0,-1
EndSplineSet
Validated: 5
EndChar

StartChar: zero
Encoding: 18 123200 18
Width: 495
GlyphClass: 2
Flags: W
LayerCount: 2
Fore
SplineSet
73 379 m 1,0,-1
 73 169 l 2,1,2
 73 147 73 147 80.5 128 c 128,-1,3
 88 109 88 109 102 92 c 0,4,5
 116 76 116 76 134 68 c 128,-1,6
 152 60 152 60 174 60 c 2,7,-1
 249 60 l 2,8,9
 263 60 263 60 275.5 64 c 128,-1,10
 288 68 288 68 299 75 c 0,11,12
 310 83 310 83 319 93 c 128,-1,13
 328 103 328 103 335 116 c 256,14,15
 342 129 342 129 345.5 142.5 c 128,-1,16
 349 156 349 156 349 169 c 2,17,-1
 349 379 l 2,18,19
 349 401 349 401 341.5 420 c 128,-1,20
 334 439 334 439 320 455 c 0,21,22
 306 472 306 472 288 480 c 128,-1,23
 270 488 270 488 249 489 c 2,24,-1
 174 489 l 2,25,26
 152 489 152 489 134 481.5 c 128,-1,27
 116 474 116 474 102 457 c 0,28,29
 88 441 88 441 80.5 421.5 c 128,-1,30
 73 402 73 402 73 379 c 1,31,-1
 73 379 l 1,0,-1
13 370 m 1,32,33
 13 411 13 411 25 443.5 c 128,-1,34
 37 476 37 476 61 500 c 0,35,36
 84 525 84 525 115 537.5 c 128,-1,37
 146 550 146 550 184 550 c 2,38,-1
 239 550 l 2,39,40
 264 550 264 550 286 544 c 128,-1,41
 308 538 308 538 327 527 c 0,42,43
 347 517 347 517 362 501 c 128,-1,44
 377 485 377 485 387 464 c 0,45,46
 398 444 398 444 403 420 c 128,-1,47
 408 396 408 396 408 370 c 2,48,-1
 408 179 l 2,49,50
 408 153 408 153 403 129 c 128,-1,51
 398 105 398 105 387 85 c 0,52,53
 377 64 377 64 362 48.5 c 128,-1,54
 347 33 347 33 327 22 c 0,55,56
 308 11 308 11 286 5.5 c 128,-1,57
 264 0 264 0 239 0 c 2,58,-1
 184 0 l 2,59,60
 146 0 146 0 115 12 c 128,-1,61
 84 24 84 24 61 49 c 0,62,63
 37 73 37 73 25 106 c 128,-1,64
 13 139 13 139 13 179 c 2,65,-1
 13 370 l 1,66,-1
 13 370 l 1,32,33
EndSplineSet
Validated: 5
EndChar

StartChar: one
Encoding: 19 123201 19
Width: 232
GlyphClass: 2
Flags: W
LayerCount: 2
Fore
SplineSet
54 50 m 1,0,-1
 54 500 l 2,1,2
 54 510 54 510 55.5 517.5 c 128,-1,3
 57 525 57 525 59 530 c 0,4,5
 62 535 62 535 67.5 539 c 128,-1,6
 73 543 73 543 80 545 c 0,7,8
 88 547 88 547 100 548.5 c 128,-1,9
 112 550 112 550 128 550 c 2,10,-1
 155 550 l 1,11,12
 142 543 142 543 133.5 536.5 c 128,-1,13
 125 530 125 530 122 525 c 0,14,15
 118 521 118 521 116 514.5 c 128,-1,16
 114 508 114 508 114 500 c 2,17,-1
 114 50 l 2,18,19
 114 37 114 37 112.5 28.5 c 128,-1,20
 111 20 111 20 108 15 c 256,21,22
 105 10 105 10 100 7 c 128,-1,23
 95 4 95 4 87 2 c 0,24,25
 80 1 80 1 67.5 0.5 c 128,-1,26
 55 0 55 0 38 0 c 2,27,-1
 14 0 l 1,28,29
 34 8 34 8 44 20 c 128,-1,30
 54 32 54 32 54 50 c 1,31,-1
 54 50 l 1,0,-1
EndSplineSet
Validated: 5
EndChar

StartChar: two
Encoding: 20 123202 20
Width: 363
GlyphClass: 2
Flags: W
LayerCount: 2
Fore
SplineSet
191 47 m 1,0,-1
 191 245 l 1,1,-1
 30 245 l 2,2,3
 18 245 18 245 10.5 247.5 c 128,-1,4
 3 250 3 250 0 254 c 256,5,6
 -3 258 -3 258 -5 265 c 128,-1,7
 -7 272 -7 272 -7 281 c 2,8,-1
 -8 500 l 2,9,10
 -6 512 -6 512 -3 521 c 128,-1,11
 0 530 0 530 3 535 c 0,12,13
 8 540 8 540 15 543 c 128,-1,14
 22 546 22 546 31 547 c 0,15,16
 41 549 41 549 57 549.5 c 128,-1,17
 73 550 73 550 96 550 c 1,18,19
 84 542 84 542 75.5 536 c 128,-1,20
 67 530 67 530 62 525 c 256,21,22
 57 520 57 520 54.5 513 c 128,-1,23
 52 506 52 506 52 497 c 2,24,-1
 52 304 l 1,25,-1
 221 304 l 2,26,27
 233 304 233 304 240 302.5 c 128,-1,28
 247 301 247 301 249 297 c 0,29,30
 252 293 252 293 253 285 c 128,-1,31
 254 277 254 277 254 264 c 2,32,-1
 254 44 l 2,33,34
 253 22 253 22 231 11 c 128,-1,35
 209 0 209 0 168 0 c 2,36,-1
 146 0 l 1,37,38
 159 8 159 8 167.5 14.5 c 128,-1,39
 176 21 176 21 180 25 c 0,40,41
 185 30 185 30 187.5 35 c 128,-1,42
 190 40 190 40 191 47 c 1,43,-1
 191 47 l 1,0,-1
EndSplineSet
Validated: 5
EndChar

StartChar: three
Encoding: 21 123203 21
Width: 544
GlyphClass: 2
Flags: W
LayerCount: 2
Fore
SplineSet
90 375 m 1,0,1
 74 375 74 375 62 376 c 128,-1,2
 50 377 50 377 42 378 c 0,3,4
 35 380 35 380 29.5 384.5 c 128,-1,5
 24 389 24 389 20 396 c 0,6,7
 17 403 17 403 15.5 414 c 128,-1,8
 14 425 14 425 14 439 c 0,9,10
 14 467 14 467 23 488 c 128,-1,11
 32 509 32 509 50 522 c 0,12,13
 68 536 68 536 88 543 c 128,-1,14
 108 550 108 550 129 550 c 0,15,16
 146 549 146 549 160 547 c 128,-1,17
 174 545 174 545 187 540 c 0,18,19
 200 536 200 536 212.5 526.5 c 128,-1,20
 225 517 225 517 238 502 c 1,21,22
 251 517 251 517 263.5 526.5 c 128,-1,23
 276 536 276 536 289 540 c 0,24,25
 302 545 302 545 315.5 547 c 128,-1,26
 329 549 329 549 344 550 c 0,27,28
 367 550 367 550 386.5 543 c 128,-1,29
 406 536 406 536 424 522 c 0,30,31
 442 509 442 509 450.5 488.5 c 128,-1,32
 459 468 459 468 459 439 c 0,33,34
 459 424 459 424 458 413 c 128,-1,35
 457 402 457 402 454 395 c 0,36,37
 451 389 451 389 446 384.5 c 128,-1,38
 441 380 441 380 433 378 c 0,39,40
 426 377 426 377 414 376 c 128,-1,41
 402 375 402 375 385 375 c 1,42,43
 390 377 390 377 393 381.5 c 128,-1,44
 396 386 396 386 397 392 c 0,45,46
 399 398 399 398 399 408.5 c 128,-1,47
 399 419 399 419 399 435 c 0,48,49
 399 449 399 449 395 459 c 128,-1,50
 391 469 391 469 383 476 c 256,51,52
 375 483 375 483 365 486 c 128,-1,53
 355 489 355 489 343 489 c 0,54,55
 330 489 330 489 317.5 484.5 c 128,-1,56
 305 480 305 480 293 470 c 256,57,58
 281 460 281 460 274.5 444.5 c 128,-1,59
 268 429 268 429 268 409 c 2,60,-1
 268 304 l 1,61,-1
 333 304 l 2,62,63
 343 304 343 304 350.5 302.5 c 128,-1,64
 358 301 358 301 363 296 c 0,65,66
 368 292 368 292 371 285 c 128,-1,67
 374 278 374 278 375 270 c 0,68,69
 377 261 377 261 377 247 c 128,-1,70
 377 233 377 233 377 215 c 1,71,72
 372 223 372 223 367 228.5 c 128,-1,73
 362 234 362 234 358 238 c 0,74,75
 354 241 354 241 348 243 c 128,-1,76
 342 245 342 245 334 245 c 2,77,-1
 268 245 l 1,78,-1
 268 50 l 2,79,80
 268 25 268 25 250 12.5 c 128,-1,81
 232 0 232 0 197 0 c 0,82,83
 194 0 194 0 190 0 c 128,-1,84
 186 0 186 0 181 0 c 256,85,86
 176 0 176 0 172.5 0 c 128,-1,87
 169 0 169 0 167 0 c 1,88,89
 177 4 177 4 184.5 9 c 128,-1,90
 192 14 192 14 197 21 c 256,91,92
 202 28 202 28 205 35 c 128,-1,93
 208 42 208 42 208 50 c 2,94,-1
 208 245 l 1,95,-1
 137 245 l 2,96,97
 130 245 130 245 125 244 c 128,-1,98
 120 243 120 243 116 241 c 256,99,100
 112 239 112 239 108.5 236.5 c 128,-1,101
 105 234 105 234 102 230 c 0,102,103
 101 228 101 228 98.5 225.5 c 128,-1,104
 96 223 96 223 94 220 c 0,105,106
 93 219 93 219 92 217.5 c 128,-1,107
 91 216 91 216 90 215 c 1,108,109
 90 233 90 233 91 246.5 c 128,-1,110
 92 260 92 260 93 269 c 0,111,112
 95 278 95 278 98.5 285 c 128,-1,113
 102 292 102 292 108 296 c 0,114,115
 113 301 113 301 122 302.5 c 128,-1,116
 131 304 131 304 143 304 c 2,117,-1
 208 304 l 1,118,-1
 208 407 l 2,119,120
 208 427 208 427 201.5 443 c 128,-1,121
 195 459 195 459 182 469 c 0,122,123
 176 474 176 474 170 478 c 128,-1,124
 164 482 164 482 158 484 c 0,125,126
 151 487 151 487 145 488 c 128,-1,127
 139 489 139 489 133 489 c 0,128,129
 120 489 120 489 109.5 486 c 128,-1,130
 99 483 99 483 91 475 c 0,131,132
 83 468 83 468 78.5 458 c 128,-1,133
 74 448 74 448 74 435 c 0,134,135
 74 432 74 432 74 429 c 128,-1,136
 74 426 74 426 74 422 c 0,137,138
 74 420 74 420 74 418 c 128,-1,139
 74 416 74 416 74 415 c 0,140,141
 73 413 73 413 73 412 c 128,-1,142
 73 411 73 411 73 410 c 0,143,144
 73 398 73 398 77 389.5 c 128,-1,145
 81 381 81 381 90 375 c 1,146,-1
 90 375 l 1,0,1
EndSplineSet
Validated: 5
EndChar

StartChar: four
Encoding: 22 123204 22
Width: 504
GlyphClass: 2
Flags: W
LayerCount: 2
Fore
SplineSet
300 205 m 1,0,1
 292 216 292 216 284.5 224 c 128,-1,2
 277 232 277 232 269 236 c 0,3,4
 262 241 262 241 251.5 243 c 128,-1,5
 241 245 241 245 228 245 c 2,6,-1
 103 245 l 2,7,8
 94 245 94 245 88.5 243.5 c 128,-1,9
 83 242 83 242 80 239 c 256,10,11
 77 236 77 236 75.5 231.5 c 128,-1,12
 74 227 74 227 74 219 c 2,13,-1
 74 107 l 2,14,15
 74 94 74 94 78 84.5 c 128,-1,16
 82 75 82 75 90 70 c 256,17,18
 98 65 98 65 109.5 62.5 c 128,-1,19
 121 60 121 60 137 60 c 2,20,-1
 294 60 l 2,21,22
 327 60 327 60 343.5 77.5 c 128,-1,23
 360 95 360 95 360 129 c 2,24,-1
 360 489 l 1,25,-1
 74 489 l 1,26,-1
 74 462 l 2,27,28
 74 449 74 449 82.5 437.5 c 128,-1,29
 91 426 91 426 107 415 c 1,30,31
 91 415 91 415 77.5 416 c 128,-1,32
 64 417 64 417 54 418 c 0,33,34
 45 420 45 420 38.5 424 c 128,-1,35
 32 428 32 428 27 432 c 0,36,37
 23 437 23 437 21.5 444 c 128,-1,38
 20 451 20 451 20 459 c 2,39,-1
 20 508 l 2,40,41
 20 516 20 516 22.5 523.5 c 128,-1,42
 25 531 25 531 31 537 c 0,43,44
 37 544 37 544 44.5 547 c 128,-1,45
 52 550 52 550 62 550 c 2,46,-1
 383 550 l 2,47,48
 394 550 394 550 401 547.5 c 128,-1,49
 408 545 408 545 412 540 c 0,50,51
 416 536 416 536 417.5 529 c 128,-1,52
 419 522 419 522 419 512 c 2,53,-1
 419 127 l 2,54,55
 419 113 419 113 416.5 98.5 c 128,-1,56
 414 84 414 84 409 70 c 0,57,58
 404 55 404 55 394.5 43 c 128,-1,59
 385 31 385 31 371 20 c 0,60,61
 357 10 357 10 338 5 c 128,-1,62
 319 0 319 0 294 0 c 2,63,-1
 133 0 l 2,64,65
 73 0 73 0 43.5 28 c 128,-1,66
 14 56 14 56 14 113 c 2,67,-1
 14 228 l 2,68,69
 14 245 14 245 20 259 c 128,-1,70
 26 273 26 273 37 283 c 0,71,72
 48 294 48 294 63 299 c 128,-1,73
 78 304 78 304 97 304 c 2,74,-1
 219 304 l 2,75,76
 244 304 244 304 260.5 299.5 c 128,-1,77
 277 295 277 295 284 286 c 0,78,79
 292 278 292 278 296.5 263.5 c 128,-1,80
 301 249 301 249 301 229 c 0,81,82
 301 228 301 228 301 227 c 128,-1,83
 301 226 301 226 301 225 c 0,84,85
 300 223 300 223 300 221.5 c 128,-1,86
 300 220 300 220 300 218 c 0,87,88
 300 214 300 214 300 210.5 c 128,-1,89
 300 207 300 207 300 205 c 1,90,-1
 300 205 l 1,0,1
EndSplineSet
Validated: 5
EndChar

StartChar: five
Encoding: 23 123205 23
Width: 604
GlyphClass: 2
Flags: W
LayerCount: 2
Fore
SplineSet
524 449 m 1,0,1
 519 460 519 460 513.5 468.5 c 128,-1,2
 508 477 508 477 503 482 c 0,3,4
 499 487 499 487 491.5 489.5 c 128,-1,5
 484 492 484 492 475 492 c 2,6,-1
 445 492 l 1,7,-1
 327 52 l 2,8,9
 326 40 326 40 321.5 30.5 c 128,-1,10
 317 21 317 21 309 14 c 256,11,12
 301 7 301 7 292 3.5 c 128,-1,13
 283 0 283 0 272 0 c 0,14,15
 262 0 262 0 253 3.5 c 128,-1,16
 244 7 244 7 236 14 c 0,17,18
 229 20 229 20 224 29 c 128,-1,19
 219 38 219 38 218 50 c 2,20,-1
 84 489 l 1,21,-1
 68 489 l 2,22,23
 59 489 59 489 51.5 487.5 c 128,-1,24
 44 486 44 486 39 481 c 0,25,26
 34 477 34 477 28 468.5 c 128,-1,27
 22 460 22 460 14 447 c 1,28,29
 15 450 15 450 15.5 458 c 128,-1,30
 16 466 16 466 16 479 c 0,31,32
 15 496 15 496 17.5 509 c 128,-1,33
 20 522 20 522 26 531 c 0,34,35
 31 541 31 541 43 545.5 c 128,-1,36
 55 550 55 550 72 550 c 2,37,-1
 107 550 l 2,38,39
 115 549 115 549 120.5 547 c 128,-1,40
 126 545 126 545 129 543 c 0,41,42
 130 542 130 542 131.5 539.5 c 128,-1,43
 133 537 133 537 134 534 c 256,44,45
 135 531 135 531 136.5 527 c 128,-1,46
 138 523 138 523 139 518 c 2,47,-1
 272 80 l 1,48,-1
 389 514 l 2,49,50
 394 532 394 532 405.5 541 c 128,-1,51
 417 550 417 550 435 550 c 2,52,-1
 468 550 l 2,53,54
 485 549 485 549 497 544.5 c 128,-1,55
 509 540 509 540 514 532 c 0,56,57
 519 525 519 525 521.5 512 c 128,-1,58
 524 499 524 499 524 481 c 2,59,-1
 524 449 l 1,60,-1
 524 449 l 1,0,1
EndSplineSet
Validated: 5
EndChar

StartChar: six
Encoding: 24 123206 24
Width: 482
GlyphClass: 2
Flags: W
LayerCount: 2
Fore
SplineSet
113 447 m 1,0,-1
 113 415 l 2,1,2
 114 408 114 408 117 402.5 c 128,-1,3
 120 397 120 397 126 393 c 256,4,5
 132 389 132 389 139 387 c 128,-1,6
 146 385 146 385 155 385 c 0,7,8
 166 385 166 385 175.5 388 c 128,-1,9
 185 391 185 391 195 396 c 256,10,11
 205 401 205 401 210.5 408 c 128,-1,12
 216 415 216 415 218 423 c 1,13,14
 223 412 223 412 226 402.5 c 128,-1,15
 229 393 229 393 229 385 c 0,16,17
 229 371 229 371 223 360 c 128,-1,18
 217 349 217 349 206 341 c 0,19,20
 194 333 194 333 179 328.5 c 128,-1,21
 164 324 164 324 145 324 c 256,22,23
 126 324 126 324 110 330 c 128,-1,24
 94 336 94 336 80 347 c 0,25,26
 67 358 67 358 59.5 373 c 128,-1,27
 52 388 52 388 52 407 c 2,28,-1
 52 449 l 2,29,30
 52 472 52 472 60 490.5 c 128,-1,31
 68 509 68 509 84 522 c 0,32,33
 100 536 100 536 120 543 c 128,-1,34
 140 550 140 550 165 550 c 2,35,-1
 290 550 l 2,36,37
 314 549 314 549 333.5 541 c 128,-1,38
 353 533 353 533 368 518 c 0,39,40
 382 502 382 502 389.5 482.5 c 128,-1,41
 397 463 397 463 397 437 c 2,42,-1
 397 50 l 2,43,44
 397 37 397 37 393 28 c 128,-1,45
 389 19 389 19 381 12 c 0,46,47
 373 6 373 6 363.5 3 c 128,-1,48
 354 0 354 0 343 0 c 0,49,50
 333 0 333 0 324 2.5 c 128,-1,51
 315 5 315 5 307 10 c 0,52,53
 299 16 299 16 294.5 23 c 128,-1,54
 290 30 290 30 288 40 c 0,55,56
 277 67 277 67 262 89 c 128,-1,57
 247 111 247 111 229 129 c 0,58,59
 210 146 210 146 190.5 159 c 128,-1,60
 171 172 171 172 150 179 c 0,61,62
 129 187 129 187 109.5 191 c 128,-1,63
 90 195 90 195 72 195 c 0,64,65
 53 195 53 195 38 191 c 128,-1,66
 23 187 23 187 14 179 c 1,67,68
 14 198 14 198 17 211.5 c 128,-1,69
 20 225 20 225 27 233 c 0,70,71
 33 241 33 241 43.5 245.5 c 128,-1,72
 54 250 54 250 70 250 c 0,73,74
 162 250 162 250 228.5 208.5 c 128,-1,75
 295 167 295 167 337 84 c 1,76,-1
 337 425 l 2,77,78
 337 443 337 443 332.5 455.5 c 128,-1,79
 328 468 328 468 320 475 c 0,80,81
 311 483 311 483 296 486 c 128,-1,82
 281 489 281 489 260 489 c 2,83,-1
 167 489 l 2,84,85
 155 489 155 489 145.5 486.5 c 128,-1,86
 136 484 136 484 128 478 c 0,87,88
 121 472 121 472 117.5 464.5 c 128,-1,89
 114 457 114 457 113 447 c 1,90,-1
 113 447 l 1,0,-1
EndSplineSet
Validated: 5
EndChar

StartChar: seven
Encoding: 25 123207 25
Width: 504
GlyphClass: 2
Flags: W
LayerCount: 2
Fore
SplineSet
274 550 m 1,0,1
 306 550 306 550 331.5 541 c 128,-1,2
 357 532 357 532 378 515 c 256,3,4
 399 498 399 498 409 471.5 c 128,-1,5
 419 445 419 445 419 409 c 2,6,-1
 419 367 l 2,7,8
 419 351 419 351 414.5 336.5 c 128,-1,9
 410 322 410 322 399 308 c 0,10,11
 389 295 389 295 376 286 c 128,-1,12
 363 277 363 277 347 274 c 1,13,14
 364 273 364 273 376.5 267 c 128,-1,15
 389 261 389 261 399 250 c 0,16,17
 410 240 410 240 414.5 226.5 c 128,-1,18
 419 213 419 213 419 197 c 2,19,-1
 419 145 l 2,20,21
 419 108 419 108 407 81 c 128,-1,22
 395 54 395 54 370 36 c 256,23,24
 345 18 345 18 312.5 9 c 128,-1,25
 280 0 280 0 239 0 c 0,26,27
 211 0 211 0 186.5 4.5 c 128,-1,28
 162 9 162 9 142 18 c 0,29,30
 122 28 122 28 106 41.5 c 128,-1,31
 90 55 90 55 79 71 c 0,32,33
 69 88 69 88 63.5 107 c 128,-1,34
 58 126 58 126 58 147 c 2,35,-1
 58 495 l 2,36,37
 58 503 58 503 55.5 510.5 c 128,-1,38
 53 518 53 518 48 523 c 0,39,40
 44 528 44 528 35.5 535 c 128,-1,41
 27 542 27 542 14 550 c 1,42,-1
 62 550 l 2,43,44
 89 550 89 550 103 534.5 c 128,-1,45
 117 519 117 519 117 488 c 2,46,-1
 117 155 l 2,47,48
 119 127 119 127 130.5 109 c 128,-1,49
 142 91 142 91 163 80 c 0,50,51
 184 70 184 70 203.5 65 c 128,-1,52
 223 60 223 60 239 60 c 0,53,54
 259 60 259 60 279.5 64 c 128,-1,55
 300 68 300 68 320 76 c 256,56,57
 340 84 340 84 350 101.5 c 128,-1,58
 360 119 360 119 360 147 c 2,59,-1
 360 183 l 2,60,61
 360 195 360 195 354 204.5 c 128,-1,62
 348 214 348 214 337 221 c 256,63,64
 326 228 326 228 308.5 234 c 128,-1,65
 291 240 291 240 268 245 c 0,66,67
 259 245 259 245 252.5 247 c 128,-1,68
 246 249 246 249 241 253 c 0,69,70
 237 258 237 258 234 263 c 128,-1,71
 231 268 231 268 231 274 c 0,72,73
 231 281 231 281 234 286.5 c 128,-1,74
 237 292 237 292 241 296 c 0,75,76
 246 301 246 301 252.5 302.5 c 128,-1,77
 259 304 259 304 268 304 c 0,78,79
 285 309 285 309 297.5 312.5 c 128,-1,80
 310 316 310 316 319 320 c 0,81,82
 328 323 328 323 335.5 328 c 128,-1,83
 343 333 343 333 348 340 c 256,84,85
 353 347 353 347 356 355.5 c 128,-1,86
 359 364 359 364 360 375 c 2,87,-1
 360 405 l 2,88,89
 360 428 360 428 352.5 445 c 128,-1,90
 345 462 345 462 331 471 c 0,91,92
 316 480 316 480 302 484.5 c 128,-1,93
 288 489 288 489 274 489 c 2,94,-1
 250 489 l 2,95,96
 235 489 235 489 223 481 c 128,-1,97
 211 473 211 473 202 458 c 1,98,99
 202 460 202 460 202 464 c 128,-1,100
 202 468 202 468 202 472 c 0,101,102
 202 474 202 474 202 476 c 128,-1,103
 202 478 202 478 202 480 c 0,104,105
 201 481 201 481 201 482.5 c 128,-1,106
 201 484 201 484 201 485 c 0,107,108
 201 504 201 504 204.5 516.5 c 128,-1,109
 208 529 208 529 215 536 c 256,110,111
 222 543 222 543 237 546.5 c 128,-1,112
 252 550 252 550 274 550 c 1,113,-1
 274 550 l 1,0,1
EndSplineSet
Validated: 5
EndChar

StartChar: eight
Encoding: 26 123208 26
Width: 508
GlyphClass: 2
Flags: W
LayerCount: 2
Fore
SplineSet
419 363 m 1,0,1
 419 345 419 345 413 331 c 128,-1,2
 407 317 407 317 395 306 c 256,3,4
 383 295 383 295 369.5 287.5 c 128,-1,5
 356 280 356 280 340 278 c 0,6,7
 311 268 311 268 290 261.5 c 128,-1,8
 269 255 269 255 257 250 c 0,9,10
 245 246 245 246 230.5 239 c 128,-1,11
 216 232 216 232 199 223 c 0,12,13
 183 213 183 213 169 201.5 c 128,-1,14
 155 190 155 190 144 175 c 0,15,16
 133 161 133 161 127 144 c 128,-1,17
 121 127 121 127 120 107 c 0,18,19
 120 83 120 83 132 71.5 c 128,-1,20
 144 60 144 60 169 60 c 2,21,-1
 318 60 l 2,22,23
 338 60 338 60 347.5 68.5 c 128,-1,24
 357 77 357 77 357 94 c 0,25,26
 357 114 357 114 355.5 128 c 128,-1,27
 354 142 354 142 351 149 c 0,28,29
 348 157 348 157 340 164.5 c 128,-1,30
 332 172 332 172 318 179 c 1,31,32
 347 179 347 179 367 176 c 128,-1,33
 387 173 387 173 397 165 c 0,34,35
 408 158 408 158 412.5 144 c 128,-1,36
 417 130 417 130 417 110 c 2,37,-1
 417 94 l 2,38,39
 417 77 417 77 411.5 60.5 c 128,-1,40
 406 44 406 44 394 29 c 256,41,42
 382 14 382 14 363.5 7 c 128,-1,43
 345 0 345 0 320 0 c 2,44,-1
 167 0 l 2,45,46
 113 0 113 0 86.5 26.5 c 128,-1,47
 60 53 60 53 60 107 c 0,48,49
 62 160 62 160 86.5 198.5 c 128,-1,50
 111 237 111 237 157 262 c 1,51,52
 118 271 118 271 91 283 c 128,-1,53
 64 295 64 295 49 308 c 0,54,55
 34 322 34 322 25 340 c 128,-1,56
 16 358 16 358 12 379 c 1,57,-1
 12 437 l 2,58,59
 12 463 12 463 19.5 482.5 c 128,-1,60
 27 502 27 502 42 518 c 0,61,62
 57 533 57 533 76.5 541 c 128,-1,63
 96 549 96 549 120 550 c 2,64,-1
 310 550 l 2,65,66
 332 550 332 550 349 548 c 128,-1,67
 366 546 366 546 377 541 c 0,68,69
 389 537 389 537 397.5 529 c 128,-1,70
 406 521 406 521 412 509 c 0,71,72
 417 497 417 497 420 479 c 128,-1,73
 423 461 423 461 423 437 c 1,74,75
 416 451 416 451 405 460.5 c 128,-1,76
 394 470 394 470 377 477 c 0,77,78
 361 483 361 483 343.5 486 c 128,-1,79
 326 489 326 489 308 489 c 2,80,-1
 149 489 l 2,81,82
 128 489 128 489 113.5 486 c 128,-1,83
 99 483 99 483 90 475 c 0,84,85
 81 468 81 468 76.5 455.5 c 128,-1,86
 72 443 72 443 72 425 c 2,87,-1
 72 387 l 1,88,89
 76 370 76 370 87.5 357 c 128,-1,90
 99 344 99 344 118 336 c 256,91,92
 137 328 137 328 160 324 c 128,-1,93
 183 320 183 320 211 320 c 0,94,95
 237 320 237 320 264.5 323 c 128,-1,96
 292 326 292 326 320 332 c 0,97,98
 349 338 349 338 373.5 345.5 c 128,-1,99
 398 353 398 353 419 363 c 1,100,-1
 419 363 l 1,0,1
EndSplineSet
Validated: 5
EndChar

StartChar: nine
Encoding: 27 123209 27
Width: 528
GlyphClass: 2
Flags: W
LayerCount: 2
Fore
SplineSet
104 379 m 1,0,1
 59 379 59 379 36.5 397 c 128,-1,2
 14 415 14 415 14 452 c 0,3,4
 14 468 14 468 19 481.5 c 128,-1,5
 24 495 24 495 34 506 c 256,6,7
 44 517 44 517 56 525.5 c 128,-1,8
 68 534 68 534 82 539 c 256,9,10
 96 544 96 544 110 547 c 128,-1,11
 124 550 124 550 137 550 c 2,12,-1
 177 550 l 2,13,14
 203 549 203 549 223.5 540.5 c 128,-1,15
 244 532 244 532 260 515 c 0,16,17
 277 499 277 499 284.5 478.5 c 128,-1,18
 292 458 292 458 292 433 c 2,19,-1
 292 387 l 2,20,21
 291 344 291 344 275 311.5 c 128,-1,22
 259 279 259 279 227 257 c 0,23,24
 196 235 196 235 162 221 c 128,-1,25
 128 207 128 207 90 199 c 1,26,27
 107 194 107 194 122.5 188 c 128,-1,28
 138 182 138 182 151 176 c 0,29,30
 165 170 165 170 182 160.5 c 128,-1,31
 199 151 199 151 218 137 c 0,32,33
 238 124 238 124 259 106.5 c 128,-1,34
 280 89 280 89 302 68 c 0,35,36
 306 64 306 64 310.5 61.5 c 128,-1,37
 315 59 315 59 319 59 c 256,38,39
 323 59 323 59 326.5 61 c 128,-1,40
 330 63 330 63 333 67 c 0,41,42
 336 72 336 72 337 76 c 128,-1,43
 338 80 338 80 337 84 c 2,44,-1
 383 492 l 2,45,46
 383 512 383 512 373 526.5 c 128,-1,47
 363 541 363 541 343 550 c 1,48,49
 372 550 372 550 392 547 c 128,-1,50
 412 544 412 544 422 539 c 0,51,52
 433 534 433 534 438 521 c 128,-1,53
 443 508 443 508 443 488 c 2,54,-1
 395 62 l 2,55,56
 395 46 395 46 389 34 c 128,-1,57
 383 22 383 22 372 14 c 0,58,59
 362 6 362 6 348.5 3 c 128,-1,60
 335 0 335 0 320 0 c 0,61,62
 296 0 296 0 278.5 6.5 c 128,-1,63
 261 13 261 13 250 28 c 0,64,65
 234 47 234 47 217.5 62.5 c 128,-1,66
 201 78 201 78 183 89 c 256,67,68
 165 100 165 100 144 111.5 c 128,-1,69
 123 123 123 123 99 133 c 0,70,71
 75 144 75 144 58.5 152 c 128,-1,72
 42 160 42 160 33 166 c 256,73,74
 24 172 24 172 19 180.5 c 128,-1,75
 14 189 14 189 14 199 c 0,76,77
 14 213 14 213 17 222 c 128,-1,78
 20 231 20 231 25 237 c 256,79,80
 30 243 30 243 39.5 247 c 128,-1,81
 49 251 49 251 62 252 c 0,82,83
 85 255 85 255 106.5 261 c 128,-1,84
 128 267 128 267 147 276 c 0,85,86
 167 285 167 285 182.5 297 c 128,-1,87
 198 309 198 309 209 324 c 0,88,89
 221 338 221 338 226.5 354.5 c 128,-1,90
 232 371 232 371 232 389 c 2,91,-1
 232 427 l 2,92,93
 232 458 232 458 215.5 473.5 c 128,-1,94
 199 489 199 489 167 489 c 2,95,-1
 129 489 l 2,96,97
 119 489 119 489 110.5 486.5 c 128,-1,98
 102 484 102 484 94 479 c 0,99,100
 87 474 87 474 81.5 466.5 c 128,-1,101
 76 459 76 459 74 449 c 0,102,103
 74 425 74 425 81.5 407.5 c 128,-1,104
 89 390 89 390 104 379 c 1,105,-1
 104 379 l 1,0,1
EndSplineSet
Validated: 1
EndChar

StartChar: colon
Encoding: 28 123196 28
Width: 498
GlyphClass: 2
Flags: W
LayerCount: 2
Fore
SplineSet
107 333 m 1,0,1
 100 321 100 321 88.5 315 c 128,-1,2
 77 309 77 309 62 309 c 0,3,4
 52 309 52 309 43.5 312.5 c 128,-1,5
 35 316 35 316 28 323 c 0,6,7
 21 331 21 331 17.5 342 c 128,-1,8
 14 353 14 353 14 367 c 2,9,-1
 14 452 l 2,10,11
 16 482 16 482 24.5 501.5 c 128,-1,12
 33 521 33 521 49 529 c 0,13,14
 65 538 65 538 83.5 543.5 c 128,-1,15
 102 549 102 549 123 550 c 0,16,17
 139 550 139 550 154 546.5 c 128,-1,18
 169 543 169 543 184 536 c 0,19,20
 198 529 198 529 207 520 c 128,-1,21
 216 511 216 511 219 500 c 1,22,23
 224 511 224 511 233.5 520 c 128,-1,24
 243 529 243 529 256 536 c 0,25,26
 270 543 270 543 285.5 546.5 c 128,-1,27
 301 550 301 550 318 550 c 0,28,29
 340 548 340 548 357 540.5 c 128,-1,30
 374 533 374 533 386 520 c 256,31,32
 398 507 398 507 405 490 c 128,-1,33
 412 473 412 473 413 452 c 2,34,-1
 413 -143 l 2,35,36
 413 -153 413 -153 414.5 -161 c 128,-1,37
 416 -169 416 -169 419 -173 c 0,38,39
 422 -178 422 -178 428.5 -184.5 c 128,-1,40
 435 -191 435 -191 445 -198 c 1,41,-1
 418 -199 l 2,42,43
 405 -198 405 -198 395.5 -197.5 c 128,-1,44
 386 -197 386 -197 379 -195 c 0,45,46
 372 -194 372 -194 367 -190 c 128,-1,47
 362 -186 362 -186 359 -179 c 0,48,49
 356 -173 356 -173 354.5 -164 c 128,-1,50
 353 -155 353 -155 353 -142 c 2,51,-1
 353 452 l 2,52,53
 353 463 353 463 350 470 c 128,-1,54
 347 477 347 477 341 481 c 0,55,56
 336 486 336 486 326.5 487.5 c 128,-1,57
 317 489 317 489 304 489 c 0,58,59
 292 489 292 489 283.5 484.5 c 128,-1,60
 275 480 275 480 270 472 c 0,61,62
 266 464 266 464 261.5 452 c 128,-1,63
 257 440 257 440 255 423 c 0,64,65
 252 407 252 407 249.5 395.5 c 128,-1,66
 247 384 247 384 245 377 c 256,67,68
 243 370 243 370 238 366.5 c 128,-1,69
 233 363 233 363 225 363 c 0,70,71
 215 363 215 363 207 374 c 128,-1,72
 199 385 199 385 193 407 c 0,73,74
 186 430 186 430 181 445.5 c 128,-1,75
 176 461 176 461 171 470 c 0,76,77
 167 479 167 479 155 484 c 128,-1,78
 143 489 143 489 125 489 c 0,79,80
 100 489 100 489 87 476.5 c 128,-1,81
 74 464 74 464 74 439 c 2,82,-1
 74 377 l 2,83,84
 74 367 74 367 77 358.5 c 128,-1,85
 80 350 80 350 84 344 c 0,86,87
 89 338 89 338 94.5 335.5 c 128,-1,88
 100 333 100 333 107 333 c 1,89,-1
 107 333 l 1,0,1
EndSplineSet
Validated: 5
EndChar

StartChar: semicolon
Encoding: 29 63 29
Width: 228
GlyphClass: 2
Flags: W
LayerCount: 2
Fore
SplineSet
8 -48 m 1,0,1
 22 -35 22 -35 34 -23.5 c 128,-1,2
 46 -12 46 -12 55 -1 c 0,3,4
 64 9 64 9 68 22 c 128,-1,5
 72 35 72 35 72 50 c 1,6,7
 53 50 53 50 41 52.5 c 128,-1,8
 29 55 29 55 24 61 c 0,9,10
 20 67 20 67 17 77 c 128,-1,11
 14 87 14 87 14 100 c 0,12,13
 14 111 14 111 18 119.5 c 128,-1,14
 22 128 22 128 29 135 c 0,15,16
 36 143 36 143 45 146 c 128,-1,17
 54 149 54 149 64 149 c 2,18,-1
 93 149 l 2,19,20
 104 149 104 149 113 146 c 128,-1,21
 122 143 122 143 129 135 c 0,22,23
 136 128 136 128 139.5 119.5 c 128,-1,24
 143 111 143 111 143 100 c 0,25,26
 143 98 143 98 143 95.5 c 128,-1,27
 143 93 143 93 143 89 c 0,28,29
 143 87 143 87 143 85.5 c 128,-1,30
 143 84 143 84 144 83 c 0,31,32
 144 82 144 82 144 81 c 128,-1,33
 144 80 144 80 144 79 c 0,34,35
 144 15 144 15 115 -16.5 c 128,-1,36
 86 -48 86 -48 28 -48 c 0,37,38
 24 -48 24 -48 21 -48 c 128,-1,39
 18 -48 18 -48 16 -48 c 0,40,41
 13 -47 13 -47 11.5 -47 c 128,-1,42
 10 -47 10 -47 8 -47 c 2,43,-1
 8 -48 l 1,0,1
14 443 m 1,44,45
 14 458 14 458 18 469 c 128,-1,46
 22 480 22 480 29 486 c 0,47,48
 37 493 37 493 49 496.5 c 128,-1,49
 61 500 61 500 77 500 c 0,50,51
 110 500 110 500 126.5 486 c 128,-1,52
 143 472 143 472 143 443 c 0,53,54
 143 427 143 427 139 416 c 128,-1,55
 135 405 135 405 127 399 c 256,56,57
 119 393 119 393 106.5 390 c 128,-1,58
 94 387 94 387 77 387 c 0,59,60
 61 387 61 387 49 390 c 128,-1,61
 37 393 37 393 29 399 c 0,62,63
 22 405 22 405 18 416 c 128,-1,64
 14 427 14 427 14 443 c 1,65,-1
 14 443 l 1,44,45
EndSplineSet
Validated: 5
EndChar

StartChar: less
Encoding: 30 123191 30
Width: 385
GlyphClass: 2
Flags: W
LayerCount: 2
Fore
SplineSet
80 397 m 1,0,1
 80 387 80 387 83.5 378.5 c 128,-1,2
 87 370 87 370 94 363 c 0,3,4
 102 357 102 357 111.5 354 c 128,-1,5
 121 351 121 351 134 351 c 0,6,7
 156 351 156 351 180 360 c 128,-1,8
 204 369 204 369 229 387 c 0,9,10
 245 396 245 396 263 400.5 c 128,-1,11
 281 405 281 405 300 405 c 1,12,-1
 300 280 l 2,13,14
 300 273 300 273 298 268 c 128,-1,15
 296 263 296 263 291 259 c 0,16,17
 287 256 287 256 281.5 254 c 128,-1,18
 276 252 276 252 270 252 c 0,19,20
 263 252 263 252 258 254 c 128,-1,21
 253 256 253 256 248 260 c 0,22,23
 244 264 244 264 241.5 269.5 c 128,-1,24
 239 275 239 275 239 282 c 2,25,-1
 239 330 l 1,26,27
 227 320 227 320 214.5 312 c 128,-1,28
 202 304 202 304 189 299 c 0,29,30
 176 295 176 295 160 292.5 c 128,-1,31
 144 290 144 290 125 290 c 0,32,33
 101 291 101 291 81.5 298.5 c 128,-1,34
 62 306 62 306 48 320 c 256,35,36
 34 334 34 334 27 352.5 c 128,-1,37
 20 371 20 371 20 393 c 0,38,39
 21 417 21 417 30.5 438 c 128,-1,40
 40 459 40 459 57 477 c 0,41,42
 75 494 75 494 96 507.5 c 128,-1,43
 117 521 117 521 142 531 c 0,44,45
 166 540 166 540 187.5 545 c 128,-1,46
 209 550 209 550 228 550 c 0,47,48
 244 549 244 549 255 547 c 128,-1,49
 266 545 266 545 273 542 c 256,50,51
 280 539 280 539 284.5 534 c 128,-1,52
 289 529 289 529 290 522 c 0,53,54
 292 515 292 515 293 504 c 128,-1,55
 294 493 294 493 294 478 c 1,56,57
 287 485 287 485 275 488.5 c 128,-1,58
 263 492 263 492 246 492 c 0,59,60
 221 492 221 492 194.5 485 c 128,-1,61
 168 478 168 478 141 464 c 256,62,63
 114 450 114 450 99 433.5 c 128,-1,64
 84 417 84 417 80 397 c 1,65,-1
 80 397 l 1,0,1
EndSplineSet
Validated: 5
EndChar

StartChar: equal
Encoding: 31 61 31
Width: 367
GlyphClass: 2
Flags: W
LayerCount: 2
Fore
SplineSet
250 209 m 1,0,1
 258 209 258 209 265.5 207 c 128,-1,2
 273 205 273 205 277 200 c 0,3,4
 282 196 282 196 285 190.5 c 128,-1,5
 288 185 288 185 288 178 c 0,6,7
 288 172 288 172 285 166.5 c 128,-1,8
 282 161 282 161 277 156 c 0,9,10
 272 152 272 152 265 149 c 128,-1,11
 258 146 258 146 250 146 c 2,12,-1
 50 146 l 2,13,14
 41 146 41 146 34 149 c 128,-1,15
 27 152 27 152 22 156 c 0,16,17
 18 161 18 161 15 166.5 c 128,-1,18
 12 172 12 172 12 178 c 0,19,20
 12 185 12 185 15 190.5 c 128,-1,21
 18 196 18 196 22 200 c 0,22,23
 27 205 27 205 34 207 c 128,-1,24
 41 209 41 209 50 209 c 2,25,-1
 250 209 l 1,26,-1
 250 209 l 1,0,1
250 340 m 1,27,-1
 50 340 l 2,28,29
 41 340 41 340 34 342.5 c 128,-1,30
 27 345 27 345 22 349 c 0,31,32
 18 354 18 354 15 359 c 128,-1,33
 12 364 12 364 12 371 c 0,34,35
 12 377 12 377 15 382.5 c 128,-1,36
 18 388 18 388 22 392 c 0,37,38
 27 397 27 397 34 399.5 c 128,-1,39
 41 402 41 402 50 402 c 2,40,-1
 250 402 l 2,41,42
 259 402 259 402 266 399.5 c 128,-1,43
 273 397 273 397 278 392 c 0,44,45
 283 388 283 388 285.5 382.5 c 128,-1,46
 288 377 288 377 288 371 c 0,47,48
 288 364 288 364 285 359 c 128,-1,49
 282 354 282 354 277 349 c 0,50,51
 273 345 273 345 265.5 342.5 c 128,-1,52
 258 340 258 340 250 340 c 1,53,-1
 250 340 l 1,27,-1
EndSplineSet
Validated: 5
EndChar

StartChar: greater
Encoding: 32 58 32
Width: 498
GlyphClass: 2
Flags: W
LayerCount: 2
Fore
SplineSet
107 333 m 1,0,1
 100 321 100 321 88.5 315 c 128,-1,2
 77 309 77 309 62 309 c 0,3,4
 52 309 52 309 43.5 312.5 c 128,-1,5
 35 316 35 316 28 323 c 0,6,7
 21 331 21 331 17.5 342 c 128,-1,8
 14 353 14 353 14 367 c 2,9,-1
 14 452 l 2,10,11
 16 482 16 482 24.5 501.5 c 128,-1,12
 33 521 33 521 49 529 c 0,13,14
 65 538 65 538 83.5 543.5 c 128,-1,15
 102 549 102 549 123 550 c 0,16,17
 139 550 139 550 154 546.5 c 128,-1,18
 169 543 169 543 184 536 c 0,19,20
 198 529 198 529 207 520 c 128,-1,21
 216 511 216 511 219 500 c 1,22,23
 224 511 224 511 233.5 520 c 128,-1,24
 243 529 243 529 256 536 c 0,25,26
 270 543 270 543 285.5 546.5 c 128,-1,27
 301 550 301 550 318 550 c 0,28,29
 340 548 340 548 357 540.5 c 128,-1,30
 374 533 374 533 386 520 c 256,31,32
 398 507 398 507 405 490 c 128,-1,33
 412 473 412 473 413 452 c 2,34,-1
 413 -143 l 2,35,36
 413 -153 413 -153 414.5 -161 c 128,-1,37
 416 -169 416 -169 419 -173 c 0,38,39
 422 -178 422 -178 428.5 -184.5 c 128,-1,40
 435 -191 435 -191 445 -198 c 1,41,-1
 418 -199 l 2,42,43
 405 -198 405 -198 395.5 -197.5 c 128,-1,44
 386 -197 386 -197 379 -195 c 0,45,46
 372 -194 372 -194 367 -190 c 128,-1,47
 362 -186 362 -186 359 -179 c 0,48,49
 356 -173 356 -173 354.5 -164 c 128,-1,50
 353 -155 353 -155 353 -142 c 2,51,-1
 353 452 l 2,52,53
 353 463 353 463 350 470 c 128,-1,54
 347 477 347 477 341 481 c 0,55,56
 336 486 336 486 326.5 487.5 c 128,-1,57
 317 489 317 489 304 489 c 0,58,59
 292 489 292 489 283.5 484.5 c 128,-1,60
 275 480 275 480 270 472 c 0,61,62
 266 464 266 464 261.5 452 c 128,-1,63
 257 440 257 440 255 423 c 0,64,65
 252 407 252 407 249.5 395.5 c 128,-1,66
 247 384 247 384 245 377 c 256,67,68
 243 370 243 370 238 366.5 c 128,-1,69
 233 363 233 363 225 363 c 0,70,71
 215 363 215 363 207 374 c 128,-1,72
 199 385 199 385 193 407 c 0,73,74
 186 430 186 430 181 445.5 c 128,-1,75
 176 461 176 461 171 470 c 0,76,77
 167 479 167 479 155 484 c 128,-1,78
 143 489 143 489 125 489 c 0,79,80
 100 489 100 489 87 476.5 c 128,-1,81
 74 464 74 464 74 439 c 2,82,-1
 74 377 l 2,83,84
 74 367 74 367 77 358.5 c 128,-1,85
 80 350 80 350 84 344 c 0,86,87
 89 338 89 338 94.5 335.5 c 128,-1,88
 100 333 100 333 107 333 c 1,89,-1
 107 333 l 1,0,1
EndSplineSet
Validated: 5
EndChar

StartChar: question
Encoding: 33 59 33
Width: 458
GlyphClass: 2
Flags: W
LayerCount: 2
Fore
SplineSet
215 0 m 1,0,1
 200 0 200 0 189 3 c 128,-1,2
 178 6 178 6 170 13 c 0,3,4
 163 21 163 21 159 32.5 c 128,-1,5
 155 44 155 44 155 60 c 0,6,7
 155 90 155 90 170 105 c 128,-1,8
 185 120 185 120 215 120 c 0,9,10
 244 120 244 120 259 105 c 128,-1,11
 274 90 274 90 274 60 c 0,12,13
 274 44 274 44 271 32 c 128,-1,14
 268 20 268 20 260 13 c 0,15,16
 253 6 253 6 241.5 3 c 128,-1,17
 230 0 230 0 215 0 c 1,18,-1
 215 0 l 1,0,1
14 403 m 1,19,-1
 14 437 l 2,20,21
 14 463 14 463 23 484 c 128,-1,22
 32 505 32 505 48 520 c 0,23,24
 65 535 65 535 85 542.5 c 128,-1,25
 105 550 105 550 127 550 c 2,26,-1
 232 550 l 2,27,28
 303 549 303 549 338 517 c 128,-1,29
 373 485 373 485 373 423 c 0,30,31
 372 404 372 404 367 387.5 c 128,-1,32
 362 371 362 371 354 358 c 0,33,34
 347 345 347 345 335.5 331 c 128,-1,35
 324 317 324 317 310 301 c 0,36,37
 296 286 296 286 285.5 272.5 c 128,-1,38
 275 259 275 259 268 247 c 0,39,40
 261 236 261 236 257.5 221.5 c 128,-1,41
 254 207 254 207 254 189 c 0,42,43
 254 183 254 183 251.5 178 c 128,-1,44
 249 173 249 173 244 170 c 0,45,46
 239 166 239 166 232.5 164.5 c 128,-1,47
 226 163 226 163 218 163 c 256,48,49
 210 163 210 163 203 165 c 128,-1,50
 196 167 196 167 190 171 c 256,51,52
 184 175 184 175 180.5 180.5 c 128,-1,53
 177 186 177 186 177 193 c 0,54,55
 177 215 177 215 181.5 233.5 c 128,-1,56
 186 252 186 252 195 268 c 256,57,58
 204 284 204 284 214.5 297.5 c 128,-1,59
 225 311 225 311 237 322 c 256,60,61
 249 333 249 333 261 345.5 c 128,-1,62
 273 358 273 358 286 371 c 256,63,64
 299 384 299 384 305.5 396 c 128,-1,65
 312 408 312 408 312 419 c 0,66,67
 312 436 312 436 308 449.5 c 128,-1,68
 304 463 304 463 296 472 c 256,69,70
 288 481 288 481 271.5 485 c 128,-1,71
 255 489 255 489 232 489 c 2,72,-1
 129 489 l 2,73,74
 116 489 116 489 106 486 c 128,-1,75
 96 483 96 483 89 476 c 256,76,77
 82 469 82 469 78 460 c 128,-1,78
 74 451 74 451 74 439 c 256,79,80
 74 427 74 427 77 417 c 128,-1,81
 80 407 80 407 87 399 c 0,82,83
 93 392 93 392 104.5 388.5 c 128,-1,84
 116 385 116 385 133 385 c 1,85,86
 123 363 123 363 108.5 352.5 c 128,-1,87
 94 342 94 342 75 342 c 0,88,89
 64 342 64 342 53.5 346 c 128,-1,90
 43 350 43 350 33 359 c 0,91,92
 24 368 24 368 19 379 c 128,-1,93
 14 390 14 390 14 403 c 1,94,-1
 14 403 l 1,19,-1
EndSplineSet
Validated: 5
EndChar

StartChar: at
Encoding: 34 123215 34
Width: 649
GlyphClass: 2
Flags: W
LayerCount: 2
Fore
SplineSet
60 274 m 1,0,1
 60 241 60 241 67 211.5 c 128,-1,2
 74 182 74 182 89 156 c 0,3,4
 103 130 103 130 124 109 c 128,-1,5
 145 88 145 88 171 74 c 0,6,7
 197 59 197 59 226.5 51.5 c 128,-1,8
 256 44 256 44 290 44 c 0,9,10
 323 44 323 44 352.5 51.5 c 128,-1,11
 382 59 382 59 408 74 c 0,12,13
 434 88 434 88 455 109 c 128,-1,14
 476 130 476 130 490 156 c 0,15,16
 505 182 505 182 512.5 211.5 c 128,-1,17
 520 241 520 241 520 274 c 0,18,19
 520 308 520 308 512.5 337.5 c 128,-1,20
 505 367 505 367 490 393 c 0,21,22
 476 419 476 419 455 440 c 128,-1,23
 434 461 434 461 408 475 c 0,24,25
 382 490 382 490 352.5 497 c 128,-1,26
 323 504 323 504 290 504 c 0,27,28
 256 504 256 504 226.5 497 c 128,-1,29
 197 490 197 490 171 475 c 0,30,31
 145 461 145 461 124 440 c 128,-1,32
 103 419 103 419 89 393 c 0,33,34
 74 367 74 367 67 337.5 c 128,-1,35
 60 308 60 308 60 274 c 1,36,-1
 60 274 l 1,0,1
14 274 m 1,37,38
 14 314 14 314 23 349.5 c 128,-1,39
 32 385 32 385 50 416 c 0,40,41
 67 448 67 448 92 472.5 c 128,-1,42
 117 497 117 497 148 514 c 0,43,44
 180 532 180 532 215 541 c 128,-1,45
 250 550 250 550 290 550 c 0,46,47
 329 550 329 550 364.5 541 c 128,-1,48
 400 532 400 532 431 514 c 0,49,50
 463 497 463 497 487.5 472.5 c 128,-1,51
 512 448 512 448 529 416 c 0,52,53
 547 385 547 385 555.5 349.5 c 128,-1,54
 564 314 564 314 564 274 c 0,55,56
 564 235 564 235 555.5 200 c 128,-1,57
 547 165 547 165 529 133 c 0,58,59
 512 102 512 102 487.5 77 c 128,-1,60
 463 52 463 52 431 35 c 0,61,62
 400 17 400 17 364.5 8.5 c 128,-1,63
 329 0 329 0 290 0 c 0,64,65
 250 0 250 0 215 8.5 c 128,-1,66
 180 17 180 17 148 35 c 0,67,68
 117 52 117 52 92 77 c 128,-1,69
 67 102 67 102 50 133 c 0,70,71
 32 165 32 165 23 200 c 128,-1,72
 14 235 14 235 14 274 c 1,73,-1
 14 274 l 1,37,38
137 193 m 1,74,75
 137 205 137 205 140.5 212.5 c 128,-1,76
 144 220 144 220 151 223 c 256,77,78
 158 226 158 226 170 227.5 c 128,-1,79
 182 229 182 229 199 229 c 1,80,81
 191 219 191 219 187 212.5 c 128,-1,82
 183 206 183 206 183 202 c 0,83,84
 183 193 183 193 184.5 186.5 c 128,-1,85
 186 180 186 180 189 175 c 0,86,87
 192 171 192 171 196 168 c 128,-1,88
 200 165 200 165 204 164 c 0,89,90
 206 163 206 163 209 162.5 c 128,-1,91
 212 162 212 162 216 162 c 0,92,93
 219 161 219 161 223.5 160.5 c 128,-1,94
 228 160 228 160 232 159 c 0,95,96
 256 159 256 159 268 169.5 c 128,-1,97
 280 180 280 180 280 202 c 2,98,-1
 280 250 l 2,99,100
 280 259 280 259 278 265 c 128,-1,101
 276 271 276 271 272 275 c 0,102,103
 269 279 269 279 261.5 280.5 c 128,-1,104
 254 282 254 282 242 282 c 2,105,-1
 163 282 l 2,106,107
 150 282 150 282 143.5 289 c 128,-1,108
 137 296 137 296 137 310 c 2,109,-1
 137 379 l 2,110,111
 137 393 137 393 140.5 403.5 c 128,-1,112
 144 414 144 414 151 421 c 256,113,114
 158 428 158 428 170.5 431.5 c 128,-1,115
 183 435 183 435 202 435 c 1,116,117
 192 422 192 422 187.5 409.5 c 128,-1,118
 183 397 183 397 183 383 c 2,119,-1
 183 327 l 1,120,-1
 245 327 l 1,121,-1
 245 360 l 2,122,123
 246 378 246 378 253 393 c 128,-1,124
 260 408 260 408 273 419 c 0,125,126
 286 431 286 431 303 437 c 128,-1,127
 320 443 320 443 340 443 c 0,128,129
 362 443 362 443 380 436.5 c 128,-1,130
 398 430 398 430 411 416 c 0,131,132
 425 403 425 403 431.5 386.5 c 128,-1,133
 438 370 438 370 439 350 c 2,134,-1
 439 169 l 2,135,136
 439 157 439 157 435 147.5 c 128,-1,137
 431 138 431 138 423 130 c 256,138,139
 415 122 415 122 403 118 c 128,-1,140
 391 114 391 114 375 114 c 1,141,142
 385 121 385 121 390 134.5 c 128,-1,143
 395 148 395 148 395 167 c 2,144,-1
 395 350 l 2,145,146
 395 360 395 360 391.5 368 c 128,-1,147
 388 376 388 376 382 383 c 0,148,149
 375 391 375 391 365.5 394 c 128,-1,150
 356 397 356 397 343 397 c 0,151,152
 331 397 331 397 322 394 c 128,-1,153
 313 391 313 391 305 384 c 0,154,155
 298 377 298 377 294 368.5 c 128,-1,156
 290 360 290 360 290 350 c 2,157,-1
 290 324 l 2,158,159
 293 322 293 322 295.5 319.5 c 128,-1,160
 298 317 298 317 301 315 c 0,161,162
 306 310 306 310 310 305.5 c 128,-1,163
 314 301 314 301 316 297 c 0,164,165
 321 290 321 290 322.5 280.5 c 128,-1,166
 324 271 324 271 324 258 c 2,167,-1
 324 193 l 2,168,169
 324 178 324 178 318.5 164.5 c 128,-1,170
 313 151 313 151 301 139 c 256,171,172
 289 127 289 127 271 120.5 c 128,-1,173
 253 114 253 114 229 114 c 0,174,175
 205 116 205 116 187.5 122 c 128,-1,176
 170 128 170 128 159 140 c 0,177,178
 149 151 149 151 143 164.5 c 128,-1,179
 137 178 137 178 137 193 c 1,180,-1
 137 193 l 1,74,75
EndSplineSet
Validated: 5
EndChar

StartChar: A
Encoding: 35 123173 35
Width: 405
GlyphClass: 2
Flags: W
LayerCount: 2
Fore
SplineSet
258 139 m 1,0,1
 258 151 258 151 254.5 160 c 128,-1,2
 251 169 251 169 244 174 c 0,3,4
 237 180 237 180 223 184.5 c 128,-1,5
 209 189 209 189 187 193 c 1,6,7
 189 198 189 198 194 202 c 128,-1,8
 199 206 199 206 208 210 c 0,9,10
 218 215 218 215 228 216.5 c 128,-1,11
 238 218 238 218 249 218 c 0,12,13
 264 218 264 218 276.5 214 c 128,-1,14
 289 210 289 210 299 201 c 0,15,16
 310 192 310 192 315 177.5 c 128,-1,17
 320 163 320 163 320 143 c 2,18,-1
 320 94 l 2,19,20
 320 75 320 75 312.5 58.5 c 128,-1,21
 305 42 305 42 291 28 c 256,22,23
 277 14 277 14 253.5 7 c 128,-1,24
 230 0 230 0 197 0 c 0,25,26
 128 0 128 0 94 25 c 128,-1,27
 60 50 60 50 60 100 c 2,28,-1
 60 274 l 2,29,30
 60 319 60 319 76.5 341.5 c 128,-1,31
 93 364 93 364 127 364 c 2,32,-1
 187 364 l 2,33,34
 204 364 204 364 216.5 367.5 c 128,-1,35
 229 371 229 371 239 377 c 0,36,37
 248 383 248 383 253 395 c 128,-1,38
 258 407 258 407 258 425 c 0,39,40
 258 457 258 457 243 473 c 128,-1,41
 228 489 228 489 199 489 c 2,42,-1
 110 489 l 2,43,44
 94 489 94 489 80 487.5 c 128,-1,45
 66 486 66 486 54 482 c 0,46,47
 43 478 43 478 33 470 c 128,-1,48
 23 462 23 462 14 449 c 1,49,50
 14 478 14 478 22.5 497.5 c 128,-1,51
 31 517 31 517 47 528 c 0,52,53
 64 539 64 539 81 544.5 c 128,-1,54
 98 550 98 550 117 550 c 2,55,-1
 202 550 l 2,56,57
 227 550 227 550 248 542.5 c 128,-1,58
 269 535 269 535 285 521 c 0,59,60
 302 507 302 507 311 482.5 c 128,-1,61
 320 458 320 458 320 425 c 0,62,63
 320 395 320 395 311 372.5 c 128,-1,64
 302 350 302 350 284 335 c 256,65,66
 266 320 266 320 242 312 c 128,-1,67
 218 304 218 304 187 304 c 2,68,-1
 143 304 l 2,69,70
 135 304 135 304 130 302.5 c 128,-1,71
 125 301 125 301 123 298 c 0,72,73
 122 295 122 295 121 288.5 c 128,-1,74
 120 282 120 282 120 272 c 2,75,-1
 120 104 l 2,76,77
 120 90 120 90 125 80.5 c 128,-1,78
 130 71 130 71 140 67 c 0,79,80
 151 63 151 63 165 61.5 c 128,-1,81
 179 60 179 60 197 60 c 0,82,83
 212 60 212 60 223 61.5 c 128,-1,84
 234 63 234 63 242 67 c 256,85,86
 250 71 250 71 254 79 c 128,-1,87
 258 87 258 87 258 100 c 2,88,-1
 258 139 l 1,89,-1
 258 139 l 1,0,1
EndSplineSet
Validated: 5
EndChar

StartChar: B
Encoding: 36 123166 36
Width: 522
GlyphClass: 2
Flags: W
LayerCount: 2
Fore
SplineSet
250 139 m 1,0,1
 250 120 250 120 254.5 105.5 c 128,-1,2
 259 91 259 91 269 80 c 0,3,4
 279 70 279 70 290 65 c 128,-1,5
 301 60 301 60 314 60 c 0,6,7
 346 60 346 60 363.5 79.5 c 128,-1,8
 381 99 381 99 383 139 c 2,9,-1
 383 357 l 2,10,11
 383 395 383 395 375.5 422.5 c 128,-1,12
 368 450 368 450 353 468 c 1,13,14
 373 464 373 464 388.5 454.5 c 128,-1,15
 404 445 404 445 417 431 c 0,16,17
 430 416 430 416 436.5 398 c 128,-1,18
 443 380 443 380 443 357 c 2,19,-1
 443 139 l 2,20,21
 443 108 443 108 434 83 c 128,-1,22
 425 58 425 58 408 38 c 0,23,24
 391 19 391 19 367.5 9.5 c 128,-1,25
 344 0 344 0 312 0 c 0,26,27
 294 0 294 0 278 4.5 c 128,-1,28
 262 9 262 9 248 18 c 0,29,30
 234 28 234 28 223.5 40.5 c 128,-1,31
 213 53 213 53 205 69 c 0,32,33
 198 86 198 86 193.5 103 c 128,-1,34
 189 120 189 120 189 139 c 2,35,-1
 189 312 l 2,36,37
 189 337 189 337 194 362.5 c 128,-1,38
 199 388 199 388 209 415 c 0,39,40
 218 442 218 442 236.5 460.5 c 128,-1,41
 255 479 255 479 282 489 c 1,42,-1
 137 489 l 2,43,44
 124 489 124 489 113 486 c 128,-1,45
 102 483 102 483 94 477 c 0,46,47
 87 471 87 471 83.5 460 c 128,-1,48
 80 449 80 449 80 433 c 2,49,-1
 80 60 l 2,50,51
 80 51 80 51 81 43.5 c 128,-1,52
 82 36 82 36 85 31 c 256,53,54
 88 26 88 26 91.5 21.5 c 128,-1,55
 95 17 95 17 99 14 c 0,56,57
 104 11 104 11 110 7.5 c 128,-1,58
 116 4 116 4 125 0 c 1,59,-1
 79 0 l 2,60,61
 60 0 60 0 48 2 c 128,-1,62
 36 4 36 4 31 8 c 0,63,64
 25 13 25 13 22.5 23.5 c 128,-1,65
 20 34 20 34 20 50 c 2,66,-1
 20 439 l 2,67,68
 20 469 20 469 28 490 c 128,-1,69
 36 511 36 511 52 524 c 0,70,71
 69 537 69 537 87.5 543.5 c 128,-1,72
 106 550 106 550 127 550 c 2,73,-1
 343 550 l 2,74,75
 363 550 363 550 381 546 c 128,-1,76
 399 542 399 542 413 534 c 0,77,78
 428 527 428 527 435.5 514.5 c 128,-1,79
 443 502 443 502 443 485 c 1,80,81
 401 484 401 484 366.5 473 c 128,-1,82
 332 462 332 462 306 441 c 0,83,84
 279 419 279 419 265 388.5 c 128,-1,85
 251 358 251 358 250 318 c 2,86,-1
 250 139 l 1,87,-1
 250 139 l 1,0,1
EndSplineSet
Validated: 5
EndChar

StartChar: C
Encoding: 37 95 37
Width: 562
GlyphClass: 2
Flags: W
LayerCount: 2
Fore
SplineSet
334 208 m 1,0,1
 326 208 326 208 319.5 204.5 c 128,-1,2
 313 201 313 201 308 194 c 0,3,4
 303 188 303 188 300.5 180.5 c 128,-1,5
 298 173 298 173 298 165 c 2,6,-1
 298 114 l 2,7,8
 298 98 298 98 302 87 c 128,-1,9
 306 76 306 76 313 71 c 0,10,11
 321 65 321 65 331 62.5 c 128,-1,12
 341 60 341 60 354 60 c 0,13,14
 371 60 371 60 382.5 63 c 128,-1,15
 394 66 394 66 402 72 c 256,16,17
 410 78 410 78 413.5 88 c 128,-1,18
 417 98 417 98 417 113 c 2,19,-1
 417 405 l 2,20,21
 417 423 417 423 416 437 c 128,-1,22
 415 451 415 451 412 460 c 256,23,24
 409 469 409 469 404.5 475 c 128,-1,25
 400 481 400 481 393 484 c 256,26,27
 386 487 386 487 377 488 c 128,-1,28
 368 489 368 489 354 489 c 0,29,30
 341 489 341 489 329.5 487 c 128,-1,31
 318 485 318 485 309 480 c 0,32,33
 300 476 300 476 292.5 465.5 c 128,-1,34
 285 455 285 455 278 439 c 2,35,-1
 193 272 l 1,36,-1
 103 425 l 1,37,-1
 103 54 l 2,38,39
 103 44 103 44 105 36.5 c 128,-1,40
 107 29 107 29 111 24 c 0,41,42
 116 19 116 19 124 13 c 128,-1,43
 132 7 132 7 143 0 c 1,44,-1
 108 0 l 2,45,46
 95 0 95 0 85 1 c 128,-1,47
 75 2 75 2 68 4 c 256,48,49
 61 6 61 6 56.5 11 c 128,-1,50
 52 16 52 16 49 23 c 0,51,52
 46 31 46 31 44 42.5 c 128,-1,53
 42 54 42 54 42 70 c 2,54,-1
 42 458 l 1,55,-1
 42 488 l 2,56,57
 42 506 42 506 35 521.5 c 128,-1,58
 28 537 28 537 14 550 c 1,59,60
 40 550 40 550 59.5 547 c 128,-1,61
 79 544 79 544 92 539 c 0,62,63
 106 533 106 533 116.5 521 c 128,-1,64
 127 509 127 509 135 489 c 2,65,-1
 189 403 l 1,66,-1
 222 469 l 2,67,68
 235 494 235 494 249 510.5 c 128,-1,69
 263 527 263 527 279 534 c 0,70,71
 296 542 296 542 314.5 546 c 128,-1,72
 333 550 333 550 354 550 c 0,73,74
 416 550 416 550 447 518 c 128,-1,75
 478 486 478 486 478 423 c 2,76,-1
 478 107 l 2,77,78
 478 83 478 83 470.5 63.5 c 128,-1,79
 463 44 463 44 448 29 c 256,80,81
 433 14 433 14 409 7 c 128,-1,82
 385 0 385 0 353 0 c 0,83,84
 323 0 323 0 301 7.5 c 128,-1,85
 279 15 279 15 265 31 c 0,86,87
 252 47 252 47 245 67.5 c 128,-1,88
 238 88 238 88 238 113 c 2,89,-1
 238 169 l 2,90,91
 238 183 238 183 242.5 194.5 c 128,-1,92
 247 206 247 206 257 214 c 0,93,94
 266 222 266 222 276 226 c 128,-1,95
 286 230 286 230 298 230 c 0,96,97
 312 230 312 230 321 224.5 c 128,-1,98
 330 219 330 219 334 208 c 1,99,-1
 334 208 l 1,0,1
EndSplineSet
Validated: 5
EndChar

StartChar: D
Encoding: 38 123184 38
Width: 0
GlyphClass: 2
Flags: W
LayerCount: 2
Fore
SplineSet
-308 854 m 1,0,1
 -307 862 -307 862 -303.5 867.5 c 128,-1,2
 -300 873 -300 873 -294 877 c 0,3,4
 -288 882 -288 882 -280.5 883.5 c 128,-1,5
 -273 885 -273 885 -265 885 c 0,6,7
 -256 885 -256 885 -248.5 883.5 c 128,-1,8
 -241 882 -241 882 -235 877 c 0,9,10
 -229 873 -229 873 -226 867.5 c 128,-1,11
 -223 862 -223 862 -224 854 c 2,12,-1
 -232 669 l 2,13,14
 -231 662 -231 662 -234 656.5 c 128,-1,15
 -237 651 -237 651 -241 647 c 0,16,17
 -246 643 -246 643 -252 641 c 128,-1,18
 -258 639 -258 639 -265 639 c 256,19,20
 -272 639 -272 639 -278 641 c 128,-1,21
 -284 643 -284 643 -289 647 c 256,22,23
 -294 651 -294 651 -296.5 656.5 c 128,-1,24
 -299 662 -299 662 -299 669 c 2,25,-1
 -308 854 l 1,26,-1
 -308 854 l 1,0,1
EndSplineSet
Validated: 5
EndChar

StartChar: E
Encoding: 39 101 39
Width: 0
GlyphClass: 2
Flags: W
LayerCount: 2
Fore
SplineSet
-364 725 m 1,0,1
 -363 715 -363 715 -356 708.5 c 128,-1,2
 -349 702 -349 702 -335 698 c 256,3,4
 -321 694 -321 694 -304 691.5 c 128,-1,5
 -287 689 -287 689 -267 689 c 256,6,7
 -247 689 -247 689 -229.5 691.5 c 128,-1,8
 -212 694 -212 694 -197 698 c 0,9,10
 -183 702 -183 702 -175.5 708.5 c 128,-1,11
 -168 715 -168 715 -168 725 c 256,12,13
 -168 735 -168 735 -166 742.5 c 128,-1,14
 -164 750 -164 750 -159 755 c 0,15,16
 -155 760 -155 760 -149 763 c 128,-1,17
 -143 766 -143 766 -136 766 c 256,18,19
 -129 766 -129 766 -123.5 763 c 128,-1,20
 -118 760 -118 760 -113 755 c 0,21,22
 -109 750 -109 750 -106 742.5 c 128,-1,23
 -103 735 -103 735 -103 725 c 0,24,25
 -103 701 -103 701 -114.5 683 c 128,-1,26
 -126 665 -126 665 -148 653 c 0,27,28
 -171 641 -171 641 -200.5 635 c 128,-1,29
 -230 629 -230 629 -267 629 c 0,30,31
 -303 629 -303 629 -332.5 635 c 128,-1,32
 -362 641 -362 641 -384 653 c 0,33,34
 -407 665 -407 665 -417.5 683 c 128,-1,35
 -428 701 -428 701 -428 725 c 0,36,37
 -428 735 -428 735 -426 742.5 c 128,-1,38
 -424 750 -424 750 -419 755 c 0,39,40
 -415 760 -415 760 -409 763 c 128,-1,41
 -403 766 -403 766 -396 766 c 256,42,43
 -389 766 -389 766 -383.5 763 c 128,-1,44
 -378 760 -378 760 -373 755 c 0,45,46
 -369 750 -369 750 -366 742.5 c 128,-1,47
 -363 735 -363 735 -363 725 c 1,48,-1
 -364 725 l 1,0,1
EndSplineSet
Validated: 1
EndChar

StartChar: F
Encoding: 40 126 40
Width: 0
GlyphClass: 2
Flags: W
LayerCount: 2
Fore
SplineSet
-364 669 m 1,0,1
 -363 659 -363 659 -366 651.5 c 128,-1,2
 -369 644 -369 644 -373 639 c 0,3,4
 -378 634 -378 634 -383.5 631 c 128,-1,5
 -389 628 -389 628 -396 628 c 256,6,7
 -403 628 -403 628 -409 631 c 128,-1,8
 -415 634 -415 634 -419 639 c 0,9,10
 -424 645 -424 645 -426 652.5 c 128,-1,11
 -428 660 -428 660 -428 669 c 0,12,13
 -428 694 -428 694 -417.5 712 c 128,-1,14
 -407 730 -407 730 -384 741 c 0,15,16
 -362 753 -362 753 -333 758.5 c 128,-1,17
 -304 764 -304 764 -267 764 c 256,18,19
 -230 764 -230 764 -200 758.5 c 128,-1,20
 -170 753 -170 753 -148 741 c 0,21,22
 -126 730 -126 730 -114.5 712 c 128,-1,23
 -103 694 -103 694 -103 669 c 0,24,25
 -103 659 -103 659 -106 651.5 c 128,-1,26
 -109 644 -109 644 -113 639 c 0,27,28
 -118 634 -118 634 -123.5 631 c 128,-1,29
 -129 628 -129 628 -136 628 c 256,30,31
 -143 628 -143 628 -149 631 c 128,-1,32
 -155 634 -155 634 -159 639 c 0,33,34
 -164 645 -164 645 -166 652.5 c 128,-1,35
 -168 660 -168 660 -168 669 c 0,36,37
 -168 687 -168 687 -193 696 c 128,-1,38
 -218 705 -218 705 -267 705 c 0,39,40
 -315 705 -315 705 -339 696 c 128,-1,41
 -363 687 -363 687 -363 669 c 1,42,-1
 -364 669 l 1,0,1
EndSplineSet
Validated: 1
EndChar

StartChar: G
Encoding: 41 123148 41
Width: 562
GlyphClass: 2
Flags: W
LayerCount: 2
Fore
SplineSet
334 208 m 1,0,1
 326 208 326 208 319.5 204.5 c 128,-1,2
 313 201 313 201 308 194 c 0,3,4
 303 188 303 188 300.5 180.5 c 128,-1,5
 298 173 298 173 298 165 c 2,6,-1
 298 114 l 2,7,8
 298 98 298 98 302 87 c 128,-1,9
 306 76 306 76 313 71 c 0,10,11
 321 65 321 65 331 62.5 c 128,-1,12
 341 60 341 60 354 60 c 0,13,14
 371 60 371 60 382.5 63 c 128,-1,15
 394 66 394 66 402 72 c 256,16,17
 410 78 410 78 413.5 88 c 128,-1,18
 417 98 417 98 417 113 c 2,19,-1
 417 405 l 2,20,21
 417 423 417 423 416 437 c 128,-1,22
 415 451 415 451 412 460 c 256,23,24
 409 469 409 469 404.5 475 c 128,-1,25
 400 481 400 481 393 484 c 256,26,27
 386 487 386 487 377 488 c 128,-1,28
 368 489 368 489 354 489 c 0,29,30
 341 489 341 489 329.5 487 c 128,-1,31
 318 485 318 485 309 480 c 0,32,33
 300 476 300 476 292.5 465.5 c 128,-1,34
 285 455 285 455 278 439 c 2,35,-1
 193 272 l 1,36,-1
 103 425 l 1,37,-1
 103 54 l 2,38,39
 103 44 103 44 105 36.5 c 128,-1,40
 107 29 107 29 111 24 c 0,41,42
 116 19 116 19 124 13 c 128,-1,43
 132 7 132 7 143 0 c 1,44,-1
 108 0 l 2,45,46
 95 0 95 0 85 1 c 128,-1,47
 75 2 75 2 68 4 c 256,48,49
 61 6 61 6 56.5 11 c 128,-1,50
 52 16 52 16 49 23 c 0,51,52
 46 31 46 31 44 42.5 c 128,-1,53
 42 54 42 54 42 70 c 2,54,-1
 42 458 l 1,55,-1
 42 488 l 2,56,57
 42 506 42 506 35 521.5 c 128,-1,58
 28 537 28 537 14 550 c 1,59,60
 40 550 40 550 59.5 547 c 128,-1,61
 79 544 79 544 92 539 c 0,62,63
 106 533 106 533 116.5 521 c 128,-1,64
 127 509 127 509 135 489 c 2,65,-1
 189 403 l 1,66,-1
 222 469 l 2,67,68
 235 494 235 494 249 510.5 c 128,-1,69
 263 527 263 527 279 534 c 0,70,71
 296 542 296 542 314.5 546 c 128,-1,72
 333 550 333 550 354 550 c 0,73,74
 416 550 416 550 447 518 c 128,-1,75
 478 486 478 486 478 423 c 2,76,-1
 478 107 l 2,77,78
 478 83 478 83 470.5 63.5 c 128,-1,79
 463 44 463 44 448 29 c 256,80,81
 433 14 433 14 409 7 c 128,-1,82
 385 0 385 0 353 0 c 0,83,84
 323 0 323 0 301 7.5 c 128,-1,85
 279 15 279 15 265 31 c 0,86,87
 252 47 252 47 245 67.5 c 128,-1,88
 238 88 238 88 238 113 c 2,89,-1
 238 169 l 2,90,91
 238 183 238 183 242.5 194.5 c 128,-1,92
 247 206 247 206 257 214 c 0,93,94
 266 222 266 222 276 226 c 128,-1,95
 286 230 286 230 298 230 c 0,96,97
 312 230 312 230 321 224.5 c 128,-1,98
 330 219 330 219 334 208 c 1,99,-1
 334 208 l 1,0,1
EndSplineSet
Validated: 5
EndChar

StartChar: H
Encoding: 42 123165 42
Width: 544
GlyphClass: 2
Flags: W
LayerCount: 2
Fore
SplineSet
74 195 m 1,0,-1
 350 520 l 2,1,2
 357 531 357 531 365.5 538 c 128,-1,3
 374 545 374 545 384 547 c 0,4,5
 395 550 395 550 410 551 c 128,-1,6
 425 552 425 552 445 552 c 1,7,8
 429 538 429 538 421.5 519 c 128,-1,9
 414 500 414 500 414 477 c 0,10,11
 414 466 414 466 415 454 c 128,-1,12
 416 442 416 442 419 430 c 0,13,14
 421 418 421 418 425 401.5 c 128,-1,15
 429 385 429 385 435 363 c 0,16,17
 440 341 440 341 444.5 321.5 c 128,-1,18
 449 302 449 302 452 284 c 0,19,20
 455 267 455 267 457 249 c 128,-1,21
 459 231 459 231 459 212 c 2,22,-1
 459 107 l 2,23,24
 459 79 459 79 451 59 c 128,-1,25
 443 39 443 39 426 26 c 0,26,27
 410 13 410 13 389 6.5 c 128,-1,28
 368 0 368 0 343 0 c 0,29,30
 317 0 317 0 294.5 6.5 c 128,-1,31
 272 13 272 13 255 26 c 0,32,33
 237 39 237 39 228 59 c 128,-1,34
 219 79 219 79 219 107 c 2,35,-1
 219 135 l 2,36,37
 220 148 220 148 226 159 c 128,-1,38
 232 170 232 170 243 180 c 0,39,40
 254 189 254 189 265.5 193.5 c 128,-1,41
 277 198 277 198 290 198 c 0,42,43
 307 198 307 198 317.5 190 c 128,-1,44
 328 182 328 182 334 165 c 1,45,46
 310 165 310 165 296.5 155 c 128,-1,47
 283 145 283 145 280 125 c 2,48,-1
 280 107 l 2,49,50
 280 91 280 91 284 81.5 c 128,-1,51
 288 72 288 72 297 68 c 256,52,53
 306 64 306 64 317.5 62 c 128,-1,54
 329 60 329 60 343 60 c 0,55,56
 355 60 355 60 365 62 c 128,-1,57
 375 64 375 64 383 68 c 256,58,59
 391 72 391 72 395 82 c 128,-1,60
 399 92 399 92 399 107 c 2,61,-1
 399 218 l 2,62,63
 399 230 399 230 398 242.5 c 128,-1,64
 397 255 397 255 394 268 c 0,65,66
 392 282 392 282 388 298.5 c 128,-1,67
 384 315 384 315 379 334 c 0,68,69
 374 354 374 354 370 368.5 c 128,-1,70
 366 383 366 383 364 392 c 0,71,72
 362 400 362 400 360.5 412 c 128,-1,73
 359 424 359 424 357 437 c 1,74,-1
 123 157 l 2,75,76
 98 129 98 129 86 104.5 c 128,-1,77
 74 80 74 80 74 60 c 0,78,79
 74 42 74 42 83 27 c 128,-1,80
 92 12 92 12 110 0 c 1,81,82
 93 0 93 0 80 0.5 c 128,-1,83
 67 1 67 1 58 2 c 0,84,85
 49 4 49 4 41.5 7.5 c 128,-1,86
 34 11 34 11 28 18 c 0,87,88
 22 24 22 24 18.5 34 c 128,-1,89
 15 44 15 44 14 58 c 2,90,-1
 14 447 l 2,91,92
 14 473 14 473 18.5 491.5 c 128,-1,93
 23 510 23 510 31 522 c 0,94,95
 39 535 39 535 55 542 c 128,-1,96
 71 549 71 549 94 550 c 0,97,98
 108 550 108 550 120.5 546.5 c 128,-1,99
 133 543 133 543 143 537 c 0,100,101
 154 531 154 531 159.5 522 c 128,-1,102
 165 513 165 513 165 502 c 0,103,104
 165 492 165 492 159.5 481 c 128,-1,105
 154 470 154 470 143 458 c 1,106,107
 142 466 142 466 139 473 c 128,-1,108
 136 480 136 480 131 484 c 0,109,110
 126 489 126 489 120 491 c 128,-1,111
 114 493 114 493 106 493 c 0,112,113
 100 493 100 493 94.5 491 c 128,-1,114
 89 489 89 489 84 484 c 0,115,116
 80 480 80 480 77 473 c 128,-1,117
 74 466 74 466 74 458 c 2,118,-1
 74 195 l 1,119,-1
 74 195 l 1,0,-1
EndSplineSet
Validated: 5
EndChar

StartChar: I
Encoding: 43 123186 43
Width: 0
GlyphClass: 2
Flags: W
LayerCount: 2
Fore
SplineSet
-364 725 m 1,0,1
 -363 715 -363 715 -356 708.5 c 128,-1,2
 -349 702 -349 702 -335 698 c 256,3,4
 -321 694 -321 694 -304 691.5 c 128,-1,5
 -287 689 -287 689 -267 689 c 256,6,7
 -247 689 -247 689 -229.5 691.5 c 128,-1,8
 -212 694 -212 694 -197 698 c 0,9,10
 -183 702 -183 702 -175.5 708.5 c 128,-1,11
 -168 715 -168 715 -168 725 c 256,12,13
 -168 735 -168 735 -166 742.5 c 128,-1,14
 -164 750 -164 750 -159 755 c 0,15,16
 -155 760 -155 760 -149 763 c 128,-1,17
 -143 766 -143 766 -136 766 c 256,18,19
 -129 766 -129 766 -123.5 763 c 128,-1,20
 -118 760 -118 760 -113 755 c 0,21,22
 -109 750 -109 750 -106 742.5 c 128,-1,23
 -103 735 -103 735 -103 725 c 0,24,25
 -103 701 -103 701 -114.5 683 c 128,-1,26
 -126 665 -126 665 -148 653 c 0,27,28
 -171 641 -171 641 -200.5 635 c 128,-1,29
 -230 629 -230 629 -267 629 c 0,30,31
 -303 629 -303 629 -332.5 635 c 128,-1,32
 -362 641 -362 641 -384 653 c 0,33,34
 -407 665 -407 665 -417.5 683 c 128,-1,35
 -428 701 -428 701 -428 725 c 0,36,37
 -428 735 -428 735 -426 742.5 c 128,-1,38
 -424 750 -424 750 -419 755 c 0,39,40
 -415 760 -415 760 -409 763 c 128,-1,41
 -403 766 -403 766 -396 766 c 256,42,43
 -389 766 -389 766 -383.5 763 c 128,-1,44
 -378 760 -378 760 -373 755 c 0,45,46
 -369 750 -369 750 -366 742.5 c 128,-1,47
 -363 735 -363 735 -363 725 c 1,48,-1
 -364 725 l 1,0,1
EndSplineSet
Validated: 1
EndChar

StartChar: J
Encoding: 44 123189 44
Width: 0
GlyphClass: 2
Flags: W
LayerCount: 2
Fore
SplineSet
-364 669 m 1,0,1
 -363 659 -363 659 -366 651.5 c 128,-1,2
 -369 644 -369 644 -373 639 c 0,3,4
 -378 634 -378 634 -383.5 631 c 128,-1,5
 -389 628 -389 628 -396 628 c 256,6,7
 -403 628 -403 628 -409 631 c 128,-1,8
 -415 634 -415 634 -419 639 c 0,9,10
 -424 645 -424 645 -426 652.5 c 128,-1,11
 -428 660 -428 660 -428 669 c 0,12,13
 -428 694 -428 694 -417.5 712 c 128,-1,14
 -407 730 -407 730 -384 741 c 0,15,16
 -362 753 -362 753 -333 758.5 c 128,-1,17
 -304 764 -304 764 -267 764 c 256,18,19
 -230 764 -230 764 -200 758.5 c 128,-1,20
 -170 753 -170 753 -148 741 c 0,21,22
 -126 730 -126 730 -114.5 712 c 128,-1,23
 -103 694 -103 694 -103 669 c 0,24,25
 -103 659 -103 659 -106 651.5 c 128,-1,26
 -109 644 -109 644 -113 639 c 0,27,28
 -118 634 -118 634 -123.5 631 c 128,-1,29
 -129 628 -129 628 -136 628 c 256,30,31
 -143 628 -143 628 -149 631 c 128,-1,32
 -155 634 -155 634 -159 639 c 0,33,34
 -164 645 -164 645 -166 652.5 c 128,-1,35
 -168 660 -168 660 -168 669 c 0,36,37
 -168 687 -168 687 -193 696 c 128,-1,38
 -218 705 -218 705 -267 705 c 0,39,40
 -315 705 -315 705 -339 696 c 128,-1,41
 -363 687 -363 687 -363 669 c 1,42,-1
 -364 669 l 1,0,1
EndSplineSet
Validated: 1
EndChar

StartChar: K
Encoding: 45 123155 45
Width: 530
GlyphClass: 2
Flags: W
LayerCount: 2
Fore
SplineSet
278 139 m 1,0,1
 278 161 278 161 284 174.5 c 128,-1,2
 290 188 290 188 302 195 c 0,3,4
 313 201 313 201 328.5 204.5 c 128,-1,5
 344 208 344 208 363 208 c 0,6,7
 376 208 376 208 389.5 202 c 128,-1,8
 403 196 403 196 417 184 c 256,9,10
 431 172 431 172 438 153.5 c 128,-1,11
 445 135 445 135 445 110 c 0,12,13
 445 94 445 94 441.5 80 c 128,-1,14
 438 66 438 66 430 53 c 0,15,16
 423 40 423 40 412 30.5 c 128,-1,17
 401 21 401 21 386 14 c 0,18,19
 372 7 372 7 353.5 3.5 c 128,-1,20
 335 0 335 0 312 0 c 2,21,-1
 153 0 l 2,22,23
 118 0 118 0 92 8.5 c 128,-1,24
 66 17 66 17 49 33 c 0,25,26
 32 50 32 50 23 72 c 128,-1,27
 14 94 14 94 14 120 c 0,28,29
 14 143 14 143 20.5 163 c 128,-1,30
 27 183 27 183 40 201 c 256,31,32
 53 219 53 219 77.5 236.5 c 128,-1,33
 102 254 102 254 139 270 c 2,34,-1
 333 353 l 2,35,36
 347 361 347 361 357 368.5 c 128,-1,37
 367 376 367 376 373 385 c 0,38,39
 379 393 379 393 382 403.5 c 128,-1,40
 385 414 385 414 385 427 c 0,41,42
 385 441 385 441 379 452 c 128,-1,43
 373 463 373 463 362 472 c 256,44,45
 351 481 351 481 335.5 485 c 128,-1,46
 320 489 320 489 300 489 c 2,47,-1
 129 489 l 2,48,49
 118 489 118 489 108 486 c 128,-1,50
 98 483 98 483 90 475 c 0,51,52
 82 468 82 468 77.5 460 c 128,-1,53
 73 452 73 452 74 443 c 0,54,55
 74 419 74 419 88.5 407 c 128,-1,56
 103 395 103 395 131 395 c 0,57,58
 148 395 148 395 162 398.5 c 128,-1,59
 176 402 176 402 189 409 c 1,60,61
 188 391 188 391 182.5 378.5 c 128,-1,62
 177 366 177 366 166 359 c 256,63,64
 155 352 155 352 139 348 c 128,-1,65
 123 344 123 344 103 344 c 0,66,67
 85 344 85 344 70 350 c 128,-1,68
 55 356 55 356 41 366 c 0,69,70
 28 377 28 377 21 395.5 c 128,-1,71
 14 414 14 414 14 439 c 0,72,73
 14 465 14 465 23 485.5 c 128,-1,74
 32 506 32 506 48 520 c 0,75,76
 65 535 65 535 85 542.5 c 128,-1,77
 105 550 105 550 127 550 c 2,78,-1
 304 550 l 2,79,80
 327 550 327 550 345.5 546 c 128,-1,81
 364 542 364 542 380 534 c 0,82,83
 396 527 396 527 408 516 c 128,-1,84
 420 505 420 505 428 491 c 0,85,86
 436 478 436 478 440.5 462 c 128,-1,87
 445 446 445 446 445 429 c 0,88,89
 444 417 444 417 442.5 406 c 128,-1,90
 441 395 441 395 439 385 c 256,91,92
 437 375 437 375 430 364 c 128,-1,93
 423 353 423 353 412 339 c 0,94,95
 400 326 400 326 382 313.5 c 128,-1,96
 364 301 364 301 340 290 c 2,97,-1
 137 199 l 2,98,99
 121 192 121 192 110 184.5 c 128,-1,100
 99 177 99 177 93 168 c 0,101,102
 86 159 86 159 83 148.5 c 128,-1,103
 80 138 80 138 80 125 c 0,104,105
 81 111 81 111 84.5 100 c 128,-1,106
 88 89 88 89 93 82 c 0,107,108
 99 75 99 75 110 69 c 128,-1,109
 121 63 121 63 137 60 c 2,110,-1
 310 60 l 2,111,112
 326 60 326 60 339.5 62 c 128,-1,113
 353 64 353 64 363 68 c 256,114,115
 373 72 373 72 378.5 81.5 c 128,-1,116
 384 91 384 91 385 107 c 0,117,118
 385 130 385 130 373 141 c 128,-1,119
 361 152 361 152 337 152 c 0,120,121
 327 152 327 152 312 148.5 c 128,-1,122
 297 145 297 145 278 139 c 1,123,-1
 278 139 l 1,0,1
EndSplineSet
Validated: 5
EndChar

StartChar: L
Encoding: 46 123167 46
Width: 504
GlyphClass: 2
Flags: W
LayerCount: 2
Fore
SplineSet
425 350 m 1,0,1
 421 349 421 349 415 349 c 128,-1,2
 409 349 409 349 403 349 c 0,3,4
 384 349 384 349 371.5 353 c 128,-1,5
 359 357 359 357 352 365 c 256,6,7
 345 373 345 373 341 389 c 128,-1,8
 337 405 337 405 337 427 c 0,9,10
 337 442 337 442 332.5 453.5 c 128,-1,11
 328 465 328 465 320 473 c 0,12,13
 311 481 311 481 299.5 485 c 128,-1,14
 288 489 288 489 274 489 c 2,15,-1
 149 489 l 2,16,17
 113 486 113 486 95 468.5 c 128,-1,18
 77 451 77 451 77 419 c 2,19,-1
 77 135 l 2,20,21
 77 98 77 98 97 79 c 128,-1,22
 117 60 117 60 157 60 c 2,23,-1
 258 60 l 2,24,25
 273 60 273 60 286.5 64.5 c 128,-1,26
 300 69 300 69 310 78 c 256,27,28
 320 87 320 87 326 99.5 c 128,-1,29
 332 112 332 112 333 127 c 2,30,-1
 333 185 l 2,31,32
 333 205 333 205 322 221 c 128,-1,33
 311 237 311 237 290 250 c 1,34,35
 308 250 308 250 322.5 248.5 c 128,-1,36
 337 247 337 247 347 245 c 0,37,38
 358 243 358 243 366 238 c 128,-1,39
 374 233 374 233 380 225 c 0,40,41
 387 218 387 218 390 206 c 128,-1,42
 393 194 393 194 393 177 c 2,43,-1
 393 84 l 2,44,45
 393 57 393 57 404 36 c 128,-1,46
 415 15 415 15 437 0 c 1,47,-1
 405 0 l 2,48,49
 390 0 390 0 380 1 c 128,-1,50
 370 2 370 2 364 5 c 256,51,52
 358 8 358 8 353 15 c 128,-1,53
 348 22 348 22 344 32 c 1,54,55
 328 16 328 16 308 8 c 128,-1,56
 288 0 288 0 262 0 c 2,57,-1
 135 0 l 1,58,59
 98 4 98 4 73 15.5 c 128,-1,60
 48 27 48 27 37 46 c 0,61,62
 26 66 26 66 20 87.5 c 128,-1,63
 14 109 14 109 14 133 c 2,64,-1
 14 419 l 2,65,66
 14 450 14 450 24.5 474 c 128,-1,67
 35 498 35 498 55 515 c 256,68,69
 75 532 75 532 97.5 541 c 128,-1,70
 120 550 120 550 145 550 c 2,71,-1
 280 550 l 2,72,73
 294 550 294 550 308.5 546.5 c 128,-1,74
 323 543 323 543 337 535 c 0,75,76
 351 528 351 528 362 517 c 128,-1,77
 373 506 373 506 381 492 c 256,78,79
 389 478 389 478 393 461.5 c 128,-1,80
 397 445 397 445 397 425 c 0,81,82
 397 409 397 409 398.5 396.5 c 128,-1,83
 400 384 400 384 403 376 c 256,84,85
 406 368 406 368 411.5 361.5 c 128,-1,86
 417 355 417 355 425 350 c 1,87,-1
 425 350 l 1,0,1
EndSplineSet
Validated: 5
EndChar

StartChar: M
Encoding: 47 123185 47
Width: 0
GlyphClass: 2
Flags: W
LayerCount: 2
Fore
SplineSet
-149 629 m 1,0,-1
 -395 629 l 2,1,2
 -404 629 -404 629 -411.5 631.5 c 128,-1,3
 -419 634 -419 634 -424 638 c 0,4,5
 -429 643 -429 643 -432 648 c 128,-1,6
 -435 653 -435 653 -435 659 c 0,7,8
 -435 666 -435 666 -432 671.5 c 128,-1,9
 -429 677 -429 677 -424 681 c 0,10,11
 -419 686 -419 686 -411.5 687.5 c 128,-1,12
 -404 689 -404 689 -394 689 c 2,13,-1
 -149 689 l 2,14,15
 -138 689 -138 689 -130.5 687.5 c 128,-1,16
 -123 686 -123 686 -117 681 c 0,17,18
 -111 677 -111 677 -108 671.5 c 128,-1,19
 -105 666 -105 666 -105 659 c 0,20,21
 -105 653 -105 653 -108 648 c 128,-1,22
 -111 643 -111 643 -117 638 c 0,23,24
 -123 634 -123 634 -130.5 631.5 c 128,-1,25
 -138 629 -138 629 -148 629 c 2,26,-1
 -149 629 l 1,0,-1
-272 860 m 2,27,28
 -236 860 -236 860 -218.5 845 c 128,-1,29
 -201 830 -201 830 -201 800 c 0,30,31
 -201 769 -201 769 -218.5 754 c 128,-1,32
 -236 739 -236 739 -271 739 c 256,33,34
 -306 739 -306 739 -324 754 c 128,-1,35
 -342 769 -342 769 -342 800 c 0,36,37
 -342 830 -342 830 -324 845 c 128,-1,38
 -306 860 -306 860 -271 860 c 2,39,-1
 -272 860 l 2,27,28
EndSplineSet
Validated: 5
EndChar

StartChar: N
Encoding: 48 123149 48
Width: 495
GlyphClass: 2
Flags: W
LayerCount: 2
Fore
SplineSet
314 333 m 1,0,1
 332 340 332 340 341 356 c 128,-1,2
 350 372 350 372 350 397 c 2,3,-1
 350 423 l 2,4,5
 350 440 350 440 345 452 c 128,-1,6
 340 464 340 464 329 473 c 0,7,8
 319 481 319 481 306.5 485 c 128,-1,9
 294 489 294 489 280 489 c 2,10,-1
 147 489 l 2,11,12
 110 486 110 486 92 468.5 c 128,-1,13
 74 451 74 451 74 419 c 2,14,-1
 74 165 l 1,15,16
 85 171 85 171 94.5 175.5 c 128,-1,17
 104 180 104 180 112 181 c 0,18,19
 120 183 120 183 130.5 184 c 128,-1,20
 141 185 141 185 153 185 c 2,21,-1
 264 185 l 2,22,23
 279 185 279 185 294 181.5 c 128,-1,24
 309 178 309 178 323 172 c 0,25,26
 338 166 338 166 349.5 157 c 128,-1,27
 361 148 361 148 371 136 c 0,28,29
 380 124 380 124 384.5 110 c 128,-1,30
 389 96 389 96 389 80 c 2,31,-1
 389 70 l 2,32,33
 389 42 389 42 396 25 c 128,-1,34
 403 8 403 8 417 0 c 1,35,36
 413 0 413 0 407 0 c 128,-1,37
 401 0 401 0 394 0 c 0,38,39
 374 0 374 0 361 3.5 c 128,-1,40
 348 7 348 7 342 14 c 0,41,42
 336 22 336 22 333 33 c 128,-1,43
 330 44 330 44 330 58 c 2,44,-1
 330 70 l 2,45,46
 330 85 330 85 324 95.5 c 128,-1,47
 318 106 318 106 306 112 c 256,48,49
 294 118 294 118 282 121.5 c 128,-1,50
 270 125 270 125 258 125 c 2,51,-1
 149 125 l 2,52,53
 112 124 112 124 93 109.5 c 128,-1,54
 74 95 74 95 74 68 c 2,55,-1
 74 42 l 2,56,57
 74 32 74 32 79 21.5 c 128,-1,58
 84 11 84 11 94 0 c 1,59,60
 90 0 90 0 84.5 0 c 128,-1,61
 79 0 79 0 73 0 c 0,62,63
 53 0 53 0 40.5 3.5 c 128,-1,64
 28 7 28 7 23 15 c 0,65,66
 18 24 18 24 15 37 c 128,-1,67
 12 50 12 50 12 68 c 2,68,-1
 12 419 l 2,69,70
 12 451 12 451 22 475.5 c 128,-1,71
 32 500 32 500 51 516 c 0,72,73
 71 533 71 533 94 541.5 c 128,-1,74
 117 550 117 550 143 550 c 2,75,-1
 290 550 l 2,76,77
 297 550 297 550 304 548.5 c 128,-1,78
 311 547 311 547 318 546 c 0,79,80
 325 544 325 544 332 541 c 128,-1,81
 339 538 339 538 346 535 c 0,82,83
 360 528 360 528 371.5 518 c 128,-1,84
 383 508 383 508 391 494 c 0,85,86
 400 481 400 481 404.5 464.5 c 128,-1,87
 409 448 409 448 409 429 c 2,88,-1
 409 397 l 2,89,90
 409 384 409 384 407.5 374 c 128,-1,91
 406 364 406 364 402 357 c 256,92,93
 398 350 398 350 393.5 345.5 c 128,-1,94
 389 341 389 341 382 338 c 0,95,96
 375 336 375 336 368 334.5 c 128,-1,97
 361 333 361 333 353 333 c 256,98,99
 345 333 345 333 335 333 c 128,-1,100
 325 333 325 333 314 333 c 1,101,-1
 314 333 l 1,0,1
EndSplineSet
Validated: 5
EndChar

StartChar: O
Encoding: 49 123143 49
Width: 597
GlyphClass: 2
Flags: W
LayerCount: 2
Fore
SplineSet
74 107 m 1,0,1
 74 94 74 94 77 84.5 c 128,-1,2
 80 75 80 75 85 70 c 0,3,4
 91 65 91 65 99 62.5 c 128,-1,5
 107 60 107 60 117 60 c 0,6,7
 138 60 138 60 148.5 72.5 c 128,-1,8
 159 85 159 85 159 110 c 2,9,-1
 159 218 l 1,10,-1
 125 208 l 2,11,12
 118 205 118 205 111.5 202.5 c 128,-1,13
 105 200 105 200 100 198 c 0,14,15
 98 197 98 197 96 195.5 c 128,-1,16
 94 194 94 194 92 193 c 0,17,18
 87 190 87 190 83.5 186 c 128,-1,19
 80 182 80 182 78 177 c 0,20,21
 77 172 77 172 75.5 165 c 128,-1,22
 74 158 74 158 74 149 c 2,23,-1
 74 107 l 1,24,-1
 74 107 l 1,0,1
413 489 m 1,25,26
 393 489 393 489 383 478.5 c 128,-1,27
 373 468 373 468 373 447 c 2,28,-1
 373 340 l 1,29,-1
 417 353 l 2,30,31
 426 355 426 355 433 361 c 128,-1,32
 440 367 440 367 444 377 c 0,33,34
 449 387 449 387 450.5 396 c 128,-1,35
 452 405 452 405 452 413 c 2,36,-1
 452 459 l 2,37,38
 452 474 452 474 442.5 481.5 c 128,-1,39
 433 489 433 489 413 489 c 1,40,-1
 413 489 l 1,25,26
100 262 m 1,41,-1
 159 278 l 1,42,-1
 159 677 l 2,43,44
 159 691 159 691 157 702.5 c 128,-1,45
 155 714 155 714 151 721 c 0,46,47
 147 729 147 729 136.5 736.5 c 128,-1,48
 126 744 126 744 110 750 c 1,49,-1
 135 750 l 2,50,51
 156 750 156 750 172 747 c 128,-1,52
 188 744 188 744 198 739 c 0,53,54
 209 734 209 734 214 722.5 c 128,-1,55
 219 711 219 711 219 693 c 2,56,-1
 219 294 l 1,57,-1
 312 320 l 1,58,-1
 312 459 l 2,59,60
 313 477 313 477 318 491 c 128,-1,61
 323 505 323 505 333 515 c 256,62,63
 343 525 343 525 353.5 532 c 128,-1,64
 364 539 364 539 375 542 c 0,65,66
 387 546 387 546 397 548 c 128,-1,67
 407 550 407 550 415 550 c 256,68,69
 423 550 423 550 432.5 548 c 128,-1,70
 442 546 442 546 453 542 c 0,71,72
 465 538 465 538 475.5 532 c 128,-1,73
 486 526 486 526 494 517 c 0,74,75
 503 508 503 508 507.5 496 c 128,-1,76
 512 484 512 484 512 469 c 2,77,-1
 512 409 l 2,78,79
 512 390 512 390 507.5 372 c 128,-1,80
 503 354 503 354 492 338 c 0,81,82
 482 323 482 323 466 312 c 128,-1,83
 450 301 450 301 429 294 c 2,84,-1
 373 278 l 1,85,-1
 373 103 l 2,86,87
 373 81 373 81 386 70.5 c 128,-1,88
 399 60 399 60 425 60 c 0,89,90
 440 60 440 60 452.5 62 c 128,-1,91
 465 64 465 64 474 68 c 0,92,93
 484 73 484 73 493.5 82.5 c 128,-1,94
 503 92 503 92 512 107 c 1,95,96
 512 88 512 88 511 73.5 c 128,-1,97
 510 59 510 59 508 48 c 0,98,99
 506 38 506 38 500 29 c 128,-1,100
 494 20 494 20 484 13 c 256,101,102
 474 6 474 6 459 3 c 128,-1,103
 444 0 444 0 423 0 c 0,104,105
 400 0 400 0 380.5 6 c 128,-1,106
 361 12 361 12 345 25 c 0,107,108
 329 37 329 37 320.5 57 c 128,-1,109
 312 77 312 77 312 104 c 2,110,-1
 312 260 l 1,111,-1
 219 235 l 1,112,-1
 219 103 l 2,113,114
 219 75 219 75 212 55 c 128,-1,115
 205 35 205 35 190 23 c 256,116,117
 175 11 175 11 158.5 5.5 c 128,-1,118
 142 0 142 0 123 0 c 0,119,120
 103 0 103 0 84 5 c 128,-1,121
 65 10 65 10 48 20 c 0,122,123
 32 31 32 31 23 51.5 c 128,-1,124
 14 72 14 72 14 103 c 2,125,-1
 14 155 l 2,126,127
 17 176 17 176 22 191.5 c 128,-1,128
 27 207 27 207 34 217 c 0,129,130
 41 228 41 228 48.5 234.5 c 128,-1,131
 56 241 56 241 64 245 c 0,132,133
 68 247 68 247 72.5 249 c 128,-1,134
 77 251 77 251 81 254 c 0,135,136
 86 256 86 256 90.5 258 c 128,-1,137
 95 260 95 260 100 262 c 1,138,-1
 100 262 l 1,41,-1
EndSplineSet
Validated: 5
EndChar

StartChar: P
Encoding: 50 123171 50
Width: 413
GlyphClass: 2
Flags: W
LayerCount: 2
Fore
SplineSet
324 0 m 1,0,1
 322 0 322 0 317.5 0 c 128,-1,2
 313 0 313 0 307 0 c 0,3,4
 300 0 300 0 295 0 c 128,-1,5
 290 0 290 0 287 0 c 0,6,7
 269 0 269 0 255 2.5 c 128,-1,8
 241 5 241 5 230 10 c 0,9,10
 220 16 220 16 214.5 28 c 128,-1,11
 209 40 209 40 209 58 c 2,12,-1
 209 135 l 2,13,14
 209 145 209 145 211 154 c 128,-1,15
 213 163 213 163 217 172 c 256,16,17
 221 181 221 181 226.5 191 c 128,-1,18
 232 201 232 201 239 213 c 0,19,20
 247 224 247 224 252 233.5 c 128,-1,21
 257 243 257 243 260 250 c 0,22,23
 263 256 263 256 265 263.5 c 128,-1,24
 267 271 267 271 268 280 c 0,25,26
 268 294 268 294 264.5 307 c 128,-1,27
 261 320 261 320 253 330 c 0,28,29
 246 341 246 341 234 346.5 c 128,-1,30
 222 352 222 352 205 353 c 2,31,-1
 48 353 l 2,32,33
 38 354 38 354 32 355.5 c 128,-1,34
 26 357 26 357 23 360 c 256,35,36
 20 363 20 363 18 370 c 128,-1,37
 16 377 16 377 14 387 c 2,38,-1
 14 492 l 2,39,40
 14 511 14 511 19.5 522.5 c 128,-1,41
 25 534 25 534 35 539 c 0,42,43
 46 544 46 544 61.5 547 c 128,-1,44
 77 550 77 550 99 550 c 2,45,-1
 123 550 l 1,46,47
 109 543 109 543 99 536.5 c 128,-1,48
 89 530 89 530 84 524 c 0,49,50
 80 519 80 519 77 509.5 c 128,-1,51
 74 500 74 500 74 488 c 2,52,-1
 74 413 l 1,53,-1
 212 413 l 2,54,55
 232 412 232 412 248.5 406.5 c 128,-1,56
 265 401 265 401 278 391 c 256,57,58
 291 381 291 381 300.5 369 c 128,-1,59
 310 357 310 357 316 343 c 0,60,61
 321 328 321 328 324 313 c 128,-1,62
 327 298 327 298 327 282 c 0,63,64
 327 272 327 272 325.5 261.5 c 128,-1,65
 324 251 324 251 320 242 c 0,66,67
 316 232 316 232 311 221 c 128,-1,68
 306 210 306 210 298 198 c 0,69,70
 291 185 291 185 286 175.5 c 128,-1,71
 281 166 281 166 278 159 c 0,72,73
 274 152 274 152 272.5 144.5 c 128,-1,74
 271 137 271 137 270 129 c 2,75,-1
 270 54 l 2,76,77
 270 38 270 38 283.5 24.5 c 128,-1,78
 297 11 297 11 324 0 c 1,79,-1
 324 0 l 1,0,1
EndSplineSet
Validated: 5
EndChar

StartChar: Q
Encoding: 51 123168 51
Width: 532
GlyphClass: 2
Flags: W
LayerCount: 2
Fore
SplineSet
357 364 m 1,0,1
 365 371 365 371 371 377 c 128,-1,2
 377 383 377 383 381 389 c 0,3,4
 384 395 384 395 385.5 403.5 c 128,-1,5
 387 412 387 412 387 423 c 2,6,-1
 387 435 l 2,7,8
 387 446 387 446 384 456 c 128,-1,9
 381 466 381 466 373 473 c 0,10,11
 366 481 366 481 356 485 c 128,-1,12
 346 489 346 489 333 489 c 2,13,-1
 153 489 l 2,14,15
 116 486 116 486 98 468.5 c 128,-1,16
 80 451 80 451 80 419 c 2,17,-1
 80 104 l 2,18,19
 80 82 80 82 96 71 c 128,-1,20
 112 60 112 60 145 60 c 0,21,22
 153 60 153 60 161.5 61.5 c 128,-1,23
 170 63 170 63 178 66 c 256,24,25
 186 69 186 69 192.5 73.5 c 128,-1,26
 199 78 199 78 204 83 c 256,27,28
 209 88 209 88 211 93 c 128,-1,29
 213 98 213 98 212 103 c 2,30,-1
 212 195 l 2,31,32
 212 212 212 212 201 224.5 c 128,-1,33
 190 237 190 237 169 245 c 1,34,-1
 196 245 l 2,35,36
 216 245 216 245 230 243 c 128,-1,37
 244 241 244 241 253 236 c 0,38,39
 262 232 262 232 266.5 221.5 c 128,-1,40
 271 211 271 211 272 195 c 2,41,-1
 272 100 l 2,42,43
 272 92 272 92 277 84.5 c 128,-1,44
 282 77 282 77 292 71 c 0,45,46
 302 66 302 66 314 63 c 128,-1,47
 326 60 326 60 340 60 c 0,48,49
 352 60 352 60 361.5 62.5 c 128,-1,50
 371 65 371 65 376 70 c 0,51,52
 382 75 382 75 384.5 84 c 128,-1,53
 387 93 387 93 387 104 c 2,54,-1
 387 195 l 2,55,56
 387 211 387 211 376 223.5 c 128,-1,57
 365 236 365 236 344 245 c 1,58,59
 373 245 373 245 393.5 243 c 128,-1,60
 414 241 414 241 424 236 c 0,61,62
 435 232 435 232 440.5 222 c 128,-1,63
 446 212 446 212 447 195 c 2,64,-1
 447 100 l 2,65,66
 447 50 447 50 419.5 25 c 128,-1,67
 392 0 392 0 337 0 c 0,68,69
 304 0 304 0 280.5 8.5 c 128,-1,70
 257 17 257 17 242 34 c 1,71,72
 227 17 227 17 201 8.5 c 128,-1,73
 175 0 175 0 137 0 c 0,74,75
 77 0 77 0 47.5 25 c 128,-1,76
 18 50 18 50 18 100 c 2,77,-1
 18 419 l 2,78,79
 18 451 18 451 27.5 475.5 c 128,-1,80
 37 500 37 500 56 516 c 0,81,82
 76 533 76 533 99 541.5 c 128,-1,83
 122 550 122 550 147 550 c 2,84,-1
 327 550 l 2,85,86
 351 550 351 550 372 543 c 128,-1,87
 393 536 393 536 410 522 c 0,88,89
 428 509 428 509 437 487.5 c 128,-1,90
 446 466 446 466 447 437 c 2,91,-1
 447 417 l 2,92,93
 447 401 447 401 443.5 390.5 c 128,-1,94
 440 380 440 380 432 375 c 0,95,96
 424 369 424 369 413 366.5 c 128,-1,97
 402 364 402 364 388 364 c 0,98,99
 386 364 386 364 381.5 364 c 128,-1,100
 377 364 377 364 372 364 c 256,101,102
 367 364 367 364 363 364 c 128,-1,103
 359 364 359 364 357 364 c 1,104,-1
 357 364 l 1,0,1
EndSplineSet
Validated: 5
EndChar

StartChar: R
Encoding: 52 123170 52
Width: 479
GlyphClass: 2
Flags: W
LayerCount: 2
Fore
SplineSet
14 120 m 1,0,-1
 14 139 l 2,1,2
 14 152 14 152 18.5 166 c 128,-1,3
 23 180 23 180 30 195 c 0,4,5
 34 202 34 202 39 209.5 c 128,-1,6
 44 217 44 217 50 224 c 256,7,8
 56 231 56 231 63 238.5 c 128,-1,9
 70 246 70 246 78 253 c 0,10,11
 94 267 94 267 113.5 278.5 c 128,-1,12
 133 290 133 290 155 300 c 1,13,-1
 72 300 l 2,14,15
 59 300 59 300 49.5 303 c 128,-1,16
 40 306 40 306 32 313 c 0,17,18
 25 321 25 321 21 329 c 128,-1,19
 17 337 17 337 17 347 c 256,20,21
 17 357 17 357 20.5 366.5 c 128,-1,22
 24 376 24 376 31 385 c 0,23,24
 39 395 39 395 49.5 403.5 c 128,-1,25
 60 412 60 412 74 419 c 2,26,-1
 163 462 l 2,27,28
 179 470 179 470 189.5 477.5 c 128,-1,29
 200 485 200 485 205 491 c 0,30,31
 210 498 210 498 214.5 505.5 c 128,-1,32
 219 513 219 513 223 521 c 0,33,34
 226 529 226 529 230.5 535 c 128,-1,35
 235 541 235 541 240 544 c 256,36,37
 245 547 245 547 256.5 548.5 c 128,-1,38
 268 550 268 550 284 550 c 1,39,40
 284 531 284 531 280 511.5 c 128,-1,41
 276 492 276 492 268 474 c 0,42,43
 260 455 260 455 241 438.5 c 128,-1,44
 222 422 222 422 193 407 c 2,45,-1
 97 360 l 1,46,-1
 312 360 l 2,47,48
 345 360 345 360 361.5 343.5 c 128,-1,49
 378 327 378 327 378 294 c 0,50,51
 378 291 378 291 378 288 c 128,-1,52
 378 285 378 285 378 282 c 0,53,54
 377 280 377 280 377 278 c 128,-1,55
 377 276 377 276 377 274 c 1,56,57
 370 287 370 287 359.5 293.5 c 128,-1,58
 349 300 349 300 334 300 c 0,59,60
 317 300 317 300 292.5 293.5 c 128,-1,61
 268 287 268 287 236 275 c 0,62,63
 205 263 205 263 176.5 247.5 c 128,-1,64
 148 232 148 232 124 212 c 256,65,66
 100 192 100 192 87.5 171 c 128,-1,67
 75 150 75 150 74 127 c 0,68,69
 74 112 74 112 79 100 c 128,-1,70
 84 88 84 88 94 78 c 0,71,72
 105 69 105 69 118 64.5 c 128,-1,73
 131 60 131 60 147 60 c 2,74,-1
 258 60 l 2,75,76
 296 60 296 60 315 76 c 128,-1,77
 334 92 334 92 334 123 c 0,78,79
 334 141 334 141 325.5 154.5 c 128,-1,80
 317 168 317 168 300 177 c 1,81,82
 302 177 302 177 303.5 177 c 128,-1,83
 305 177 305 177 307 178 c 0,84,85
 309 178 309 178 311.5 178 c 128,-1,86
 314 178 314 178 317 178 c 0,87,88
 322 178 322 178 326.5 178 c 128,-1,89
 331 178 331 178 333 178 c 0,90,91
 348 178 348 178 359.5 175.5 c 128,-1,92
 371 173 371 173 378 168 c 0,93,94
 386 163 386 163 390 152 c 128,-1,95
 394 141 394 141 395 125 c 0,96,97
 395 88 395 88 384 62.5 c 128,-1,98
 373 37 373 37 350 25 c 0,99,100
 328 12 328 12 305.5 6 c 128,-1,101
 283 0 283 0 260 0 c 2,102,-1
 145 0 l 2,103,104
 118 0 118 0 97.5 5.5 c 128,-1,105
 77 11 77 11 63 21 c 0,106,107
 48 32 48 32 38.5 44.5 c 128,-1,108
 29 57 29 57 24 70 c 0,109,110
 20 84 20 84 17 96.5 c 128,-1,111
 14 109 14 109 14 120 c 1,112,-1
 14 120 l 1,0,-1
EndSplineSet
Validated: 5
EndChar

StartChar: S
Encoding: 53 123177 53
Width: 445
GlyphClass: 2
Flags: W
LayerCount: 2
Fore
SplineSet
262 407 m 1,0,1
 272 412 272 412 278.5 417.5 c 128,-1,2
 285 423 285 423 287 429 c 0,3,4
 290 435 290 435 291 442.5 c 128,-1,5
 292 450 292 450 292 458 c 0,6,7
 292 473 292 473 281.5 481 c 128,-1,8
 271 489 271 489 250 489 c 2,9,-1
 129 489 l 2,10,11
 119 489 119 489 111.5 486.5 c 128,-1,12
 104 484 104 484 99 479 c 0,13,14
 94 475 94 475 91.5 469.5 c 128,-1,15
 89 464 89 464 90 459 c 0,16,17
 90 452 90 452 93 444.5 c 128,-1,18
 96 437 96 437 100 431 c 0,19,20
 105 425 105 425 109.5 419 c 128,-1,21
 114 413 114 413 118 407 c 0,22,23
 123 402 123 402 125 393 c 128,-1,24
 127 384 127 384 127 373 c 0,25,26
 127 351 127 351 116 333.5 c 128,-1,27
 105 316 105 316 84 304 c 1,28,-1
 324 304 l 2,29,30
 335 304 335 304 342 302.5 c 128,-1,31
 349 301 349 301 353 296 c 0,32,33
 356 292 356 292 358 285 c 128,-1,34
 360 278 360 278 360 268 c 2,35,-1
 360 113 l 2,36,37
 360 96 360 96 356.5 81.5 c 128,-1,38
 353 67 353 67 345 54 c 0,39,40
 338 41 338 41 328.5 31 c 128,-1,41
 319 21 319 21 306 14 c 0,42,43
 294 7 294 7 280.5 3.5 c 128,-1,44
 267 0 267 0 252 0 c 2,45,-1
 120 0 l 1,46,47
 67 6 67 6 40.5 33 c 128,-1,48
 14 60 14 60 14 107 c 0,49,50
 14 121 14 121 17 131.5 c 128,-1,51
 20 142 20 142 26 149 c 256,52,53
 32 156 32 156 39.5 160.5 c 128,-1,54
 47 165 47 165 56 166 c 0,55,56
 64 168 64 168 76 168.5 c 128,-1,57
 88 169 88 169 103 169 c 1,58,59
 99 166 99 166 96 163.5 c 128,-1,60
 93 161 93 161 90 158 c 256,61,62
 87 155 87 155 85 152.5 c 128,-1,63
 83 150 83 150 81 147 c 0,64,65
 78 141 78 141 76 132.5 c 128,-1,66
 74 124 74 124 74 113 c 0,67,68
 74 100 74 100 78 90 c 128,-1,69
 82 80 82 80 89 73 c 0,70,71
 97 66 97 66 109.5 63 c 128,-1,72
 122 60 122 60 139 60 c 2,73,-1
 222 60 l 2,74,75
 261 60 261 60 280.5 76 c 128,-1,76
 300 92 300 92 300 125 c 2,77,-1
 300 245 l 1,78,-1
 83 245 l 2,79,80
 67 245 67 245 55.5 249.5 c 128,-1,81
 44 254 44 254 36 261 c 0,82,83
 29 269 29 269 24.5 278.5 c 128,-1,84
 20 288 20 288 20 299 c 0,85,86
 20 314 20 314 25 325 c 128,-1,87
 30 336 30 336 40 343 c 0,88,89
 51 350 51 350 56 357 c 128,-1,90
 61 364 61 364 61 371 c 0,91,92
 61 375 61 375 58 381 c 128,-1,93
 55 387 55 387 49 394 c 0,94,95
 43 402 43 402 38.5 409 c 128,-1,96
 34 416 34 416 31 422 c 256,97,98
 28 428 28 428 26 436.5 c 128,-1,99
 24 445 24 445 24 455 c 0,100,101
 24 477 24 477 31.5 494 c 128,-1,102
 39 511 39 511 53 524 c 0,103,104
 68 537 68 537 86.5 543.5 c 128,-1,105
 105 550 105 550 127 550 c 2,106,-1
 248 550 l 2,107,108
 275 549 275 549 295 542.5 c 128,-1,109
 315 536 315 536 327 522 c 0,110,111
 340 509 340 509 346.5 494 c 128,-1,112
 353 479 353 479 353 462 c 0,113,114
 352 431 352 431 339 415 c 128,-1,115
 326 399 326 399 302 399 c 0,116,117
 294 399 294 399 284 401 c 128,-1,118
 274 403 274 403 262 407 c 1,119,-1
 262 407 l 1,0,1
EndSplineSet
Validated: 5
EndChar

StartChar: T
Encoding: 54 123169 54
Width: 495
GlyphClass: 2
Flags: W
LayerCount: 2
Fore
SplineSet
163 385 m 1,0,1
 153 368 153 368 137.5 359.5 c 128,-1,2
 122 351 122 351 102 351 c 0,3,4
 85 351 85 351 69.5 357 c 128,-1,5
 54 363 54 363 41 375 c 256,6,7
 28 387 28 387 21 403 c 128,-1,8
 14 419 14 419 14 439 c 0,9,10
 14 465 14 465 23.5 485.5 c 128,-1,11
 33 506 33 506 52 520 c 0,12,13
 71 535 71 535 94 542.5 c 128,-1,14
 117 550 117 550 143 550 c 2,15,-1
 260 550 l 2,16,17
 283 549 283 549 303 544 c 128,-1,18
 323 539 323 539 340 530 c 256,19,20
 357 521 357 521 370 508.5 c 128,-1,21
 383 496 383 496 392 480 c 256,22,23
 401 464 401 464 405 446.5 c 128,-1,24
 409 429 409 429 409 409 c 0,25,26
 409 378 409 378 402.5 349.5 c 128,-1,27
 396 321 396 321 382 297 c 0,28,29
 369 273 369 273 340.5 256.5 c 128,-1,30
 312 240 312 240 268 229 c 2,31,-1
 74 195 l 1,32,-1
 74 60 l 1,33,-1
 350 60 l 1,34,-1
 350 107 l 2,35,36
 350 122 350 122 342.5 133.5 c 128,-1,37
 335 145 335 145 320 153 c 1,38,39
 349 153 349 153 367 151 c 128,-1,40
 385 149 385 149 393 145 c 256,41,42
 401 141 401 141 405 131 c 128,-1,43
 409 121 409 121 409 104 c 2,44,-1
 409 32 l 2,45,46
 409 24 409 24 407.5 18 c 128,-1,47
 406 12 406 12 402 7 c 0,48,49
 399 3 399 3 392.5 1.5 c 128,-1,50
 386 0 386 0 377 0 c 2,51,-1
 50 0 l 2,52,53
 40 0 40 0 33.5 1 c 128,-1,54
 27 2 27 2 23 5 c 256,55,56
 19 8 19 8 16.5 15 c 128,-1,57
 14 22 14 22 14 32 c 2,58,-1
 14 215 l 2,59,60
 14 228 14 228 21 236 c 128,-1,61
 28 244 28 244 42 248 c 2,62,-1
 252 288 l 2,63,64
 284 293 284 293 303.5 305 c 128,-1,65
 323 317 323 317 332 333 c 0,66,67
 341 350 341 350 345.5 369 c 128,-1,68
 350 388 350 388 350 409 c 0,69,70
 349 428 349 428 342.5 442.5 c 128,-1,71
 336 457 336 457 323 468 c 0,72,73
 311 479 311 479 294.5 484 c 128,-1,74
 278 489 278 489 258 489 c 2,75,-1
 137 489 l 2,76,77
 123 489 123 489 111.5 486 c 128,-1,78
 100 483 100 483 91 477 c 0,79,80
 83 470 83 470 78.5 461 c 128,-1,81
 74 452 74 452 74 439 c 256,82,83
 74 426 74 426 81.5 416 c 128,-1,84
 89 406 89 406 104 399 c 0,85,86
 118 392 118 392 133 388.5 c 128,-1,87
 148 385 148 385 163 385 c 1,88,-1
 163 385 l 1,0,1
EndSplineSet
Validated: 5
EndChar

StartChar: U
Encoding: 55 123161 55
Width: 512
GlyphClass: 2
Flags: W
LayerCount: 2
Fore
SplineSet
74 445 m 1,0,1
 74 436 74 436 75.5 428.5 c 128,-1,2
 77 421 77 421 78 414 c 0,3,4
 80 407 80 407 84 399 c 128,-1,5
 88 391 88 391 94 383 c 1,6,7
 54 383 54 383 34 400.5 c 128,-1,8
 14 418 14 418 14 452 c 0,9,10
 14 475 14 475 23 493 c 128,-1,11
 32 511 32 511 48 524 c 0,12,13
 65 537 65 537 84 543.5 c 128,-1,14
 103 550 103 550 125 550 c 2,15,-1
 149 550 l 2,16,17
 176 549 176 549 197 541 c 128,-1,18
 218 533 218 533 233 517 c 0,19,20
 247 501 247 501 254.5 481.5 c 128,-1,21
 262 462 262 462 262 437 c 2,22,-1
 262 373 l 2,23,24
 262 344 262 344 257.5 321.5 c 128,-1,25
 253 299 253 299 243 283 c 256,26,27
 233 267 233 267 221 256 c 128,-1,28
 209 245 209 245 194 239 c 256,29,30
 179 233 179 233 162 230.5 c 128,-1,31
 145 228 145 228 125 228 c 0,32,33
 112 228 112 228 102.5 226 c 128,-1,34
 93 224 93 224 87 219 c 0,35,36
 81 215 81 215 77.5 205 c 128,-1,37
 74 195 74 195 74 179 c 2,38,-1
 74 123 l 2,39,40
 74 104 74 104 80.5 90.5 c 128,-1,41
 87 77 87 77 99 69 c 256,42,43
 111 61 111 61 122 57 c 128,-1,44
 133 53 133 53 143 54 c 2,45,-1
 294 54 l 2,46,47
 311 54 311 54 324.5 59 c 128,-1,48
 338 64 338 64 348 74 c 0,49,50
 358 85 358 85 362.5 98.5 c 128,-1,51
 367 112 367 112 367 129 c 2,52,-1
 367 489 l 2,53,54
 367 508 367 508 354.5 523 c 128,-1,55
 342 538 342 538 318 550 c 1,56,57
 338 550 338 550 353.5 549.5 c 128,-1,58
 369 549 369 549 380 547 c 0,59,60
 391 546 391 546 399 541.5 c 128,-1,61
 407 537 407 537 414 531 c 0,62,63
 421 524 421 524 424 513.5 c 128,-1,64
 427 503 427 503 427 489 c 2,65,-1
 427 125 l 2,66,67
 427 95 427 95 418.5 72 c 128,-1,68
 410 49 410 49 393 32 c 0,69,70
 377 16 377 16 354.5 8 c 128,-1,71
 332 0 332 0 304 0 c 2,72,-1
 135 0 l 2,73,74
 107 0 107 0 85.5 7.5 c 128,-1,75
 64 15 64 15 47 31 c 0,76,77
 31 47 31 47 22.5 69.5 c 128,-1,78
 14 92 14 92 14 120 c 2,79,-1
 14 199 l 2,80,81
 16 216 16 216 20 228.5 c 128,-1,82
 24 241 24 241 30 251 c 0,83,84
 37 260 37 260 44 266.5 c 128,-1,85
 51 273 51 273 59 276 c 0,86,87
 67 280 67 280 76 282 c 128,-1,88
 85 284 85 284 95 285 c 0,89,90
 104 286 104 286 111.5 286.5 c 128,-1,91
 119 287 119 287 125 288 c 0,92,93
 145 288 145 288 160 292.5 c 128,-1,94
 175 297 175 297 184 306 c 0,95,96
 193 314 193 314 197.5 331 c 128,-1,97
 202 348 202 348 202 373 c 2,98,-1
 202 423 l 2,99,100
 202 439 202 439 198.5 451 c 128,-1,101
 195 463 195 463 187 472 c 256,102,103
 179 481 179 481 168.5 485 c 128,-1,104
 158 489 158 489 145 489 c 2,105,-1
 129 489 l 2,106,107
 119 489 119 489 109 486.5 c 128,-1,108
 99 484 99 484 91 478 c 0,109,110
 83 473 83 473 78.5 464.5 c 128,-1,111
 74 456 74 456 74 445 c 1,112,-1
 74 445 l 1,0,1
EndSplineSet
Validated: 5
EndChar

StartChar: V
Encoding: 56 123153 56
Width: 510
GlyphClass: 2
Flags: W
LayerCount: 2
Fore
SplineSet
258 145 m 1,0,1
 258 185 258 185 279 205 c 128,-1,2
 300 225 300 225 343 225 c 0,3,4
 359 225 359 225 373 218.5 c 128,-1,5
 387 212 387 212 400 199 c 0,6,7
 412 186 412 186 418.5 165 c 128,-1,8
 425 144 425 144 425 113 c 0,9,10
 425 94 425 94 420 79 c 128,-1,11
 415 64 415 64 406 50 c 0,12,13
 396 37 396 37 384 27.5 c 128,-1,14
 372 18 372 18 358 12 c 0,15,16
 343 6 343 6 328.5 3 c 128,-1,17
 314 0 314 0 300 0 c 2,18,-1
 149 0 l 2,19,20
 130 0 130 0 112 4.5 c 128,-1,21
 94 9 94 9 78 19 c 0,22,23
 63 29 63 29 51 41.5 c 128,-1,24
 39 54 39 54 31 70 c 256,25,26
 23 86 23 86 18.5 102.5 c 128,-1,27
 14 119 14 119 14 135 c 0,28,29
 14 142 14 142 14.5 148.5 c 128,-1,30
 15 155 15 155 16 160 c 256,31,32
 17 165 17 165 17.5 169.5 c 128,-1,33
 18 174 18 174 18 177 c 0,34,35
 19 184 19 184 22 191.5 c 128,-1,36
 25 199 25 199 30 208 c 256,37,38
 35 217 35 217 43 228 c 128,-1,39
 51 239 51 239 62 252 c 2,40,-1
 97 278 l 1,41,-1
 60 308 l 1,42,43
 37 332 37 332 25.5 357 c 128,-1,44
 14 382 14 382 14 407 c 2,45,-1
 14 423 l 2,46,47
 14 442 14 442 19 458.5 c 128,-1,48
 24 475 24 475 34 490 c 0,49,50
 44 504 44 504 56 515.5 c 128,-1,51
 68 527 68 527 83 534 c 0,52,53
 99 542 99 542 115 546 c 128,-1,54
 131 550 131 550 147 550 c 2,55,-1
 294 550 l 2,56,57
 311 550 311 550 326.5 547 c 128,-1,58
 342 544 342 544 357 538 c 256,59,60
 372 532 372 532 384 522.5 c 128,-1,61
 396 513 396 513 406 500 c 0,62,63
 415 487 415 487 420 471.5 c 128,-1,64
 425 456 425 456 425 437 c 0,65,66
 425 410 425 410 419 389 c 128,-1,67
 413 368 413 368 402 354 c 0,68,69
 391 339 391 339 376 331.5 c 128,-1,70
 361 324 361 324 343 324 c 0,71,72
 323 324 323 324 307.5 327.5 c 128,-1,73
 292 331 292 331 281 338 c 256,74,75
 270 345 270 345 264 360 c 128,-1,76
 258 375 258 375 258 399 c 1,77,78
 266 386 266 386 280.5 379 c 128,-1,79
 295 372 295 372 314 372 c 0,80,81
 325 372 325 372 334 375 c 128,-1,82
 343 378 343 378 350 384 c 0,83,84
 358 391 358 391 361 401 c 128,-1,85
 364 411 364 411 364 425 c 2,86,-1
 364 437 l 2,87,88
 364 463 364 463 343 476 c 128,-1,89
 322 489 322 489 280 489 c 2,90,-1
 153 489 l 2,91,92
 143 489 143 489 134 487 c 128,-1,93
 125 485 125 485 116 480 c 0,94,95
 107 476 107 476 99.5 469 c 128,-1,96
 92 462 92 462 86 453 c 0,97,98
 80 443 80 443 77 432.5 c 128,-1,99
 74 422 74 422 74 409 c 0,100,101
 76 397 76 397 78.5 387.5 c 128,-1,102
 81 378 81 378 85 371 c 256,103,104
 89 364 89 364 98.5 354.5 c 128,-1,105
 108 345 108 345 123 333 c 2,106,-1
 195 278 l 1,107,-1
 123 228 l 2,108,109
 113 220 113 220 106 213 c 128,-1,110
 99 206 99 206 94 199 c 256,111,112
 89 192 89 192 85.5 185.5 c 128,-1,113
 82 179 82 179 80 174 c 0,114,115
 79 169 79 169 78 163.5 c 128,-1,116
 77 158 77 158 76 153 c 0,117,118
 76 149 76 149 75.5 143.5 c 128,-1,119
 75 138 75 138 74 133 c 0,120,121
 74 127 74 127 75.5 121 c 128,-1,122
 77 115 77 115 80 109 c 0,123,124
 83 102 83 102 87 96 c 128,-1,125
 91 90 91 90 96 84 c 0,126,127
 107 72 107 72 122.5 66 c 128,-1,128
 138 60 138 60 157 60 c 2,129,-1
 284 60 l 2,130,131
 301 60 301 60 315 63 c 128,-1,132
 329 66 329 66 341 72 c 256,133,134
 353 78 353 78 358.5 88.5 c 128,-1,135
 364 99 364 99 364 114 c 2,136,-1
 364 127 l 2,137,138
 364 140 364 140 361 149 c 128,-1,139
 358 158 358 158 351 164 c 0,140,141
 345 170 345 170 336.5 173 c 128,-1,142
 328 176 328 176 318 176 c 0,143,144
 297 176 297 176 282 168 c 128,-1,145
 267 160 267 160 258 145 c 1,146,-1
 258 145 l 1,0,1
EndSplineSet
Validated: 5
EndChar

StartChar: W
Encoding: 57 123146 57
Width: 570
GlyphClass: 2
Flags: W
LayerCount: 2
Fore
SplineSet
14 478 m 1,0,1
 14 499 14 499 17.5 513.5 c 128,-1,2
 21 528 21 528 27 535 c 0,3,4
 34 543 34 543 46 546.5 c 128,-1,5
 58 550 58 550 77 550 c 0,6,7
 95 550 95 550 107 545.5 c 128,-1,8
 119 541 119 541 125 533 c 256,9,10
 131 525 131 525 134 511.5 c 128,-1,11
 137 498 137 498 137 479 c 2,12,-1
 137 127 l 2,13,14
 137 112 137 112 140 101 c 128,-1,15
 143 90 143 90 147 82 c 0,16,17
 152 75 152 75 159 70.5 c 128,-1,18
 166 66 166 66 175 64 c 0,19,20
 183 62 183 62 196 61 c 128,-1,21
 209 60 209 60 225 60 c 2,22,-1
 250 60 l 1,23,-1
 250 488 l 2,24,25
 250 500 250 500 247 509.5 c 128,-1,26
 244 519 244 519 238 526 c 256,27,28
 232 533 232 533 222.5 539 c 128,-1,29
 213 545 213 545 199 550 c 1,30,-1
 220 550 l 2,31,32
 240 550 240 550 254.5 549 c 128,-1,33
 269 548 269 548 278 546 c 0,34,35
 286 545 286 545 292 541 c 128,-1,36
 298 537 298 537 302 530 c 0,37,38
 306 524 306 524 308 513.5 c 128,-1,39
 310 503 310 503 310 488 c 2,40,-1
 310 60 l 1,41,-1
 360 60 l 2,42,43
 392 60 392 60 408.5 76 c 128,-1,44
 425 92 425 92 425 123 c 2,45,-1
 425 488 l 2,46,47
 425 500 425 500 422 509.5 c 128,-1,48
 419 519 419 519 413 526 c 256,49,50
 407 533 407 533 397.5 539 c 128,-1,51
 388 545 388 545 375 550 c 1,52,-1
 395 550 l 2,53,54
 415 550 415 550 429.5 549 c 128,-1,55
 444 548 444 548 453 546 c 0,56,57
 461 545 461 545 467 541 c 128,-1,58
 473 537 473 537 477 530 c 0,59,60
 481 524 481 524 483 513.5 c 128,-1,61
 485 503 485 503 485 488 c 2,62,-1
 485 127 l 2,63,64
 485 63 485 63 454.5 31.5 c 128,-1,65
 424 0 424 0 363 0 c 2,66,-1
 205 0 l 2,67,68
 143 0 143 0 111 30 c 128,-1,69
 79 60 79 60 77 120 c 2,70,-1
 77 469 l 2,71,72
 76 482 76 482 69.5 488.5 c 128,-1,73
 63 495 63 495 52 495 c 0,74,75
 43 495 43 495 34 490.5 c 128,-1,76
 25 486 25 486 14 478 c 1,77,-1
 14 478 l 1,0,1
EndSplineSet
Validated: 5
EndChar

StartChar: X
Encoding: 58 123138 58
Width: 649
GlyphClass: 2
Flags: W
LayerCount: 2
Fore
SplineSet
42 60 m 1,0,1
 51 60 51 60 58.5 68.5 c 128,-1,2
 66 77 66 77 72 94 c 256,3,4
 78 111 78 111 83 133 c 128,-1,5
 88 155 88 155 91 182 c 0,6,7
 94 210 94 210 95.5 238.5 c 128,-1,8
 97 267 97 267 97 298 c 0,9,10
 97 338 97 338 94.5 372 c 128,-1,11
 92 406 92 406 86 434 c 0,12,13
 81 462 81 462 73 475.5 c 128,-1,14
 65 489 65 489 54 489 c 2,15,-1
 14 489 l 1,16,17
 14 519 14 519 27.5 534.5 c 128,-1,18
 41 550 41 550 68 550 c 2,19,-1
 143 550 l 2,20,21
 196 550 196 550 226.5 530.5 c 128,-1,22
 257 511 257 511 264 472 c 0,23,24
 269 453 269 453 275.5 419.5 c 128,-1,25
 282 386 282 386 290 339 c 0,26,27
 298 291 298 291 306 253.5 c 128,-1,28
 314 216 314 216 321 188 c 0,29,30
 329 161 329 161 339.5 138 c 128,-1,31
 350 115 350 115 364 97 c 0,32,33
 378 78 378 78 396.5 69 c 128,-1,34
 415 60 415 60 437 60 c 0,35,36
 470 60 470 60 487 79 c 128,-1,37
 504 98 504 98 504 137 c 2,38,-1
 504 427 l 2,39,40
 504 444 504 444 501 456.5 c 128,-1,41
 498 469 498 469 492 477 c 256,42,43
 486 485 486 485 478 488.5 c 128,-1,44
 470 492 470 492 460 492 c 0,45,46
 451 492 451 492 443.5 488 c 128,-1,47
 436 484 436 484 430 476 c 0,48,49
 424 469 424 469 420.5 456.5 c 128,-1,50
 417 444 417 444 417 427 c 2,51,-1
 417 403 l 2,52,53
 417 363 417 363 427 343.5 c 128,-1,54
 437 324 437 324 458 324 c 1,55,56
 454 314 454 314 446 309.5 c 128,-1,57
 438 305 438 305 425 305 c 0,58,59
 411 305 411 305 399 311.5 c 128,-1,60
 387 318 387 318 376 330 c 0,61,62
 365 343 365 343 359.5 361.5 c 128,-1,63
 354 380 354 380 354 405 c 2,64,-1
 354 437 l 2,65,66
 354 467 354 467 362.5 488.5 c 128,-1,67
 371 510 371 510 387 523 c 0,68,69
 404 537 404 537 422 543.5 c 128,-1,70
 440 550 440 550 459 550 c 0,71,72
 480 550 480 550 498.5 543.5 c 128,-1,73
 517 537 517 537 533 523 c 0,74,75
 549 510 549 510 556.5 488.5 c 128,-1,76
 564 467 564 467 564 437 c 2,77,-1
 564 129 l 2,78,79
 564 94 564 94 555 68.5 c 128,-1,80
 546 43 546 43 526 29 c 0,81,82
 507 14 507 14 485 7 c 128,-1,83
 463 0 463 0 437 0 c 0,84,85
 408 0 408 0 384.5 5.5 c 128,-1,86
 361 11 361 11 344 21 c 0,87,88
 327 32 327 32 313.5 49.5 c 128,-1,89
 300 67 300 67 289 92 c 0,90,91
 279 117 279 117 271 141 c 128,-1,92
 263 165 263 165 258 189 c 0,93,94
 253 212 253 212 240.5 277.5 c 128,-1,95
 228 343 228 343 208 449 c 0,96,97
 205 469 205 469 192.5 479 c 128,-1,98
 180 489 180 489 157 489 c 2,99,-1
 133 489 l 2,100,101
 134 488 134 488 135 485.5 c 128,-1,102
 136 483 136 483 137 481 c 0,103,104
 139 476 139 476 141.5 468.5 c 128,-1,105
 144 461 144 461 145 452 c 0,106,107
 148 439 148 439 150.5 422.5 c 128,-1,108
 153 406 153 406 154 386 c 0,109,110
 156 367 156 367 156 346.5 c 128,-1,111
 156 326 156 326 156 303 c 0,112,113
 156 265 156 265 154 228.5 c 128,-1,114
 152 192 152 192 147 157 c 0,115,116
 143 123 143 123 135.5 95 c 128,-1,117
 128 67 128 67 117 44 c 0,118,119
 107 22 107 22 94 11 c 128,-1,120
 81 0 81 0 64 0 c 2,121,-1
 50 0 l 2,122,123
 39 0 39 0 31.5 3 c 128,-1,124
 24 6 24 6 21 13 c 256,125,126
 18 20 18 20 16 31.5 c 128,-1,127
 14 43 14 43 14 60 c 1,128,-1
 42 60 l 1,129,-1
 42 60 l 1,0,1
EndSplineSet
Validated: 5
EndChar

StartChar: Y
Encoding: 59 123179 59
Width: 437
GlyphClass: 2
Flags: W
LayerCount: 2
Fore
SplineSet
219 0 m 1,0,1
 153 0 153 0 120 41.5 c 128,-1,2
 87 83 87 83 87 167 c 2,3,-1
 87 270 l 2,4,5
 87 347 87 347 112.5 401.5 c 128,-1,6
 138 456 138 456 189 489 c 1,7,-1
 70 489 l 2,8,9
 63 489 63 489 55 486 c 128,-1,10
 47 483 47 483 39 475 c 0,11,12
 30 468 30 468 24 459 c 128,-1,13
 18 450 18 450 14 439 c 1,14,15
 14 467 14 467 17 487.5 c 128,-1,16
 20 508 20 508 25 522 c 256,17,18
 30 536 30 536 41 543 c 128,-1,19
 52 550 52 550 70 550 c 2,20,-1
 353 550 l 1,21,22
 353 537 353 537 349.5 527.5 c 128,-1,23
 346 518 346 518 340 510 c 0,24,25
 333 503 333 503 326 497 c 128,-1,26
 319 491 319 491 310 487 c 0,27,28
 302 483 302 483 288 477.5 c 128,-1,29
 274 472 274 472 254 465 c 0,30,31
 234 457 234 457 216 441 c 128,-1,32
 198 425 198 425 183 401 c 256,33,34
 168 377 168 377 160.5 344.5 c 128,-1,35
 153 312 153 312 153 270 c 2,36,-1
 153 167 l 2,37,38
 153 143 153 143 155.5 124.5 c 128,-1,39
 158 106 158 106 164 95 c 0,40,41
 169 83 169 83 175.5 75.5 c 128,-1,42
 182 68 182 68 189 65 c 0,43,44
 194 63 194 63 199 62 c 128,-1,45
 204 61 204 61 209 60 c 0,46,47
 211 60 211 60 214 60 c 128,-1,48
 217 60 217 60 219 60 c 0,49,50
 236 60 236 60 249 64.5 c 128,-1,51
 262 69 262 69 272 78 c 0,52,53
 283 88 283 88 287.5 109 c 128,-1,54
 292 130 292 130 292 163 c 2,55,-1
 292 314 l 2,56,57
 292 339 292 339 287.5 360 c 128,-1,58
 283 381 283 381 274 400 c 0,59,60
 264 418 264 418 253 430.5 c 128,-1,61
 242 443 242 443 228 449 c 1,62,63
 260 449 260 449 283 440.5 c 128,-1,64
 306 432 306 432 322 415 c 0,65,66
 337 398 337 398 345 374 c 128,-1,67
 353 350 353 350 353 320 c 2,68,-1
 353 167 l 2,69,70
 353 142 353 142 349.5 120 c 128,-1,71
 346 98 346 98 339 79 c 256,72,73
 332 60 332 60 321 46 c 128,-1,74
 310 32 310 32 295 21 c 0,75,76
 280 11 280 11 261 5.5 c 128,-1,77
 242 0 242 0 219 0 c 1,78,-1
 219 0 l 1,0,1
EndSplineSet
Validated: 5
EndChar

StartChar: Z
Encoding: 60 123157 60
Width: 520
GlyphClass: 2
Flags: W
LayerCount: 2
Fore
SplineSet
340 193 m 1,0,-1
 372 193 l 2,1,2
 389 193 389 193 400.5 191 c 128,-1,3
 412 189 412 189 419 184 c 0,4,5
 426 180 426 180 430 170 c 128,-1,6
 434 160 434 160 435 145 c 2,7,-1
 435 113 l 2,8,9
 435 91 435 91 428.5 71 c 128,-1,10
 422 51 422 51 410 34 c 256,11,12
 398 17 398 17 377 8.5 c 128,-1,13
 356 0 356 0 327 0 c 0,14,15
 302 0 302 0 282.5 3 c 128,-1,16
 263 6 263 6 248 12 c 0,17,18
 234 19 234 19 223.5 26.5 c 128,-1,19
 213 34 213 34 206 43 c 0,20,21
 199 53 199 53 193.5 63.5 c 128,-1,22
 188 74 188 74 183 87 c 0,23,24
 177 103 177 103 168 116.5 c 128,-1,25
 159 130 159 130 146 140 c 0,26,27
 134 150 134 150 122 156 c 128,-1,28
 110 162 110 162 97 163 c 1,29,30
 91 151 91 151 88.5 134.5 c 128,-1,31
 86 118 86 118 86 97 c 0,32,33
 86 57 86 57 96.5 33 c 128,-1,34
 107 9 107 9 129 0 c 1,35,-1
 94 0 l 2,36,37
 78 0 78 0 65.5 2.5 c 128,-1,38
 53 5 53 5 45 9 c 0,39,40
 38 14 38 14 34 25 c 128,-1,41
 30 36 30 36 30 52 c 2,42,-1
 30 143 l 2,43,44
 31 162 31 162 37 179.5 c 128,-1,45
 43 197 43 197 53 212 c 0,46,47
 64 228 64 228 77.5 241 c 128,-1,48
 91 254 91 254 107 264 c 0,49,50
 123 275 123 275 140.5 284.5 c 128,-1,51
 158 294 158 294 177 302 c 0,52,53
 196 311 196 311 210 317 c 128,-1,54
 224 323 224 323 232 327 c 0,55,56
 270 343 270 343 297 356.5 c 128,-1,57
 324 370 324 370 339 382 c 256,58,59
 354 394 354 394 362 408.5 c 128,-1,60
 370 423 370 423 370 439 c 0,61,62
 370 464 370 464 352 476.5 c 128,-1,63
 334 489 334 489 298 489 c 2,64,-1
 179 489 l 2,65,66
 163 489 163 489 149 484 c 128,-1,67
 135 479 135 479 122 468 c 256,68,69
 109 457 109 457 102.5 445 c 128,-1,70
 96 433 96 433 96 419 c 0,71,72
 96 406 96 406 103.5 395 c 128,-1,73
 111 384 111 384 127 375 c 1,74,75
 123 374 123 374 117.5 374 c 128,-1,76
 112 374 112 374 104 374 c 0,77,78
 86 374 86 374 72.5 377 c 128,-1,79
 59 380 59 380 51 387 c 0,80,81
 42 394 42 394 37.5 405.5 c 128,-1,82
 33 417 33 417 34 433 c 2,83,-1
 34 495 l 2,84,85
 34 499 34 499 34 503.5 c 128,-1,86
 34 508 34 508 34 512 c 256,87,88
 34 516 34 516 33 520.5 c 128,-1,89
 32 525 32 525 30 530 c 256,90,91
 28 535 28 535 24 540 c 128,-1,92
 20 545 20 545 14 550 c 1,93,-1
 38 550 l 2,94,95
 51 550 51 550 61 548 c 128,-1,96
 71 546 71 546 78 543 c 256,97,98
 85 540 85 540 89 532.5 c 128,-1,99
 93 525 93 525 94 514 c 1,100,101
 102 532 102 532 124.5 541 c 128,-1,102
 147 550 147 550 183 550 c 2,103,-1
 314 550 l 2,104,105
 338 550 338 550 359 542.5 c 128,-1,106
 380 535 380 535 398 520 c 0,107,108
 416 506 416 506 425.5 485 c 128,-1,109
 435 464 435 464 435 437 c 0,110,111
 435 419 435 419 430.5 403.5 c 128,-1,112
 426 388 426 388 417 375 c 256,113,114
 408 362 408 362 397 350.5 c 128,-1,115
 386 339 386 339 373 331 c 0,116,117
 367 327 367 327 359.5 322.5 c 128,-1,118
 352 318 352 318 344 314 c 0,119,120
 335 309 335 309 326 305 c 128,-1,121
 317 301 317 301 306 296 c 0,122,123
 286 287 286 287 275.5 282.5 c 128,-1,124
 265 278 265 278 264 278 c 0,125,126
 227 263 227 263 195 246.5 c 128,-1,127
 163 230 163 230 137 212 c 1,128,129
 149 208 149 208 159.5 203 c 128,-1,130
 170 198 170 198 178 192 c 0,131,132
 181 190 181 190 183.5 188 c 128,-1,133
 186 186 186 186 188 184 c 0,134,135
 193 180 193 180 197 176.5 c 128,-1,136
 201 173 201 173 204 168 c 0,137,138
 209 162 209 162 213 156 c 128,-1,139
 217 150 217 150 220 145 c 0,140,141
 223 139 223 139 228 130.5 c 128,-1,142
 233 122 233 122 239 110 c 0,143,144
 247 96 247 96 255 86 c 128,-1,145
 263 76 263 76 270 70 c 0,146,147
 278 65 278 65 290.5 62.5 c 128,-1,148
 303 60 303 60 322 60 c 0,149,150
 339 60 339 60 350 64 c 128,-1,151
 361 68 361 68 365 75 c 0,152,153
 370 83 370 83 372.5 92 c 128,-1,154
 375 101 375 101 375 113 c 2,155,-1
 375 137 l 2,156,157
 375 147 375 147 373.5 154.5 c 128,-1,158
 372 162 372 162 369 169 c 256,159,160
 366 176 366 176 358.5 182 c 128,-1,161
 351 188 351 188 340 193 c 1,162,-1
 340 193 l 1,0,-1
EndSplineSet
Validated: 5
EndChar

StartChar: bracketleft
Encoding: 61 123178 61
Width: 419
GlyphClass: 2
Flags: W
LayerCount: 2
Fore
SplineSet
337 117 m 1,0,1
 342 105 342 105 344 94.5 c 128,-1,2
 346 84 346 84 346 73 c 0,3,4
 346 57 346 57 341.5 44 c 128,-1,5
 337 31 337 31 326 21 c 0,6,7
 316 12 316 12 304.5 7 c 128,-1,8
 293 2 293 2 280 2 c 0,9,10
 270 2 270 2 261.5 5 c 128,-1,11
 253 8 253 8 245 14 c 0,12,13
 242 16 242 16 239 18 c 128,-1,14
 236 20 236 20 233 21 c 0,15,16
 229 23 229 23 226 23.5 c 128,-1,17
 223 24 223 24 220 24 c 0,18,19
 216 24 216 24 211 22.5 c 128,-1,20
 206 21 206 21 202 18 c 0,21,22
 197 15 197 15 192.5 10.5 c 128,-1,23
 188 6 188 6 183 0 c 1,24,25
 153 0 153 0 138 13.5 c 128,-1,26
 123 27 123 27 123 54 c 2,27,-1
 123 489 l 1,28,29
 116 485 116 485 108.5 483 c 128,-1,30
 101 481 101 481 94 481 c 0,31,32
 90 481 90 481 85 482.5 c 128,-1,33
 80 484 80 484 75 485 c 0,34,35
 70 487 70 487 66 488 c 128,-1,36
 62 489 62 489 60 489 c 0,37,38
 49 489 49 489 37.5 483 c 128,-1,39
 26 477 26 477 14 465 c 1,40,41
 14 488 14 488 16 503.5 c 128,-1,42
 18 519 18 519 22 528 c 256,43,44
 26 537 26 537 36 542.5 c 128,-1,45
 46 548 46 548 62 550 c 0,46,47
 67 550 67 550 70.5 549 c 128,-1,48
 74 548 74 548 78 546 c 0,49,50
 82 545 82 545 85.5 544 c 128,-1,51
 89 543 89 543 93 543 c 0,52,53
 99 543 99 543 106.5 544.5 c 128,-1,54
 114 546 114 546 123 550 c 0,55,56
 128 551 128 551 132 551.5 c 128,-1,57
 136 552 136 552 138 552 c 0,58,59
 149 552 149 552 157 548.5 c 128,-1,60
 165 545 165 545 171 539 c 0,61,62
 177 532 177 532 180 523 c 128,-1,63
 183 514 183 514 183 502 c 2,64,-1
 183 304 l 1,65,-1
 258 304 l 2,66,67
 262 306 262 306 266 307 c 128,-1,68
 270 308 270 308 274 310 c 0,69,70
 277 311 277 311 280 312.5 c 128,-1,71
 283 314 283 314 286 315 c 0,72,73
 291 318 291 318 297 325 c 128,-1,74
 303 332 303 332 310 343 c 1,75,76
 310 318 310 318 307 299 c 128,-1,77
 304 280 304 280 298 268 c 256,78,79
 292 256 292 256 281 250.5 c 128,-1,80
 270 245 270 245 254 245 c 2,81,-1
 183 245 l 1,82,-1
 183 74 l 1,83,84
 192 80 192 80 203 83 c 128,-1,85
 214 86 214 86 226 86 c 0,86,87
 237 86 237 86 248.5 83 c 128,-1,88
 260 80 260 80 270 74 c 0,89,90
 274 72 274 72 278.5 71 c 128,-1,91
 283 70 283 70 289 70 c 0,92,93
 294 70 294 70 299 71.5 c 128,-1,94
 304 73 304 73 308 77 c 0,95,96
 313 81 313 81 316.5 85.5 c 128,-1,97
 320 90 320 90 323 95 c 0,98,99
 325 98 325 98 326.5 100.5 c 128,-1,100
 328 103 328 103 330 106 c 0,101,102
 332 108 332 108 333.5 111 c 128,-1,103
 335 114 335 114 337 117 c 1,104,-1
 337 117 l 1,0,1
EndSplineSet
Validated: 5
EndChar

StartChar: backslash
Encoding: 62 123163 62
Width: 514
GlyphClass: 2
Flags: W
LayerCount: 2
Fore
SplineSet
262 175 m 1,0,-1
 262 94 l 2,1,2
 260 47 260 47 229 23.5 c 128,-1,3
 198 0 198 0 139 0 c 0,4,5
 115 0 115 0 93 6 c 128,-1,6
 71 12 71 12 52 24 c 0,7,8
 33 37 33 37 23.5 58 c 128,-1,9
 14 79 14 79 14 110 c 2,10,-1
 14 272 l 2,11,12
 14 301 14 301 30 331.5 c 128,-1,13
 46 362 46 362 77 393 c 0,14,15
 95 410 95 410 104 425 c 128,-1,16
 113 440 113 440 113 455 c 0,17,18
 113 472 113 472 102 480.5 c 128,-1,19
 91 489 91 489 68 489 c 0,20,21
 59 488 59 488 51 486 c 128,-1,22
 43 484 43 484 37 480 c 256,23,24
 31 476 31 476 25 467.5 c 128,-1,25
 19 459 19 459 14 447 c 1,26,-1
 14 478 l 2,27,28
 14 498 14 498 17 511.5 c 128,-1,29
 20 525 20 525 26 533 c 256,30,31
 32 541 32 541 45 545.5 c 128,-1,32
 58 550 58 550 77 550 c 2,33,-1
 288 550 l 2,34,35
 305 550 305 550 321.5 546.5 c 128,-1,36
 338 543 338 543 354 536 c 0,37,38
 371 529 371 529 384.5 518.5 c 128,-1,39
 398 508 398 508 408 494 c 0,40,41
 419 481 419 481 424 463 c 128,-1,42
 429 445 429 445 429 425 c 2,43,-1
 429 60 l 2,44,45
 429 41 429 41 424.5 29 c 128,-1,46
 420 17 420 17 411 11 c 256,47,48
 402 5 402 5 388 2.5 c 128,-1,49
 374 0 374 0 356 0 c 2,50,-1
 322 0 l 1,51,52
 336 7 336 7 345.5 13 c 128,-1,53
 355 19 355 19 360 25 c 0,54,55
 365 30 365 30 367.5 38.5 c 128,-1,56
 370 47 370 47 370 58 c 2,57,-1
 370 419 l 2,58,59
 370 454 370 454 348 471.5 c 128,-1,60
 326 489 326 489 282 489 c 2,61,-1
 163 489 l 1,62,63
 168 480 168 480 171 471 c 128,-1,64
 174 462 174 462 174 451 c 0,65,66
 174 429 174 429 161.5 406 c 128,-1,67
 149 383 149 383 125 357 c 0,68,69
 110 342 110 342 100 330 c 128,-1,70
 90 318 90 318 85 309 c 0,71,72
 82 305 82 305 80 300 c 128,-1,73
 78 295 78 295 77 291 c 0,74,75
 75 286 75 286 74.5 281.5 c 128,-1,76
 74 277 74 277 74 272 c 2,77,-1
 74 110 l 2,78,79
 76 95 76 95 81 85 c 128,-1,80
 86 75 86 75 96 70 c 256,81,82
 106 65 106 65 116.5 62.5 c 128,-1,83
 127 60 127 60 137 60 c 0,84,85
 151 60 151 60 162 61.5 c 128,-1,86
 173 63 173 63 181 67 c 0,87,88
 189 72 189 72 194.5 80.5 c 128,-1,89
 200 89 200 89 202 103 c 2,90,-1
 202 169 l 2,91,92
 202 182 202 182 199 191.5 c 128,-1,93
 196 201 196 201 190 206 c 0,94,95
 183 212 183 212 172.5 215 c 128,-1,96
 162 218 162 218 147 218 c 1,97,98
 154 223 154 223 160.5 226.5 c 128,-1,99
 167 230 167 230 174 233 c 0,100,101
 180 235 180 235 186.5 236.5 c 128,-1,102
 193 238 193 238 200 238 c 0,103,104
 214 238 214 238 225 233.5 c 128,-1,105
 236 229 236 229 245 220 c 0,106,107
 254 212 254 212 258.5 200.5 c 128,-1,108
 263 189 263 189 262 175 c 1,109,-1
 262 175 l 1,0,-1
EndSplineSet
Validated: 5
EndChar

StartChar: bracketright
Encoding: 63 123152 63
Width: 500
GlyphClass: 2
Flags: W
LayerCount: 2
Fore
SplineSet
272 208 m 1,0,1
 266 214 266 214 263 221 c 128,-1,2
 260 228 260 228 260 236 c 0,3,4
 260 246 260 246 265 255 c 128,-1,5
 270 264 270 264 280 271 c 0,6,7
 290 279 290 279 300.5 283.5 c 128,-1,8
 311 288 311 288 322 288 c 0,9,10
 343 288 343 288 359.5 282.5 c 128,-1,11
 376 277 376 277 389 266 c 256,12,13
 402 255 402 255 408.5 238.5 c 128,-1,14
 415 222 415 222 415 199 c 2,15,-1
 415 93 l 2,16,17
 414 70 414 70 407.5 52 c 128,-1,18
 401 34 401 34 389 23 c 0,19,20
 376 11 376 11 359 5.5 c 128,-1,21
 342 0 342 0 320 0 c 2,22,-1
 272 0 l 2,23,24
 251 0 251 0 234.5 5.5 c 128,-1,25
 218 11 218 11 206 22 c 0,26,27
 194 34 194 34 187.5 49 c 128,-1,28
 181 64 181 64 179 83 c 0,29,30
 178 94 178 94 176.5 102.5 c 128,-1,31
 175 111 175 111 173 115 c 0,32,33
 170 120 170 120 164 122.5 c 128,-1,34
 158 125 158 125 147 125 c 2,35,-1
 117 125 l 2,36,37
 98 124 98 124 89 113.5 c 128,-1,38
 80 103 80 103 80 84 c 2,39,-1
 80 42 l 2,40,41
 80 29 80 29 88.5 18.5 c 128,-1,42
 97 8 97 8 114 0 c 1,43,44
 93 0 93 0 77.5 1 c 128,-1,45
 62 2 62 2 52 4 c 256,46,47
 42 6 42 6 35.5 11 c 128,-1,48
 29 16 29 16 25 23 c 256,49,50
 21 30 21 30 19.5 41 c 128,-1,51
 18 52 18 52 18 68 c 2,52,-1
 18 419 l 2,53,54
 18 451 18 451 27.5 475.5 c 128,-1,55
 37 500 37 500 56 516 c 0,56,57
 76 533 76 533 99 541.5 c 128,-1,58
 122 550 122 550 147 550 c 2,59,-1
 294 550 l 2,60,61
 304 550 304 550 313.5 548 c 128,-1,62
 323 546 323 546 332 543 c 0,63,64
 337 541 337 541 341.5 539 c 128,-1,65
 346 537 346 537 351 535 c 0,66,67
 365 529 365 529 376 519.5 c 128,-1,68
 387 510 387 510 396 498 c 0,69,70
 406 485 406 485 410.5 470 c 128,-1,71
 415 455 415 455 415 437 c 0,72,73
 415 423 415 423 410.5 413.5 c 128,-1,74
 406 404 406 404 398 399 c 0,75,76
 389 394 389 394 375.5 391.5 c 128,-1,77
 362 389 362 389 343 389 c 1,78,79
 349 394 349 394 352.5 401.5 c 128,-1,80
 356 409 356 409 356 419 c 0,81,82
 356 422 356 422 355.5 426.5 c 128,-1,83
 355 431 355 431 354 437 c 0,84,85
 354 451 354 451 349.5 461 c 128,-1,86
 345 471 345 471 335 477 c 0,87,88
 326 483 326 483 317 486 c 128,-1,89
 308 489 308 489 300 489 c 2,90,-1
 153 489 l 2,91,92
 116 486 116 486 98 468.5 c 128,-1,93
 80 451 80 451 80 419 c 2,94,-1
 80 175 l 2,95,96
 82 180 82 180 90 182.5 c 128,-1,97
 98 185 98 185 114 185 c 2,98,-1
 147 185 l 2,99,100
 166 185 166 185 182 179 c 128,-1,101
 198 173 198 173 211 162 c 0,102,103
 225 150 225 150 231.5 133.5 c 128,-1,104
 238 117 238 117 238 94 c 0,105,106
 238 84 238 84 240.5 76 c 128,-1,107
 243 68 243 68 247 63 c 0,108,109
 252 59 252 59 260 56.5 c 128,-1,110
 268 54 268 54 280 54 c 2,111,-1
 312 54 l 2,112,113
 333 54 333 54 343.5 64 c 128,-1,114
 354 74 354 74 354 94 c 2,115,-1
 354 199 l 2,116,117
 354 216 354 216 344.5 224 c 128,-1,118
 335 232 335 232 316 232 c 0,119,120
 308 232 308 232 300.5 230.5 c 128,-1,121
 293 229 293 229 286 225 c 0,122,123
 280 221 280 221 276.5 217 c 128,-1,124
 273 213 273 213 272 208 c 1,125,-1
 272 208 l 1,0,1
EndSplineSet
Validated: 5
EndChar

StartChar: asciicircum
Encoding: 64 123192 64
Width: 324
GlyphClass: 2
Flags: W
LayerCount: 2
Fore
SplineSet
72 354 m 1,0,1
 43 354 43 354 28.5 366 c 128,-1,2
 14 378 14 378 14 403 c 1,3,4
 38 403 38 403 60 410.5 c 128,-1,5
 82 418 82 418 102 434 c 0,6,7
 122 451 122 451 141 479.5 c 128,-1,8
 160 508 160 508 177 550 c 1,9,-1
 238 550 l 1,10,-1
 238 274 l 1,11,-1
 177 274 l 1,12,-1
 177 427 l 1,13,14
 164 409 164 409 152 396 c 128,-1,15
 140 383 140 383 129 375 c 256,16,17
 118 367 118 367 104 361.5 c 128,-1,18
 90 356 90 356 72 354 c 1,19,-1
 72 354 l 1,0,1
EndSplineSet
Validated: 5
EndChar

StartChar: underscore
Encoding: 65 123197 65
Width: 554
GlyphClass: 2
Flags: W
LayerCount: 2
Fore
SplineSet
488 0 m 1,0,1
 463 0 463 0 445.5 0.5 c 128,-1,2
 428 1 428 1 418 2 c 0,3,4
 408 4 408 4 402 8 c 128,-1,5
 396 12 396 12 392 19 c 0,6,7
 388 25 388 25 386.5 36.5 c 128,-1,8
 385 48 385 48 385 64 c 2,9,-1
 385 193 l 2,10,11
 385 219 385 219 370.5 232 c 128,-1,12
 356 245 356 245 327 245 c 0,13,14
 314 245 314 245 303.5 242 c 128,-1,15
 293 239 293 239 286 234 c 256,16,17
 279 229 279 229 275.5 218.5 c 128,-1,18
 272 208 272 208 272 193 c 2,19,-1
 272 38 l 2,20,21
 272 29 272 29 269.5 22 c 128,-1,22
 267 15 267 15 261 10 c 0,23,24
 256 5 256 5 248.5 2.5 c 128,-1,25
 241 0 241 0 232 0 c 2,26,-1
 94 0 l 2,27,28
 83 0 83 0 75 1.5 c 128,-1,29
 67 3 67 3 64 7 c 0,30,31
 61 12 61 12 58.5 19.5 c 128,-1,32
 56 27 56 27 54 38 c 2,33,-1
 54 502 l 2,34,35
 54 513 54 513 52.5 520 c 128,-1,36
 51 527 51 527 46 531 c 0,37,38
 42 535 42 535 34 539.5 c 128,-1,39
 26 544 26 544 14 550 c 1,40,41
 42 550 42 550 61 548 c 128,-1,42
 80 546 80 546 92 541 c 0,43,44
 103 537 103 537 108.5 526 c 128,-1,45
 114 515 114 515 114 498 c 2,46,-1
 114 60 l 1,47,-1
 212 60 l 1,48,-1
 212 189 l 2,49,50
 212 223 212 223 221.5 245.5 c 128,-1,51
 231 268 231 268 249 280 c 0,52,53
 268 292 268 292 286.5 298 c 128,-1,54
 305 304 305 304 324 304 c 0,55,56
 346 304 346 304 366.5 298.5 c 128,-1,57
 387 293 387 293 406 281 c 0,58,59
 426 270 426 270 435.5 247.5 c 128,-1,60
 445 225 445 225 445 193 c 2,61,-1
 445 58 l 2,62,63
 445 47 445 47 447.5 38.5 c 128,-1,64
 450 30 450 30 454 24 c 0,65,66
 459 18 459 18 467.5 12 c 128,-1,67
 476 6 476 6 488 0 c 1,68,-1
 488 0 l 1,0,1
EndSplineSet
Validated: 5
EndChar

StartChar: grave
Encoding: 66 92 66
Width: 183
GlyphClass: 2
Flags: W
LayerCount: 2
Fore
SplineSet
93 552 m 1,0,1
 92 540 92 540 89.5 530.5 c 128,-1,2
 87 521 87 521 82 514 c 256,3,4
 77 507 77 507 71.5 503.5 c 128,-1,5
 66 500 66 500 60 500 c 0,6,7
 53 500 53 500 47.5 503.5 c 128,-1,8
 42 507 42 507 37 514 c 0,9,10
 33 521 33 521 29.5 530.5 c 128,-1,11
 26 540 26 540 24 552 c 2,12,-1
 20 675 l 2,13,14
 20 681 20 681 22.5 685.5 c 128,-1,15
 25 690 25 690 31 694 c 0,16,17
 37 697 37 697 44 698.5 c 128,-1,18
 51 700 51 700 59 700 c 256,19,20
 67 700 67 700 74 698.5 c 128,-1,21
 81 697 81 697 86 694 c 0,22,23
 92 691 92 691 94.5 686 c 128,-1,24
 97 681 97 681 97 675 c 2,25,-1
 93 552 l 1,26,-1
 93 552 l 1,0,1
EndSplineSet
Validated: 5
EndChar

StartChar: a
Encoding: 67 123190 67
Width: 0
GlyphClass: 2
Flags: W
LayerCount: 2
Fore
SplineSet
-312 893 m 1,0,1
 -311 901 -311 901 -308 908.5 c 128,-1,2
 -305 916 -305 916 -299 920 c 0,3,4
 -293 925 -293 925 -285.5 927.5 c 128,-1,5
 -278 930 -278 930 -270 930 c 256,6,7
 -262 930 -262 930 -254.5 927.5 c 128,-1,8
 -247 925 -247 925 -241 920 c 0,9,10
 -235 916 -235 916 -231.5 908.5 c 128,-1,11
 -228 901 -228 901 -228 893 c 2,12,-1
 -238 827 l 1,13,14
 -231 827 -231 827 -225.5 826.5 c 128,-1,15
 -220 826 -220 826 -215 825 c 0,16,17
 -210 823 -210 823 -204.5 821.5 c 128,-1,18
 -199 820 -199 820 -193 817 c 0,19,20
 -183 812 -183 812 -174 803.5 c 128,-1,21
 -165 795 -165 795 -158 784 c 0,22,23
 -151 774 -151 774 -147.5 760 c 128,-1,24
 -144 746 -144 746 -144 729 c 0,25,26
 -144 704 -144 704 -152.5 685 c 128,-1,27
 -161 666 -161 666 -178 654 c 256,28,29
 -195 642 -195 642 -217 635.5 c 128,-1,30
 -239 629 -239 629 -267 629 c 0,31,32
 -292 629 -292 629 -314 635.5 c 128,-1,33
 -336 642 -336 642 -355 655 c 0,34,35
 -375 667 -375 667 -384.5 685.5 c 128,-1,36
 -394 704 -394 704 -394 729 c 256,37,38
 -394 754 -394 754 -386.5 772 c 128,-1,39
 -379 790 -379 790 -365 803 c 0,40,41
 -351 815 -351 815 -335 821 c 128,-1,42
 -319 827 -319 827 -301 827 c 1,43,-1
 -312 893 l 1,44,-1
 -312 893 l 1,0,1
-294 774 m 2,45,46
 -306 774 -306 774 -314 771 c 128,-1,47
 -322 768 -322 768 -326 762 c 256,48,49
 -330 756 -330 756 -331.5 748 c 128,-1,50
 -333 740 -333 740 -333 729 c 0,51,52
 -333 709 -333 709 -316.5 699 c 128,-1,53
 -300 689 -300 689 -267 689 c 0,54,55
 -236 689 -236 689 -220 699 c 128,-1,56
 -204 709 -204 709 -204 729 c 0,57,58
 -204 740 -204 740 -205.5 748.5 c 128,-1,59
 -207 757 -207 757 -210 763 c 0,60,61
 -214 768 -214 768 -222.5 771 c 128,-1,62
 -231 774 -231 774 -244 774 c 1,63,64
 -244 768 -244 768 -245.5 763 c 128,-1,65
 -247 758 -247 758 -251 754 c 256,66,67
 -255 750 -255 750 -259.5 748.5 c 128,-1,68
 -264 747 -264 747 -269 747 c 256,69,70
 -274 747 -274 747 -278 748.5 c 128,-1,71
 -282 750 -282 750 -286 754 c 256,72,73
 -290 758 -290 758 -291.5 763 c 128,-1,74
 -293 768 -293 768 -293 774 c 1,75,-1
 -294 774 l 2,45,46
EndSplineSet
Validated: 5
EndChar

StartChar: b
Encoding: 68 8594 68
Width: 495
GlyphClass: 2
Flags: W
LayerCount: 2
Fore
SplineSet
114 354 m 1,0,1
 112 354 112 354 107 354 c 128,-1,2
 102 354 102 354 96 354 c 256,3,4
 90 354 90 354 85.5 354 c 128,-1,5
 81 354 81 354 77 354 c 0,6,7
 62 354 62 354 50 357 c 128,-1,8
 38 360 38 360 30 366 c 0,9,10
 23 372 23 372 18.5 384 c 128,-1,11
 14 396 14 396 14 415 c 2,12,-1
 14 455 l 1,13,14
 21 502 21 502 49.5 526 c 128,-1,15
 78 550 78 550 129 550 c 2,16,-1
 290 550 l 2,17,18
 349 548 349 548 379 518 c 128,-1,19
 409 488 409 488 409 429 c 2,20,-1
 409 50 l 2,21,22
 409 38 409 38 405 28.5 c 128,-1,23
 401 19 401 19 393 13 c 0,24,25
 385 6 385 6 374.5 3 c 128,-1,26
 364 0 364 0 350 0 c 1,27,28
 351 0 351 0 349 4 c 128,-1,29
 347 8 347 8 342 16 c 256,30,31
 337 24 337 24 330 31.5 c 128,-1,32
 323 39 323 39 314 46 c 0,33,34
 306 53 306 53 296 56.5 c 128,-1,35
 286 60 286 60 274 60 c 2,36,-1
 149 60 l 2,37,38
 138 60 138 60 128 57 c 128,-1,39
 118 54 118 54 110 49 c 0,40,41
 101 43 101 43 94.5 37 c 128,-1,42
 88 31 88 31 83 23 c 0,43,44
 79 16 79 16 76.5 10.5 c 128,-1,45
 74 5 74 5 74 0 c 1,46,47
 61 0 61 0 49.5 3.5 c 128,-1,48
 38 7 38 7 30 14 c 0,49,50
 23 22 23 22 18.5 31 c 128,-1,51
 14 40 14 40 14 50 c 2,52,-1
 14 175 l 2,53,54
 14 192 14 192 16 203.5 c 128,-1,55
 18 215 18 215 21 222 c 0,56,57
 25 230 25 230 31 234.5 c 128,-1,58
 37 239 37 239 45 241 c 0,59,60
 54 243 54 243 68 244 c 128,-1,61
 82 245 82 245 102 245 c 2,62,-1
 133 245 l 1,63,64
 114 238 114 238 102.5 230.5 c 128,-1,65
 91 223 91 223 85 216 c 0,66,67
 80 210 80 210 77 199.5 c 128,-1,68
 74 189 74 189 74 175 c 2,69,-1
 74 93 l 1,70,71
 91 107 91 107 109.5 113.5 c 128,-1,72
 128 120 128 120 147 120 c 2,73,-1
 280 120 l 2,74,75
 285 120 285 120 290 119.5 c 128,-1,76
 295 119 295 119 300 117 c 0,77,78
 302 117 302 117 305 116 c 128,-1,79
 308 115 308 115 310 114 c 0,80,81
 318 111 318 111 325 108 c 128,-1,82
 332 105 332 105 338 101 c 256,83,84
 344 97 344 97 347 95 c 128,-1,85
 350 93 350 93 350 93 c 1,86,-1
 350 423 l 2,87,88
 350 456 350 456 333.5 472.5 c 128,-1,89
 317 489 317 489 284 489 c 2,90,-1
 120 489 l 2,91,92
 109 489 109 489 100.5 486.5 c 128,-1,93
 92 484 92 484 86 479 c 256,94,95
 80 474 80 474 77 467 c 128,-1,96
 74 460 74 460 74 452 c 2,97,-1
 74 409 l 2,98,99
 74 390 74 390 84 376.5 c 128,-1,100
 94 363 94 363 114 354 c 1,101,-1
 114 354 l 1,0,1
EndSplineSet
Validated: 5
EndChar

StartChar: c
Encoding: 69 103 69
Width: 528
GlyphClass: 2
Flags: W
LayerCount: 2
Fore
SplineSet
133 208 m 1,0,1
 118 203 118 203 107 198 c 128,-1,2
 96 193 96 193 88 188 c 0,3,4
 81 183 81 183 77.5 174.5 c 128,-1,5
 74 166 74 166 74 155 c 2,6,-1
 74 120 l 2,7,8
 74 101 74 101 80 88.5 c 128,-1,9
 86 76 86 76 97 71 c 0,10,11
 108 65 108 65 122.5 62.5 c 128,-1,12
 137 60 137 60 153 60 c 0,13,14
 170 60 170 60 183 62.5 c 128,-1,15
 196 65 196 65 206 70 c 0,16,17
 215 76 215 76 220 89 c 128,-1,18
 225 102 225 102 225 123 c 2,19,-1
 225 258 l 2,20,21
 225 272 225 272 221.5 285 c 128,-1,22
 218 298 218 298 211 308 c 0,23,24
 204 319 204 319 188 324.5 c 128,-1,25
 172 330 172 330 147 330 c 2,26,-1
 83 330 l 2,27,28
 65 330 65 330 52 327 c 128,-1,29
 39 324 39 324 31 318 c 256,30,31
 23 312 23 312 18.5 307 c 128,-1,32
 14 302 14 302 14 298 c 2,33,-1
 14 495 l 2,34,35
 14 512 14 512 19 523 c 128,-1,36
 24 534 24 534 33 539 c 0,37,38
 43 544 43 544 56 547 c 128,-1,39
 69 550 69 550 85 550 c 2,40,-1
 113 550 l 1,41,42
 94 541 94 541 84 526 c 128,-1,43
 74 511 74 511 74 489 c 2,44,-1
 74 387 l 1,45,46
 79 388 79 388 89.5 388.5 c 128,-1,47
 100 389 100 389 117 389 c 2,48,-1
 167 389 l 1,49,-1
 167 435 l 2,50,51
 167 455 167 455 172.5 471 c 128,-1,52
 178 487 178 487 188 500 c 0,53,54
 198 514 198 514 210.5 523 c 128,-1,55
 223 532 223 532 239 538 c 256,56,57
 255 544 255 544 270.5 547 c 128,-1,58
 286 550 286 550 302 550 c 0,59,60
 316 550 316 550 330.5 548 c 128,-1,61
 345 546 345 546 361 541 c 0,62,63
 376 537 376 537 390 527.5 c 128,-1,64
 404 518 404 518 416 504 c 0,65,66
 429 490 429 490 435.5 470.5 c 128,-1,67
 442 451 442 451 443 425 c 2,68,-1
 443 54 l 2,69,70
 443 37 443 37 438.5 25.5 c 128,-1,71
 434 14 434 14 426 9 c 0,72,73
 419 4 419 4 406.5 2 c 128,-1,74
 394 0 394 0 377 0 c 0,75,76
 375 0 375 0 370.5 0 c 128,-1,77
 366 0 366 0 360 0 c 0,78,79
 355 0 355 0 350.5 0 c 128,-1,80
 346 0 346 0 343 0 c 1,81,82
 361 8 361 8 370 22.5 c 128,-1,83
 379 37 379 37 379 58 c 2,84,-1
 379 415 l 2,85,86
 379 434 379 434 375 448 c 128,-1,87
 371 462 371 462 362 471 c 256,88,89
 353 480 353 480 338 484.5 c 128,-1,90
 323 489 323 489 302 489 c 0,91,92
 265 489 265 489 246.5 474 c 128,-1,93
 228 459 228 459 228 429 c 2,94,-1
 228 379 l 1,95,96
 245 369 245 369 256 357 c 128,-1,97
 267 345 267 345 273 330 c 0,98,99
 279 316 279 316 281.5 299.5 c 128,-1,100
 284 283 284 283 284 264 c 2,101,-1
 284 127 l 2,102,103
 284 91 284 91 275.5 66 c 128,-1,104
 267 41 267 41 249 27 c 0,105,106
 232 14 232 14 207 7 c 128,-1,107
 182 0 182 0 149 0 c 0,108,109
 126 0 126 0 107 3 c 128,-1,110
 88 6 88 6 73 12 c 0,111,112
 58 19 58 19 47 29 c 128,-1,113
 36 39 36 39 29 53 c 256,114,115
 22 67 22 67 18 86 c 128,-1,116
 14 105 14 105 14 127 c 2,117,-1
 14 155 l 2,118,119
 15 171 15 171 20 183.5 c 128,-1,120
 25 196 25 196 35 205 c 256,121,122
 45 214 45 214 56.5 218 c 128,-1,123
 68 222 68 222 83 222 c 0,124,125
 96 222 96 222 108.5 218.5 c 128,-1,126
 121 215 121 215 133 208 c 1,127,-1
 133 208 l 1,0,1
EndSplineSet
Validated: 5
EndChar

StartChar: d
Encoding: 70 123151 70
Width: 504
GlyphClass: 2
Flags: W
LayerCount: 2
Fore
SplineSet
425 350 m 1,0,1
 421 349 421 349 415 349 c 128,-1,2
 409 349 409 349 403 349 c 0,3,4
 384 349 384 349 371.5 353 c 128,-1,5
 359 357 359 357 352 365 c 256,6,7
 345 373 345 373 341 389 c 128,-1,8
 337 405 337 405 337 427 c 0,9,10
 337 442 337 442 332.5 453.5 c 128,-1,11
 328 465 328 465 320 473 c 0,12,13
 311 481 311 481 299.5 485 c 128,-1,14
 288 489 288 489 274 489 c 2,15,-1
 149 489 l 2,16,17
 113 486 113 486 95 468.5 c 128,-1,18
 77 451 77 451 77 419 c 2,19,-1
 77 135 l 2,20,21
 77 98 77 98 97 79 c 128,-1,22
 117 60 117 60 157 60 c 2,23,-1
 258 60 l 2,24,25
 273 60 273 60 286.5 64.5 c 128,-1,26
 300 69 300 69 310 78 c 256,27,28
 320 87 320 87 326 99.5 c 128,-1,29
 332 112 332 112 333 127 c 2,30,-1
 333 185 l 2,31,32
 333 205 333 205 322 221 c 128,-1,33
 311 237 311 237 290 250 c 1,34,35
 308 250 308 250 322.5 248.5 c 128,-1,36
 337 247 337 247 347 245 c 0,37,38
 358 243 358 243 366 238 c 128,-1,39
 374 233 374 233 380 225 c 0,40,41
 387 218 387 218 390 206 c 128,-1,42
 393 194 393 194 393 177 c 2,43,-1
 393 84 l 2,44,45
 393 57 393 57 404 36 c 128,-1,46
 415 15 415 15 437 0 c 1,47,-1
 405 0 l 2,48,49
 390 0 390 0 380 1 c 128,-1,50
 370 2 370 2 364 5 c 256,51,52
 358 8 358 8 353 15 c 128,-1,53
 348 22 348 22 344 32 c 1,54,55
 328 16 328 16 308 8 c 128,-1,56
 288 0 288 0 262 0 c 2,57,-1
 135 0 l 1,58,59
 98 4 98 4 73 15.5 c 128,-1,60
 48 27 48 27 37 46 c 0,61,62
 26 66 26 66 20 87.5 c 128,-1,63
 14 109 14 109 14 133 c 2,64,-1
 14 419 l 2,65,66
 14 450 14 450 24.5 474 c 128,-1,67
 35 498 35 498 55 515 c 256,68,69
 75 532 75 532 97.5 541 c 128,-1,70
 120 550 120 550 145 550 c 2,71,-1
 280 550 l 2,72,73
 294 550 294 550 308.5 546.5 c 128,-1,74
 323 543 323 543 337 535 c 0,75,76
 351 528 351 528 362 517 c 128,-1,77
 373 506 373 506 381 492 c 256,78,79
 389 478 389 478 393 461.5 c 128,-1,80
 397 445 397 445 397 425 c 0,81,82
 397 409 397 409 398.5 396.5 c 128,-1,83
 400 384 400 384 403 376 c 256,84,85
 406 368 406 368 411.5 361.5 c 128,-1,86
 417 355 417 355 425 350 c 1,87,-1
 425 350 l 1,0,1
EndSplineSet
Validated: 5
EndChar

StartChar: e
Encoding: 71 123172 71
Width: 393
GlyphClass: 2
Flags: W
LayerCount: 2
Fore
SplineSet
104 360 m 1,0,1
 85 360 85 360 70.5 360.5 c 128,-1,2
 56 361 56 361 48 362 c 0,3,4
 40 364 40 364 33.5 367.5 c 128,-1,5
 27 371 27 371 23 376 c 0,6,7
 19 382 19 382 16.5 391.5 c 128,-1,8
 14 401 14 401 14 415 c 2,9,-1
 14 445 l 2,10,11
 14 472 14 472 22.5 492 c 128,-1,12
 31 512 31 512 47 524 c 0,13,14
 64 537 64 537 83 543.5 c 128,-1,15
 102 550 102 550 125 550 c 2,16,-1
 199 550 l 2,17,18
 223 550 223 550 242.5 542.5 c 128,-1,19
 262 535 262 535 277 520 c 0,20,21
 292 506 292 506 300 485 c 128,-1,22
 308 464 308 464 308 437 c 2,23,-1
 308 62 l 2,24,25
 308 43 308 43 300.5 30.5 c 128,-1,26
 293 18 293 18 279 12 c 256,27,28
 265 6 265 6 247 3 c 128,-1,29
 229 0 229 0 207 0 c 2,30,-1
 175 0 l 1,31,32
 195 5 195 5 209 13 c 128,-1,33
 223 21 223 21 232 30 c 256,34,35
 241 39 241 39 245.5 52.5 c 128,-1,36
 250 66 250 66 250 84 c 2,37,-1
 250 429 l 2,38,39
 248 459 248 459 235 474 c 128,-1,40
 222 489 222 489 199 489 c 2,41,-1
 123 489 l 2,42,43
 113 489 113 489 104 486 c 128,-1,44
 95 483 95 483 87 477 c 0,45,46
 80 471 80 471 77 461 c 128,-1,47
 74 451 74 451 74 437 c 2,48,-1
 74 415 l 2,49,50
 74 402 74 402 76 392.5 c 128,-1,51
 78 383 78 383 81 378 c 0,52,53
 85 373 85 373 91 368.5 c 128,-1,54
 97 364 97 364 104 360 c 1,55,-1
 104 360 l 1,0,1
EndSplineSet
Validated: 5
EndChar

StartChar: f
Encoding: 72 123164 72
Width: 495
GlyphClass: 2
Flags: W
LayerCount: 2
Fore
SplineSet
114 354 m 1,0,1
 112 354 112 354 107 354 c 128,-1,2
 102 354 102 354 96 354 c 256,3,4
 90 354 90 354 85.5 354 c 128,-1,5
 81 354 81 354 77 354 c 0,6,7
 62 354 62 354 50 357 c 128,-1,8
 38 360 38 360 30 366 c 0,9,10
 23 372 23 372 18.5 384 c 128,-1,11
 14 396 14 396 14 415 c 2,12,-1
 14 455 l 1,13,14
 21 502 21 502 49.5 526 c 128,-1,15
 78 550 78 550 129 550 c 2,16,-1
 290 550 l 2,17,18
 349 548 349 548 379 518 c 128,-1,19
 409 488 409 488 409 429 c 2,20,-1
 409 50 l 2,21,22
 409 38 409 38 405 28.5 c 128,-1,23
 401 19 401 19 393 13 c 0,24,25
 385 6 385 6 374.5 3 c 128,-1,26
 364 0 364 0 350 0 c 1,27,28
 351 0 351 0 349 4 c 128,-1,29
 347 8 347 8 342 16 c 256,30,31
 337 24 337 24 330 31.5 c 128,-1,32
 323 39 323 39 314 46 c 0,33,34
 306 53 306 53 296 56.5 c 128,-1,35
 286 60 286 60 274 60 c 2,36,-1
 149 60 l 2,37,38
 138 60 138 60 128 57 c 128,-1,39
 118 54 118 54 110 49 c 0,40,41
 101 43 101 43 94.5 37 c 128,-1,42
 88 31 88 31 83 23 c 0,43,44
 79 16 79 16 76.5 10.5 c 128,-1,45
 74 5 74 5 74 0 c 1,46,47
 61 0 61 0 49.5 3.5 c 128,-1,48
 38 7 38 7 30 14 c 0,49,50
 23 22 23 22 18.5 31 c 128,-1,51
 14 40 14 40 14 50 c 2,52,-1
 14 175 l 2,53,54
 14 192 14 192 16 203.5 c 128,-1,55
 18 215 18 215 21 222 c 0,56,57
 25 230 25 230 31 234.5 c 128,-1,58
 37 239 37 239 45 241 c 0,59,60
 54 243 54 243 68 244 c 128,-1,61
 82 245 82 245 102 245 c 2,62,-1
 133 245 l 1,63,64
 114 238 114 238 102.5 230.5 c 128,-1,65
 91 223 91 223 85 216 c 0,66,67
 80 210 80 210 77 199.5 c 128,-1,68
 74 189 74 189 74 175 c 2,69,-1
 74 93 l 1,70,71
 91 107 91 107 109.5 113.5 c 128,-1,72
 128 120 128 120 147 120 c 2,73,-1
 280 120 l 2,74,75
 285 120 285 120 290 119.5 c 128,-1,76
 295 119 295 119 300 117 c 0,77,78
 302 117 302 117 305 116 c 128,-1,79
 308 115 308 115 310 114 c 0,80,81
 318 111 318 111 325 108 c 128,-1,82
 332 105 332 105 338 101 c 256,83,84
 344 97 344 97 347 95 c 128,-1,85
 350 93 350 93 350 93 c 1,86,-1
 350 423 l 2,87,88
 350 456 350 456 333.5 472.5 c 128,-1,89
 317 489 317 489 284 489 c 2,90,-1
 120 489 l 2,91,92
 109 489 109 489 100.5 486.5 c 128,-1,93
 92 484 92 484 86 479 c 256,94,95
 80 474 80 474 77 467 c 128,-1,96
 74 460 74 460 74 452 c 2,97,-1
 74 409 l 2,98,99
 74 390 74 390 84 376.5 c 128,-1,100
 94 363 94 363 114 354 c 1,101,-1
 114 354 l 1,0,1
EndSplineSet
Validated: 5
EndChar

StartChar: g
Encoding: 73 123144 73
Width: 528
GlyphClass: 2
Flags: W
LayerCount: 2
Fore
SplineSet
133 208 m 1,0,1
 118 203 118 203 107 198 c 128,-1,2
 96 193 96 193 88 188 c 0,3,4
 81 183 81 183 77.5 174.5 c 128,-1,5
 74 166 74 166 74 155 c 2,6,-1
 74 120 l 2,7,8
 74 101 74 101 80 88.5 c 128,-1,9
 86 76 86 76 97 71 c 0,10,11
 108 65 108 65 122.5 62.5 c 128,-1,12
 137 60 137 60 153 60 c 0,13,14
 170 60 170 60 183 62.5 c 128,-1,15
 196 65 196 65 206 70 c 0,16,17
 215 76 215 76 220 89 c 128,-1,18
 225 102 225 102 225 123 c 2,19,-1
 225 258 l 2,20,21
 225 272 225 272 221.5 285 c 128,-1,22
 218 298 218 298 211 308 c 0,23,24
 204 319 204 319 188 324.5 c 128,-1,25
 172 330 172 330 147 330 c 2,26,-1
 83 330 l 2,27,28
 65 330 65 330 52 327 c 128,-1,29
 39 324 39 324 31 318 c 256,30,31
 23 312 23 312 18.5 307 c 128,-1,32
 14 302 14 302 14 298 c 2,33,-1
 14 495 l 2,34,35
 14 512 14 512 19 523 c 128,-1,36
 24 534 24 534 33 539 c 0,37,38
 43 544 43 544 56 547 c 128,-1,39
 69 550 69 550 85 550 c 2,40,-1
 113 550 l 1,41,42
 94 541 94 541 84 526 c 128,-1,43
 74 511 74 511 74 489 c 2,44,-1
 74 387 l 1,45,46
 79 388 79 388 89.5 388.5 c 128,-1,47
 100 389 100 389 117 389 c 2,48,-1
 167 389 l 1,49,-1
 167 435 l 2,50,51
 167 455 167 455 172.5 471 c 128,-1,52
 178 487 178 487 188 500 c 0,53,54
 198 514 198 514 210.5 523 c 128,-1,55
 223 532 223 532 239 538 c 256,56,57
 255 544 255 544 270.5 547 c 128,-1,58
 286 550 286 550 302 550 c 0,59,60
 316 550 316 550 330.5 548 c 128,-1,61
 345 546 345 546 361 541 c 0,62,63
 376 537 376 537 390 527.5 c 128,-1,64
 404 518 404 518 416 504 c 0,65,66
 429 490 429 490 435.5 470.5 c 128,-1,67
 442 451 442 451 443 425 c 2,68,-1
 443 54 l 2,69,70
 443 37 443 37 438.5 25.5 c 128,-1,71
 434 14 434 14 426 9 c 0,72,73
 419 4 419 4 406.5 2 c 128,-1,74
 394 0 394 0 377 0 c 0,75,76
 375 0 375 0 370.5 0 c 128,-1,77
 366 0 366 0 360 0 c 0,78,79
 355 0 355 0 350.5 0 c 128,-1,80
 346 0 346 0 343 0 c 1,81,82
 361 8 361 8 370 22.5 c 128,-1,83
 379 37 379 37 379 58 c 2,84,-1
 379 415 l 2,85,86
 379 434 379 434 375 448 c 128,-1,87
 371 462 371 462 362 471 c 256,88,89
 353 480 353 480 338 484.5 c 128,-1,90
 323 489 323 489 302 489 c 0,91,92
 265 489 265 489 246.5 474 c 128,-1,93
 228 459 228 459 228 429 c 2,94,-1
 228 379 l 1,95,96
 245 369 245 369 256 357 c 128,-1,97
 267 345 267 345 273 330 c 0,98,99
 279 316 279 316 281.5 299.5 c 128,-1,100
 284 283 284 283 284 264 c 2,101,-1
 284 127 l 2,102,103
 284 91 284 91 275.5 66 c 128,-1,104
 267 41 267 41 249 27 c 0,105,106
 232 14 232 14 207 7 c 128,-1,107
 182 0 182 0 149 0 c 0,108,109
 126 0 126 0 107 3 c 128,-1,110
 88 6 88 6 73 12 c 0,111,112
 58 19 58 19 47 29 c 128,-1,113
 36 39 36 39 29 53 c 256,114,115
 22 67 22 67 18 86 c 128,-1,116
 14 105 14 105 14 127 c 2,117,-1
 14 155 l 2,118,119
 15 171 15 171 20 183.5 c 128,-1,120
 25 196 25 196 35 205 c 256,121,122
 45 214 45 214 56.5 218 c 128,-1,123
 68 222 68 222 83 222 c 0,124,125
 96 222 96 222 108.5 218.5 c 128,-1,126
 121 215 121 215 133 208 c 1,127,-1
 133 208 l 1,0,1
EndSplineSet
Validated: 5
EndChar

StartChar: h
Encoding: 74 123140 74
Width: 522
GlyphClass: 2
Flags: W
LayerCount: 2
Fore
SplineSet
113 215 m 1,0,1
 94 203 94 203 84 186 c 128,-1,2
 74 169 74 169 74 147 c 2,3,-1
 74 113 l 2,4,5
 74 86 74 86 88.5 73 c 128,-1,6
 103 60 103 60 133 60 c 0,7,8
 166 60 166 60 182.5 73 c 128,-1,9
 199 86 199 86 199 113 c 2,10,-1
 199 437 l 2,11,12
 199 454 199 454 195 465.5 c 128,-1,13
 191 477 191 477 182 481 c 0,14,15
 174 486 174 486 162.5 487.5 c 128,-1,16
 151 489 151 489 137 489 c 0,17,18
 122 489 122 489 110.5 487.5 c 128,-1,19
 99 486 99 486 91 481 c 0,20,21
 83 477 83 477 78.5 466.5 c 128,-1,22
 74 456 74 456 74 439 c 2,23,-1
 74 397 l 2,24,25
 74 374 74 374 84 358 c 128,-1,26
 94 342 94 342 113 334 c 1,27,28
 96 334 96 334 82.5 335.5 c 128,-1,29
 69 337 69 337 60 338 c 0,30,31
 50 340 50 340 42.5 344.5 c 128,-1,32
 35 349 35 349 28 356 c 0,33,34
 22 364 22 364 18.5 375.5 c 128,-1,35
 15 387 15 387 14 403 c 2,36,-1
 14 439 l 2,37,38
 14 495 14 495 43.5 522.5 c 128,-1,39
 73 550 73 550 133 550 c 0,40,41
 172 550 172 550 198.5 542 c 128,-1,42
 225 534 225 534 239 518 c 1,43,44
 250 518 250 518 259 519 c 128,-1,45
 268 520 268 520 275 522 c 0,46,47
 283 524 283 524 291.5 527 c 128,-1,48
 300 530 300 530 309 534 c 256,49,50
 318 538 318 538 325.5 541 c 128,-1,51
 333 544 333 544 340 545 c 0,52,53
 348 547 348 547 355.5 548.5 c 128,-1,54
 363 550 363 550 373 550 c 0,55,56
 393 549 393 549 405.5 542.5 c 128,-1,57
 418 536 418 536 425 524 c 0,58,59
 431 512 431 512 434 495 c 128,-1,60
 437 478 437 478 437 455 c 2,61,-1
 437 68 l 2,62,63
 437 47 437 47 433 33 c 128,-1,64
 429 19 429 19 420 12 c 0,65,66
 412 5 412 5 399.5 2.5 c 128,-1,67
 387 0 387 0 371 0 c 0,68,69
 367 0 367 0 362 0 c 128,-1,70
 357 0 357 0 349 0 c 0,71,72
 342 0 342 0 337 0 c 128,-1,73
 332 0 332 0 327 0 c 1,74,75
 341 8 341 8 350 15.5 c 128,-1,76
 359 23 359 23 365 29 c 256,77,78
 371 35 371 35 374 43 c 128,-1,79
 377 51 377 51 377 60 c 2,80,-1
 377 435 l 2,81,82
 377 452 377 452 376.5 462 c 128,-1,83
 376 472 376 472 375 476 c 0,84,85
 374 481 374 481 370 483 c 128,-1,86
 366 485 366 485 360 485 c 0,87,88
 356 485 356 485 349.5 482.5 c 128,-1,89
 343 480 343 480 334 475 c 0,90,91
 330 473 330 473 325.5 471 c 128,-1,92
 321 469 321 469 317 467 c 256,93,94
 313 465 313 465 308.5 463.5 c 128,-1,95
 304 462 304 462 300 460 c 0,96,97
 293 457 293 457 282.5 456 c 128,-1,98
 272 455 272 455 260 455 c 1,99,-1
 260 110 l 2,100,101
 260 55 260 55 228 27.5 c 128,-1,102
 196 0 196 0 133 0 c 0,103,104
 110 0 110 0 89.5 6.5 c 128,-1,105
 69 13 69 13 51 26 c 256,106,107
 33 39 33 39 23.5 60.5 c 128,-1,108
 14 82 14 82 14 113 c 2,109,-1
 14 147 l 2,110,111
 14 163 14 163 17.5 174.5 c 128,-1,112
 21 186 21 186 27 193 c 0,113,114
 33 201 33 201 41 205.5 c 128,-1,115
 49 210 49 210 59 211 c 0,116,117
 69 213 69 213 82.5 214 c 128,-1,118
 96 215 96 215 113 215 c 1,119,-1
 113 215 l 1,0,1
EndSplineSet
Validated: 5
EndChar

StartChar: i
Encoding: 75 123187 75
Width: 0
GlyphClass: 2
Flags: W
LayerCount: 2
Fore
SplineSet
-218 760 m 1,0,1
 -217 785 -217 785 -229.5 797.5 c 128,-1,2
 -242 810 -242 810 -267 810 c 256,3,4
 -292 810 -292 810 -304.5 797.5 c 128,-1,5
 -317 785 -317 785 -317 760 c 0,6,7
 -317 748 -317 748 -313.5 738.5 c 128,-1,8
 -310 729 -310 729 -302 723 c 0,9,10
 -295 716 -295 716 -286 712.5 c 128,-1,11
 -277 709 -277 709 -267 709 c 0,12,13
 -258 709 -258 709 -249.5 712.5 c 128,-1,14
 -241 716 -241 716 -233 722 c 0,15,16
 -225 729 -225 729 -221 738 c 128,-1,17
 -217 747 -217 747 -217 760 c 1,18,-1
 -218 760 l 1,0,1
-268 649 m 2,19,20
 -293 651 -293 651 -313 659 c 128,-1,21
 -333 667 -333 667 -347 683 c 0,22,23
 -362 699 -362 699 -369 718.5 c 128,-1,24
 -376 738 -376 738 -376 760 c 0,25,26
 -376 776 -376 776 -372.5 790 c 128,-1,27
 -369 804 -369 804 -362 817 c 256,28,29
 -355 830 -355 830 -344.5 839.5 c 128,-1,30
 -334 849 -334 849 -322 856 c 0,31,32
 -309 863 -309 863 -295.5 866.5 c 128,-1,33
 -282 870 -282 870 -267 870 c 256,34,35
 -252 870 -252 870 -238.5 866.5 c 128,-1,36
 -225 863 -225 863 -212 856 c 256,37,38
 -199 849 -199 849 -189.5 839.5 c 128,-1,39
 -180 830 -180 830 -172 817 c 0,40,41
 -165 804 -165 804 -160.5 790 c 128,-1,42
 -156 776 -156 776 -156 760 c 256,43,44
 -156 744 -156 744 -159.5 730.5 c 128,-1,45
 -163 717 -163 717 -170 704 c 0,46,47
 -177 692 -177 692 -186.5 682 c 128,-1,48
 -196 672 -196 672 -209 664 c 0,49,50
 -222 657 -222 657 -236.5 653 c 128,-1,51
 -251 649 -251 649 -267 649 c 2,52,-1
 -268 649 l 2,19,20
EndSplineSet
Validated: 33
EndChar

StartChar: j
Encoding: 76 123188 76
Width: 367
GlyphClass: 2
Flags: W
LayerCount: 2
Fore
SplineSet
250 242 m 1,0,-1
 50 242 l 2,1,2
 41 242 41 242 34 245 c 128,-1,3
 27 248 27 248 22 252 c 0,4,5
 18 257 18 257 15 262 c 128,-1,6
 12 267 12 267 12 273 c 0,7,8
 12 280 12 280 15 286 c 128,-1,9
 18 292 18 292 22 296 c 0,10,11
 27 300 27 300 34 302 c 128,-1,12
 41 304 41 304 50 304 c 2,13,-1
 250 304 l 2,14,15
 259 304 259 304 266 302 c 128,-1,16
 273 300 273 300 278 296 c 256,17,18
 283 292 283 292 285.5 286 c 128,-1,19
 288 280 288 280 288 273 c 0,20,21
 288 267 288 267 285 262 c 128,-1,22
 282 257 282 257 277 252 c 0,23,24
 272 248 272 248 265 245 c 128,-1,25
 258 242 258 242 250 242 c 1,26,-1
 250 242 l 1,0,-1
EndSplineSet
Validated: 5
EndChar

StartChar: k
Encoding: 77 123137 77
Width: 514
GlyphClass: 2
Flags: W
LayerCount: 2
Fore
SplineSet
260 60 m 1,0,-1
 302 60 l 2,1,2
 336 60 336 60 353 76 c 128,-1,3
 370 92 370 92 370 123 c 2,4,-1
 370 443 l 2,5,6
 370 466 370 466 355.5 477 c 128,-1,7
 341 488 341 488 312 488 c 0,8,9
 300 488 300 488 291 483 c 128,-1,10
 282 478 282 478 274 469 c 0,11,12
 267 459 267 459 263.5 448 c 128,-1,13
 260 437 260 437 260 425 c 2,14,-1
 260 60 l 1,15,-1
 260 60 l 1,0,-1
114 334 m 1,16,-1
 83 334 l 2,17,18
 67 334 67 334 54.5 337 c 128,-1,19
 42 340 42 340 32 346 c 0,20,21
 23 352 23 352 18.5 364 c 128,-1,22
 14 376 14 376 14 395 c 2,23,-1
 14 462 l 2,24,25
 16 485 16 485 24 501 c 128,-1,26
 32 517 32 517 48 527 c 0,27,28
 64 538 64 538 82.5 543.5 c 128,-1,29
 101 549 101 549 123 550 c 0,30,31
 144 550 144 550 161 547 c 128,-1,32
 178 544 178 544 191 539 c 256,33,34
 204 534 204 534 212.5 527.5 c 128,-1,35
 221 521 221 521 225 512 c 1,36,37
 225 512 225 512 228.5 515 c 128,-1,38
 232 518 232 518 238 522 c 0,39,40
 244 527 244 527 252 532 c 128,-1,41
 260 537 260 537 270 541 c 0,42,43
 279 545 279 545 291 547 c 128,-1,44
 303 549 303 549 318 550 c 0,45,46
 336 550 336 550 354.5 545 c 128,-1,47
 373 540 373 540 392 529 c 0,48,49
 411 519 411 519 420 502.5 c 128,-1,50
 429 486 429 486 429 465 c 2,51,-1
 429 123 l 2,52,53
 429 87 429 87 420 62.5 c 128,-1,54
 411 38 411 38 391 25 c 0,55,56
 372 12 372 12 350.5 6 c 128,-1,57
 329 0 329 0 304 0 c 2,58,-1
 149 0 l 2,59,60
 82 0 82 0 48 28 c 128,-1,61
 14 56 14 56 14 113 c 2,62,-1
 14 147 l 2,63,64
 14 161 14 161 16 171.5 c 128,-1,65
 18 182 18 182 21 189 c 0,66,67
 24 197 24 197 29.5 201.5 c 128,-1,68
 35 206 35 206 43 209 c 256,69,70
 51 212 51 212 63.5 213.5 c 128,-1,71
 76 215 76 215 92 215 c 2,72,-1
 114 215 l 1,73,74
 102 207 102 207 94.5 200.5 c 128,-1,75
 87 194 87 194 83 189 c 0,76,77
 80 184 80 184 78 175.5 c 128,-1,78
 76 167 76 167 76 156 c 256,79,80
 76 145 76 145 76 135 c 128,-1,81
 76 125 76 125 77 117 c 0,82,83
 78 104 78 104 81 93.5 c 128,-1,84
 84 83 84 83 90 77 c 256,85,86
 96 71 96 71 105 67.5 c 128,-1,87
 114 64 114 64 125 62 c 0,88,89
 136 61 136 61 155 60.5 c 128,-1,90
 174 60 174 60 199 60 c 1,91,-1
 199 409 l 2,92,93
 199 452 199 452 180.5 473.5 c 128,-1,94
 162 495 162 495 125 495 c 0,95,96
 100 494 100 494 87 483.5 c 128,-1,97
 74 473 74 473 74 455 c 2,98,-1
 74 405 l 2,99,100
 74 393 74 393 76 382.5 c 128,-1,101
 78 372 78 372 81 364 c 0,102,103
 85 355 85 355 93 347.5 c 128,-1,104
 101 340 101 340 114 334 c 1,105,-1
 114 334 l 1,16,-1
EndSplineSet
Validated: 5
EndChar

StartChar: l
Encoding: 78 124 78
Width: 478
GlyphClass: 2
Flags: W
LayerCount: 2
Fore
SplineSet
393 550 m 1,0,-1
 393 360 l 2,1,2
 393 337 393 337 386.5 321.5 c 128,-1,3
 380 306 380 306 367 297 c 0,4,5
 355 288 355 288 337.5 284 c 128,-1,6
 320 280 320 280 298 280 c 2,7,-1
 165 280 l 2,8,9
 119 280 119 280 96.5 256 c 128,-1,10
 74 232 74 232 74 185 c 2,11,-1
 74 143 l 2,12,13
 74 126 74 126 80.5 111.5 c 128,-1,14
 87 97 87 97 99 84 c 0,15,16
 112 72 112 72 125.5 66 c 128,-1,17
 139 60 139 60 155 60 c 2,18,-1
 258 60 l 2,19,20
 272 60 272 60 284.5 63 c 128,-1,21
 297 66 297 66 309 73 c 0,22,23
 321 79 321 79 327 89.5 c 128,-1,24
 333 100 333 100 333 113 c 2,25,-1
 333 123 l 2,26,27
 333 136 333 136 330.5 145 c 128,-1,28
 328 154 328 154 323 158 c 0,29,30
 320 160 320 160 317 162.5 c 128,-1,31
 314 165 314 165 310 168 c 0,32,33
 305 170 305 170 300.5 172.5 c 128,-1,34
 296 175 296 175 290 177 c 1,35,36
 297 186 297 186 307.5 190.5 c 128,-1,37
 318 195 318 195 331 195 c 0,38,39
 343 195 343 195 353.5 191 c 128,-1,40
 364 187 364 187 374 179 c 0,41,42
 383 172 383 172 388 161.5 c 128,-1,43
 393 151 393 151 393 137 c 2,44,-1
 393 120 l 2,45,46
 393 60 393 60 359.5 30 c 128,-1,47
 326 0 326 0 260 0 c 2,48,-1
 163 0 l 2,49,50
 143 0 143 0 124.5 4 c 128,-1,51
 106 8 106 8 89 17 c 0,52,53
 73 26 73 26 59.5 39 c 128,-1,54
 46 52 46 52 35 69 c 0,55,56
 25 86 25 86 19.5 106 c 128,-1,57
 14 126 14 126 14 149 c 2,58,-1
 14 175 l 2,59,60
 14 258 14 258 50 299 c 128,-1,61
 86 340 86 340 159 340 c 2,62,-1
 270 340 l 2,63,64
 286 340 286 340 298 341 c 128,-1,65
 310 342 310 342 317 343 c 0,66,67
 325 345 325 345 329 350 c 128,-1,68
 333 355 333 355 333 363 c 2,69,-1
 333 489 l 1,70,-1
 97 489 l 2,71,72
 78 489 78 489 65.5 487 c 128,-1,73
 53 485 53 485 46 480 c 0,74,75
 39 476 39 476 31 466.5 c 128,-1,76
 23 457 23 457 14 443 c 1,77,78
 14 466 14 466 15.5 483 c 128,-1,79
 17 500 17 500 19 510 c 256,80,81
 21 520 21 520 26.5 527.5 c 128,-1,82
 32 535 32 535 41 540 c 0,83,84
 49 545 49 545 63.5 547.5 c 128,-1,85
 78 550 78 550 97 550 c 2,86,-1
 393 550 l 1,87,-1
 393 550 l 1,0,-1
EndSplineSet
Validated: 5
EndChar

StartChar: m
Encoding: 79 123136 79
Width: 538
GlyphClass: 2
Flags: W
LayerCount: 2
Fore
SplineSet
320 193 m 1,0,1
 306 193 306 193 294.5 191.5 c 128,-1,2
 283 190 283 190 273 187 c 0,3,4
 264 184 264 184 259 177 c 128,-1,5
 254 170 254 170 254 159 c 2,6,-1
 254 117 l 2,7,8
 254 100 254 100 258.5 88.5 c 128,-1,9
 263 77 263 77 272 71 c 0,10,11
 280 65 280 65 294 62.5 c 128,-1,12
 308 60 308 60 327 60 c 0,13,14
 344 60 344 60 357 63.5 c 128,-1,15
 370 67 370 67 379 74 c 0,16,17
 388 82 388 82 392.5 98 c 128,-1,18
 397 114 397 114 397 139 c 2,19,-1
 397 238 l 2,20,21
 397 254 397 254 395.5 268 c 128,-1,22
 394 282 394 282 391 294 c 0,23,24
 387 307 387 307 382 321.5 c 128,-1,25
 377 336 377 336 369 352 c 0,26,27
 362 368 362 368 357 380.5 c 128,-1,28
 352 393 352 393 349 403 c 0,29,30
 346 412 346 412 344.5 422.5 c 128,-1,31
 343 433 343 433 343 446 c 0,32,33
 343 456 343 456 344.5 466.5 c 128,-1,34
 346 477 346 477 350 489 c 1,35,-1
 189 489 l 2,36,37
 170 489 170 489 155 487.5 c 128,-1,38
 140 486 140 486 128 483 c 256,39,40
 116 480 116 480 107 474 c 128,-1,41
 98 468 98 468 92 458 c 0,42,43
 86 449 86 449 83 435 c 128,-1,44
 80 421 80 421 80 403 c 2,45,-1
 80 60 l 2,46,47
 80 42 80 42 90 27 c 128,-1,48
 100 12 100 12 120 0 c 1,49,-1
 82 0 l 2,50,51
 65 0 65 0 53 2.5 c 128,-1,52
 41 5 41 5 34 9 c 0,53,54
 27 14 27 14 23.5 24 c 128,-1,55
 20 34 20 34 20 50 c 2,56,-1
 20 407 l 2,57,58
 20 434 20 434 25.5 455 c 128,-1,59
 31 476 31 476 41 492 c 256,60,61
 51 508 51 508 64.5 519 c 128,-1,62
 78 530 78 530 95 537 c 0,63,64
 112 543 112 543 133 546.5 c 128,-1,65
 154 550 154 550 179 550 c 2,66,-1
 379 550 l 2,67,68
 405 550 405 550 421.5 545 c 128,-1,69
 438 540 438 540 444 530 c 0,70,71
 451 520 451 520 454.5 506 c 128,-1,72
 458 492 458 492 458 472 c 1,73,74
 449 480 449 480 441.5 484 c 128,-1,75
 434 488 434 488 427 488 c 0,76,77
 417 488 417 488 412 477.5 c 128,-1,78
 407 467 407 467 407 447 c 0,79,80
 407 434 407 434 408.5 424.5 c 128,-1,81
 410 415 410 415 412 407 c 0,82,83
 414 400 414 400 419 389.5 c 128,-1,84
 424 379 424 379 431 364 c 256,85,86
 438 349 438 349 443 335.5 c 128,-1,87
 448 322 448 322 451 308 c 0,88,89
 454 295 454 295 456 277.5 c 128,-1,90
 458 260 458 260 458 239 c 2,91,-1
 458 139 l 2,92,93
 458 69 458 69 426.5 34.5 c 128,-1,94
 395 0 395 0 333 0 c 0,95,96
 301 0 301 0 275.5 6.5 c 128,-1,97
 250 13 250 13 231 26 c 0,98,99
 213 39 213 39 204 64.5 c 128,-1,100
 195 90 195 90 195 127 c 2,101,-1
 195 163 l 2,102,103
 195 180 195 180 200.5 193.5 c 128,-1,104
 206 207 206 207 216 217 c 0,105,106
 227 226 227 226 240 231 c 128,-1,107
 253 236 253 236 267 236 c 0,108,109
 278 236 278 236 287.5 233 c 128,-1,110
 297 230 297 230 304 224 c 0,111,112
 312 218 312 218 316 210.5 c 128,-1,113
 320 203 320 203 320 193 c 1,114,-1
 320 193 l 1,0,1
EndSplineSet
Validated: 1
EndChar

StartChar: n
Encoding: 80 123156 80
Width: 504
GlyphClass: 2
Flags: W
LayerCount: 2
Fore
SplineSet
304 465 m 1,0,1
 306 487 306 487 314 503 c 128,-1,2
 322 519 322 519 335 529 c 0,3,4
 349 540 349 540 368.5 545 c 128,-1,5
 388 550 388 550 415 550 c 1,6,7
 387 536 387 536 373.5 491 c 128,-1,8
 360 446 360 446 360 370 c 2,9,-1
 360 94 l 2,10,11
 360 73 360 73 365.5 62.5 c 128,-1,12
 371 52 371 52 381 52 c 0,13,14
 389 52 389 52 399.5 56.5 c 128,-1,15
 410 61 410 61 425 70 c 1,16,17
 425 46 425 46 422 31.5 c 128,-1,18
 419 17 419 17 413 11 c 0,19,20
 408 5 408 5 397.5 2.5 c 128,-1,21
 387 0 387 0 373 0 c 0,22,23
 353 0 353 0 339 4.5 c 128,-1,24
 325 9 325 9 316 18 c 0,25,26
 308 27 308 27 304 46 c 128,-1,27
 300 65 300 65 300 93 c 2,28,-1
 300 314 l 1,29,30
 288 292 288 292 267.5 267.5 c 128,-1,31
 247 243 247 243 218 215 c 2,32,-1
 104 103 l 2,33,34
 89 89 89 89 81.5 75.5 c 128,-1,35
 74 62 74 62 74 50 c 0,36,37
 74 35 74 35 84 22.5 c 128,-1,38
 94 10 94 10 113 0 c 1,39,40
 94 0 94 0 79.5 1 c 128,-1,41
 65 2 65 2 54 4 c 0,42,43
 44 6 44 6 36.5 11.5 c 128,-1,44
 29 17 29 17 24 24 c 0,45,46
 20 31 20 31 17 42 c 128,-1,47
 14 53 14 53 14 68 c 2,48,-1
 14 199 l 2,49,50
 14 215 14 215 17 229.5 c 128,-1,51
 20 244 20 244 26 258 c 0,52,53
 31 272 31 272 40 288 c 128,-1,54
 49 304 49 304 59 323 c 0,55,56
 70 343 70 343 78.5 358 c 128,-1,57
 87 373 87 373 92 384 c 256,58,59
 97 395 97 395 100 408 c 128,-1,60
 103 421 103 421 104 435 c 2,61,-1
 104 465 l 2,62,63
 104 471 104 471 102.5 476 c 128,-1,64
 101 481 101 481 96 485 c 0,65,66
 92 489 92 489 86.5 490.5 c 128,-1,67
 81 492 81 492 73 492 c 0,68,69
 55 492 55 492 40.5 482.5 c 128,-1,70
 26 473 26 473 14 455 c 1,71,-1
 14 485 l 2,72,73
 14 501 14 501 17.5 513 c 128,-1,74
 21 525 21 525 27 533 c 0,75,76
 34 541 34 541 47.5 545.5 c 128,-1,77
 61 550 61 550 83 550 c 0,78,79
 124 550 124 550 144.5 532 c 128,-1,80
 165 514 165 514 165 479 c 2,81,-1
 165 439 l 2,82,83
 164 421 164 421 160.5 404.5 c 128,-1,84
 157 388 157 388 151 373 c 256,85,86
 145 358 145 358 136.5 341.5 c 128,-1,87
 128 325 128 325 117 307 c 0,88,89
 107 289 107 289 98.5 274 c 128,-1,90
 90 259 90 259 85 246 c 256,91,92
 80 233 80 233 77 219 c 128,-1,93
 74 205 74 205 74 189 c 2,94,-1
 74 157 l 1,95,-1
 218 300 l 2,96,97
 232 314 232 314 245.5 333.5 c 128,-1,98
 259 353 259 353 271 375 c 0,99,100
 283 398 283 398 291.5 420.5 c 128,-1,101
 300 443 300 443 304 465 c 1,102,-1
 304 465 l 1,0,1
EndSplineSet
Validated: 1
EndChar

StartChar: o
Encoding: 81 123150 81
Width: 520
GlyphClass: 2
Flags: W
LayerCount: 2
Fore
SplineSet
135 205 m 1,0,1
 125 205 125 205 117.5 201.5 c 128,-1,2
 110 198 110 198 104 192 c 0,3,4
 98 185 98 185 95.5 177 c 128,-1,5
 93 169 93 169 93 159 c 2,6,-1
 93 127 l 2,7,8
 93 110 93 110 98 97 c 128,-1,9
 103 84 103 84 113 76 c 256,10,11
 123 68 123 68 135.5 64 c 128,-1,12
 148 60 148 60 163 60 c 2,13,-1
 302 60 l 2,14,15
 338 60 338 60 356.5 82 c 128,-1,16
 375 104 375 104 375 149 c 2,17,-1
 375 419 l 2,18,19
 375 438 375 438 368.5 451.5 c 128,-1,20
 362 465 362 465 350 473 c 0,21,22
 337 481 337 481 324.5 485 c 128,-1,23
 312 489 312 489 298 489 c 2,24,-1
 179 489 l 2,25,26
 163 489 163 489 148 484.5 c 128,-1,27
 133 480 133 480 122 470 c 0,28,29
 110 460 110 460 104.5 448.5 c 128,-1,30
 99 437 99 437 99 424 c 0,31,32
 99 409 99 409 106.5 397 c 128,-1,33
 114 385 114 385 129 375 c 1,34,35
 123 374 123 374 115.5 373.5 c 128,-1,36
 108 373 108 373 99 373 c 0,37,38
 65 373 65 373 49 388 c 128,-1,39
 33 403 33 403 34 433 c 2,40,-1
 34 495 l 2,41,42
 34 499 34 499 34 503.5 c 128,-1,43
 34 508 34 508 34 512 c 256,44,45
 34 516 34 516 33 520.5 c 128,-1,46
 32 525 32 525 30 530 c 256,47,48
 28 535 28 535 24 540 c 128,-1,49
 20 545 20 545 14 550 c 1,50,51
 34 550 34 550 48.5 548.5 c 128,-1,52
 63 547 63 547 72 544 c 256,53,54
 81 541 81 541 86.5 533.5 c 128,-1,55
 92 526 92 526 94 514 c 1,56,57
 109 532 109 532 131 541 c 128,-1,58
 153 550 153 550 183 550 c 2,59,-1
 302 550 l 2,60,61
 318 550 318 550 333.5 546.5 c 128,-1,62
 349 543 349 543 363 537 c 0,63,64
 378 530 378 530 390 520.5 c 128,-1,65
 402 511 402 511 412 498 c 0,66,67
 423 485 423 485 428.5 468.5 c 128,-1,68
 434 452 434 452 435 433 c 2,69,-1
 435 137 l 2,70,71
 435 112 435 112 428 89 c 128,-1,72
 421 66 421 66 407 44 c 256,73,74
 393 22 393 22 367.5 11 c 128,-1,75
 342 0 342 0 304 0 c 2,76,-1
 157 0 l 2,77,78
 126 0 126 0 102 9.5 c 128,-1,79
 78 19 78 19 62 38 c 0,80,81
 46 58 46 58 38 80 c 128,-1,82
 30 102 30 102 30 127 c 2,83,-1
 30 149 l 2,84,85
 30 171 30 171 34.5 186 c 128,-1,86
 39 201 39 201 48 211 c 0,87,88
 58 220 58 220 69 224.5 c 128,-1,89
 80 229 80 229 93 229 c 0,90,91
 102 229 102 229 109.5 227.5 c 128,-1,92
 117 226 117 226 123 223 c 0,93,94
 129 219 129 219 132 214.5 c 128,-1,95
 135 210 135 210 135 205 c 1,96,-1
 135 205 l 1,0,1
EndSplineSet
Validated: 37
EndChar

StartChar: p
Encoding: 82 123145 82
Width: 478
GlyphClass: 2
Flags: W
LayerCount: 2
Fore
SplineSet
393 550 m 1,0,-1
 393 360 l 2,1,2
 393 337 393 337 386.5 321.5 c 128,-1,3
 380 306 380 306 367 297 c 0,4,5
 355 288 355 288 337.5 284 c 128,-1,6
 320 280 320 280 298 280 c 2,7,-1
 165 280 l 2,8,9
 119 280 119 280 96.5 256 c 128,-1,10
 74 232 74 232 74 185 c 2,11,-1
 74 143 l 2,12,13
 74 126 74 126 80.5 111.5 c 128,-1,14
 87 97 87 97 99 84 c 0,15,16
 112 72 112 72 125.5 66 c 128,-1,17
 139 60 139 60 155 60 c 2,18,-1
 258 60 l 2,19,20
 272 60 272 60 284.5 63 c 128,-1,21
 297 66 297 66 309 73 c 0,22,23
 321 79 321 79 327 89.5 c 128,-1,24
 333 100 333 100 333 113 c 2,25,-1
 333 123 l 2,26,27
 333 136 333 136 330.5 145 c 128,-1,28
 328 154 328 154 323 158 c 0,29,30
 320 160 320 160 317 162.5 c 128,-1,31
 314 165 314 165 310 168 c 0,32,33
 305 170 305 170 300.5 172.5 c 128,-1,34
 296 175 296 175 290 177 c 1,35,36
 297 186 297 186 307.5 190.5 c 128,-1,37
 318 195 318 195 331 195 c 0,38,39
 343 195 343 195 353.5 191 c 128,-1,40
 364 187 364 187 374 179 c 0,41,42
 383 172 383 172 388 161.5 c 128,-1,43
 393 151 393 151 393 137 c 2,44,-1
 393 120 l 2,45,46
 393 60 393 60 359.5 30 c 128,-1,47
 326 0 326 0 260 0 c 2,48,-1
 163 0 l 2,49,50
 143 0 143 0 124.5 4 c 128,-1,51
 106 8 106 8 89 17 c 0,52,53
 73 26 73 26 59.5 39 c 128,-1,54
 46 52 46 52 35 69 c 0,55,56
 25 86 25 86 19.5 106 c 128,-1,57
 14 126 14 126 14 149 c 2,58,-1
 14 175 l 2,59,60
 14 258 14 258 50 299 c 128,-1,61
 86 340 86 340 159 340 c 2,62,-1
 270 340 l 2,63,64
 286 340 286 340 298 341 c 128,-1,65
 310 342 310 342 317 343 c 0,66,67
 325 345 325 345 329 350 c 128,-1,68
 333 355 333 355 333 363 c 2,69,-1
 333 489 l 1,70,-1
 97 489 l 2,71,72
 78 489 78 489 65.5 487 c 128,-1,73
 53 485 53 485 46 480 c 0,74,75
 39 476 39 476 31 466.5 c 128,-1,76
 23 457 23 457 14 443 c 1,77,78
 14 466 14 466 15.5 483 c 128,-1,79
 17 500 17 500 19 510 c 256,80,81
 21 520 21 520 26.5 527.5 c 128,-1,82
 32 535 32 535 41 540 c 0,83,84
 49 545 49 545 63.5 547.5 c 128,-1,85
 78 550 78 550 97 550 c 2,86,-1
 393 550 l 1,87,-1
 393 550 l 1,0,-1
EndSplineSet
Validated: 5
EndChar

StartChar: q
Encoding: 83 123159 83
Width: 562
GlyphClass: 2
Flags: W
LayerCount: 2
Fore
SplineSet
117 403 m 1,0,1
 117 419 117 419 121 431 c 128,-1,2
 125 443 125 443 132 452 c 256,3,4
 139 461 139 461 150 467.5 c 128,-1,5
 161 474 161 474 177 478 c 1,6,-1
 177 -114 l 2,7,8
 177 -133 177 -133 174 -146.5 c 128,-1,9
 171 -160 171 -160 164 -170 c 0,10,11
 157 -179 157 -179 147 -184.5 c 128,-1,12
 137 -190 137 -190 123 -193 c 0,13,14
 110 -196 110 -196 89.5 -197 c 128,-1,15
 69 -198 69 -198 42 -198 c 1,16,17
 57 -194 57 -194 70.5 -186 c 128,-1,18
 84 -178 84 -178 95 -168 c 256,19,20
 106 -158 106 -158 111.5 -144 c 128,-1,21
 117 -130 117 -130 117 -113 c 2,22,-1
 117 403 l 1,23,-1
 117 403 l 1,0,1
415 114 m 1,24,25
 415 82 415 82 423.5 66 c 128,-1,26
 432 50 432 50 448 50 c 0,27,28
 456 50 456 50 464.5 53.5 c 128,-1,29
 473 57 473 57 482 64 c 1,30,31
 482 49 482 49 478.5 36.5 c 128,-1,32
 475 24 475 24 467 16 c 0,33,34
 459 7 459 7 449 3.5 c 128,-1,35
 439 0 439 0 428 0 c 0,36,37
 414 0 414 0 401 6.5 c 128,-1,38
 388 13 388 13 377 27 c 256,39,40
 366 41 366 41 360 61 c 128,-1,41
 354 81 354 81 354 107 c 2,42,-1
 354 175 l 2,43,44
 354 191 354 191 356 204 c 128,-1,45
 358 217 358 217 362 227 c 0,46,47
 366 238 366 238 372 250.5 c 128,-1,48
 378 263 378 263 386 278 c 0,49,50
 394 292 394 292 399.5 306 c 128,-1,51
 405 320 405 320 409 332 c 0,52,53
 414 345 414 345 415.5 360.5 c 128,-1,54
 417 376 417 376 417 395 c 0,55,56
 417 419 417 419 410.5 436.5 c 128,-1,57
 404 454 404 454 390 466 c 256,58,59
 376 478 376 478 360 483.5 c 128,-1,60
 344 489 344 489 324 489 c 2,61,-1
 97 489 l 2,62,63
 82 489 82 489 70.5 486.5 c 128,-1,64
 59 484 59 484 51 478 c 0,65,66
 44 472 44 472 34.5 462 c 128,-1,67
 25 452 25 452 14 437 c 1,68,69
 14 459 14 459 15.5 475.5 c 128,-1,70
 17 492 17 492 19 503 c 0,71,72
 22 514 22 514 27.5 522.5 c 128,-1,73
 33 531 33 531 43 537 c 256,74,75
 53 543 53 543 68 546.5 c 128,-1,76
 83 550 83 550 103 550 c 2,77,-1
 324 550 l 2,78,79
 353 550 353 550 379.5 541 c 128,-1,80
 406 532 406 532 430 515 c 256,81,82
 454 498 454 498 466 466 c 128,-1,83
 478 434 478 434 478 387 c 0,84,85
 478 368 478 368 476 351 c 128,-1,86
 474 334 474 334 469 320 c 0,87,88
 465 307 465 307 459 292 c 128,-1,89
 453 277 453 277 445 262 c 0,90,91
 438 246 438 246 432 234 c 128,-1,92
 426 222 426 222 422 211 c 0,93,94
 418 201 418 201 416.5 189 c 128,-1,95
 415 177 415 177 415 163 c 2,96,-1
 415 114 l 1,97,-1
 415 114 l 1,24,25
EndSplineSet
Validated: 5
EndChar

StartChar: r
Encoding: 84 123141 84
Width: 572
GlyphClass: 2
Flags: W
LayerCount: 2
Fore
SplineSet
94 54 m 1,0,-1
 116 54 l 2,1,2
 127 54 127 54 136 55.5 c 128,-1,3
 145 57 145 57 151 60 c 256,4,5
 157 63 157 63 161.5 69 c 128,-1,6
 166 75 166 75 169 84 c 2,7,-1
 235 417 l 2,8,9
 247 483 247 483 281 516.5 c 128,-1,10
 315 550 315 550 370 550 c 0,11,12
 396 550 396 550 417.5 543.5 c 128,-1,13
 439 537 439 537 455 523 c 0,14,15
 472 510 472 510 480 490 c 128,-1,16
 488 470 488 470 488 443 c 2,17,-1
 488 72 l 2,18,19
 488 56 488 56 486.5 44 c 128,-1,20
 485 32 485 32 482 24 c 0,21,22
 479 17 479 17 474.5 11.5 c 128,-1,23
 470 6 470 6 463 4 c 256,24,25
 456 2 456 2 446 1 c 128,-1,26
 436 0 436 0 422 0 c 2,27,-1
 377 0 l 2,28,29
 385 3 385 3 391 6 c 128,-1,30
 397 9 397 9 402 12 c 0,31,32
 407 14 407 14 410.5 17 c 128,-1,33
 414 20 414 20 417 23 c 0,34,35
 422 28 422 28 424.5 36 c 128,-1,36
 427 44 427 44 427 54 c 2,37,-1
 427 409 l 2,38,39
 427 432 427 432 424 447 c 128,-1,40
 421 462 421 462 415 471 c 0,41,42
 408 480 408 480 398.5 484.5 c 128,-1,43
 389 489 389 489 375 489 c 0,44,45
 365 489 365 489 356.5 488.5 c 128,-1,46
 348 488 348 488 341 486 c 0,47,48
 335 484 335 484 329 479 c 128,-1,49
 323 474 323 474 317 466 c 0,50,51
 312 459 312 459 307.5 447 c 128,-1,52
 303 435 303 435 300 419 c 2,53,-1
 229 68 l 2,54,55
 224 47 224 47 212.5 33 c 128,-1,56
 201 19 201 19 184 12 c 256,57,58
 167 5 167 5 143 2.5 c 128,-1,59
 119 0 119 0 89 0 c 0,60,61
 82 0 82 0 72.5 0 c 128,-1,62
 63 0 63 0 50 0 c 256,63,64
 37 0 37 0 27 0 c 128,-1,65
 17 0 17 0 10 0 c 1,66,67
 21 7 21 7 26 16.5 c 128,-1,68
 31 26 31 26 31 38 c 0,69,70
 31 43 31 43 29.5 52.5 c 128,-1,71
 28 62 28 62 26 78 c 0,72,73
 23 94 23 94 21.5 108.5 c 128,-1,74
 20 123 20 123 20 136 c 0,75,76
 20 173 20 173 28.5 214 c 128,-1,77
 37 255 37 255 54 300 c 1,78,79
 54 314 54 314 51.5 326.5 c 128,-1,80
 49 339 49 339 44 349 c 0,81,82
 39 360 39 360 34.5 370.5 c 128,-1,83
 30 381 30 381 25 391 c 0,84,85
 21 402 21 402 18 416 c 128,-1,86
 15 430 15 430 14 447 c 0,87,88
 14 473 14 473 18.5 492 c 128,-1,89
 23 511 23 511 31 524 c 256,90,91
 39 537 39 537 55 543.5 c 128,-1,92
 71 550 71 550 94 550 c 0,93,94
 130 550 130 550 148 539 c 128,-1,95
 166 528 166 528 166 507 c 0,96,97
 166 497 166 497 161 483.5 c 128,-1,98
 156 470 156 470 145 455 c 1,99,100
 145 463 145 463 141.5 470 c 128,-1,101
 138 477 138 477 132 481 c 0,102,103
 126 486 126 486 119 488 c 128,-1,104
 112 490 112 490 104 490 c 0,105,106
 89 490 89 490 81.5 483 c 128,-1,107
 74 476 74 476 74 462 c 0,108,109
 74 449 74 449 75.5 438 c 128,-1,110
 77 427 77 427 80 419 c 0,111,112
 82 411 82 411 86.5 401 c 128,-1,113
 91 391 91 391 96 380 c 0,114,115
 101 370 101 370 105 359.5 c 128,-1,116
 109 349 109 349 112 340 c 256,117,118
 115 331 115 331 116 319.5 c 128,-1,119
 117 308 117 308 117 294 c 0,120,121
 115 286 115 286 111 273.5 c 128,-1,122
 107 261 107 261 102 246 c 0,123,124
 97 230 97 230 92.5 217 c 128,-1,125
 88 204 88 204 86 193 c 0,126,127
 83 182 83 182 82 170 c 128,-1,128
 81 158 81 158 81 144 c 0,129,130
 81 123 81 123 84 100.5 c 128,-1,131
 87 78 87 78 94 54 c 1,132,-1
 94 54 l 1,0,-1
EndSplineSet
Validated: 5
EndChar

StartChar: s
Encoding: 85 123176 85
Width: 510
GlyphClass: 2
Flags: W
LayerCount: 2
Fore
SplineSet
208 304 m 1,0,-1
 304 304 l 2,1,2
 327 304 327 304 338.5 309.5 c 128,-1,3
 350 315 350 315 350 327 c 2,4,-1
 350 495 l 2,5,6
 350 505 350 505 348 513 c 128,-1,7
 346 521 346 521 342 526 c 0,8,9
 338 532 338 532 331.5 538 c 128,-1,10
 325 544 325 544 314 550 c 1,11,12
 339 550 339 550 355.5 549.5 c 128,-1,13
 372 549 372 549 380 547 c 0,14,15
 389 546 389 546 395 542.5 c 128,-1,16
 401 539 401 539 404 534 c 256,17,18
 407 529 407 529 408 520 c 128,-1,19
 409 511 409 511 409 498 c 2,20,-1
 409 52 l 2,21,22
 411 42 411 42 413 34.5 c 128,-1,23
 415 27 415 27 419 22 c 0,24,25
 422 18 422 18 428.5 12 c 128,-1,26
 435 6 435 6 445 0 c 1,27,28
 424 0 424 0 409 0.5 c 128,-1,29
 394 1 394 1 385 2 c 256,30,31
 376 3 376 3 369.5 6 c 128,-1,32
 363 9 363 9 358 13 c 0,33,34
 354 18 354 18 352 26 c 128,-1,35
 350 34 350 34 350 44 c 2,36,-1
 350 262 l 2,37,38
 350 256 350 256 347 253 c 128,-1,39
 344 250 344 250 338 248 c 0,40,41
 333 247 333 247 324.5 246 c 128,-1,42
 316 245 316 245 304 245 c 2,43,-1
 250 245 l 1,44,-1
 250 90 l 2,45,46
 250 68 250 68 241 51.5 c 128,-1,47
 232 35 232 35 214 23 c 0,48,49
 197 11 197 11 176.5 5.5 c 128,-1,50
 156 0 156 0 133 0 c 0,51,52
 109 0 109 0 88 5.5 c 128,-1,53
 67 11 67 11 50 23 c 0,54,55
 32 35 32 35 23 51.5 c 128,-1,56
 14 68 14 68 14 90 c 2,57,-1
 14 459 l 2,58,59
 14 481 14 481 23 497.5 c 128,-1,60
 32 514 32 514 50 526 c 0,61,62
 67 538 67 538 88 544 c 128,-1,63
 109 550 109 550 133 550 c 0,64,65
 156 550 156 550 176.5 544 c 128,-1,66
 197 538 197 538 214 526 c 0,67,68
 232 514 232 514 241 497.5 c 128,-1,69
 250 481 250 481 250 459 c 2,70,-1
 250 399 l 2,71,72
 250 389 250 389 246.5 376.5 c 128,-1,73
 243 364 243 364 236 350 c 0,74,75
 230 337 230 337 218 329.5 c 128,-1,76
 206 322 206 322 189 322 c 1,77,-1
 189 447 l 2,78,79
 189 458 189 458 185 466.5 c 128,-1,80
 181 475 181 475 172 481 c 0,81,82
 164 487 164 487 154 489.5 c 128,-1,83
 144 492 144 492 133 492 c 0,84,85
 121 492 121 492 110.5 489.5 c 128,-1,86
 100 487 100 487 92 481 c 0,87,88
 83 475 83 475 78.5 466.5 c 128,-1,89
 74 458 74 458 74 447 c 2,90,-1
 74 100 l 2,91,92
 74 90 74 90 78.5 82 c 128,-1,93
 83 74 83 74 92 68 c 256,94,95
 101 62 101 62 111 59 c 128,-1,96
 121 56 121 56 133 56 c 0,97,98
 144 56 144 56 154 59 c 128,-1,99
 164 62 164 62 172 68 c 0,100,101
 181 74 181 74 185 82 c 128,-1,102
 189 90 189 90 189 100 c 2,103,-1
 189 245 l 1,104,105
 173 245 173 245 160.5 241.5 c 128,-1,106
 148 238 148 238 139 232 c 1,107,108
 139 250 139 250 144 263.5 c 128,-1,109
 149 277 149 277 158 286 c 0,110,111
 168 295 168 295 180 299.5 c 128,-1,112
 192 304 192 304 208 304 c 1,113,-1
 208 304 l 1,0,-1
EndSplineSet
Validated: 5
EndChar

StartChar: t
Encoding: 86 123162 86
Width: 520
GlyphClass: 2
Flags: W
LayerCount: 2
Fore
SplineSet
264 320 m 1,0,1
 268 310 268 310 270 302 c 128,-1,2
 272 294 272 294 272 287 c 0,3,4
 272 271 272 271 266 259 c 128,-1,5
 260 247 260 247 249 237 c 0,6,7
 237 227 237 227 221.5 222.5 c 128,-1,8
 206 218 206 218 187 218 c 256,9,10
 168 218 168 218 151 221 c 128,-1,11
 134 224 134 224 120 231 c 256,12,13
 106 238 106 238 96 246.5 c 128,-1,14
 86 255 86 255 79 266 c 256,15,16
 72 277 72 277 68.5 289 c 128,-1,17
 65 301 65 301 65 313 c 0,18,19
 65 329 65 329 70 343.5 c 128,-1,20
 75 358 75 358 85 371 c 0,21,22
 95 385 95 385 108.5 394 c 128,-1,23
 122 403 122 403 139 407 c 0,24,25
 144 409 144 409 148 410 c 128,-1,26
 152 411 152 411 156 412 c 256,27,28
 160 413 160 413 163.5 414.5 c 128,-1,29
 167 416 167 416 171 417 c 0,30,31
 173 418 173 418 174.5 419 c 128,-1,32
 176 420 176 420 177 421 c 0,33,34
 179 421 179 421 180 422 c 128,-1,35
 181 423 181 423 182 424 c 0,36,37
 184 426 184 426 185.5 428.5 c 128,-1,38
 187 431 187 431 187 434 c 0,39,40
 187 439 187 439 182 445 c 128,-1,41
 177 451 177 451 167 458 c 0,42,43
 156 466 156 466 146 472 c 128,-1,44
 136 478 136 478 127 482 c 0,45,46
 119 486 119 486 104 487.5 c 128,-1,47
 89 489 89 489 68 489 c 0,48,49
 60 489 60 489 53 486 c 128,-1,50
 46 483 46 483 41 478 c 0,51,52
 35 473 35 473 28.5 463 c 128,-1,53
 22 453 22 453 14 439 c 1,54,55
 14 442 14 442 14 447 c 128,-1,56
 14 452 14 452 14 458 c 0,57,58
 14 461 14 461 14 464 c 128,-1,59
 14 467 14 467 14 469 c 0,60,61
 13 471 13 471 13 473.5 c 128,-1,62
 13 476 13 476 13 477 c 0,63,64
 13 494 13 494 16.5 507.5 c 128,-1,65
 20 521 20 521 26 531 c 0,66,67
 32 540 32 540 45 545 c 128,-1,68
 58 550 58 550 77 550 c 2,69,-1
 302 550 l 2,70,71
 318 550 318 550 333.5 546.5 c 128,-1,72
 349 543 349 543 363 537 c 0,73,74
 378 530 378 530 390 520.5 c 128,-1,75
 402 511 402 511 412 498 c 0,76,77
 423 485 423 485 428.5 468.5 c 128,-1,78
 434 452 434 452 435 433 c 2,79,-1
 435 127 l 2,80,81
 435 115 435 115 432 101.5 c 128,-1,82
 429 88 429 88 424 73 c 0,83,84
 418 59 418 59 408.5 46 c 128,-1,85
 399 33 399 33 385 22 c 256,86,87
 371 11 371 11 352 5.5 c 128,-1,88
 333 0 333 0 310 0 c 2,89,-1
 133 0 l 2,90,91
 73 0 73 0 43.5 28 c 128,-1,92
 14 56 14 56 14 113 c 0,93,94
 14 127 14 127 18.5 136.5 c 128,-1,95
 23 146 23 146 31 151 c 256,96,97
 39 156 39 156 51 158 c 128,-1,98
 63 160 63 160 79 160 c 0,99,100
 82 160 82 160 86 160 c 128,-1,101
 90 160 90 160 96 160 c 0,102,103
 99 160 99 160 101.5 160 c 128,-1,104
 104 160 104 160 107 160 c 0,105,106
 109 159 109 159 111 159 c 128,-1,107
 113 159 113 159 114 159 c 1,108,109
 102 155 102 155 94.5 149 c 128,-1,110
 87 143 87 143 84 137 c 0,111,112
 80 131 80 131 78.5 123 c 128,-1,113
 77 115 77 115 77 104 c 0,114,115
 77 82 77 82 92 71 c 128,-1,116
 107 60 107 60 137 60 c 2,117,-1
 310 60 l 2,118,119
 327 61 327 61 339.5 67.5 c 128,-1,120
 352 74 352 74 359 86 c 0,121,122
 367 99 367 99 371 113 c 128,-1,123
 375 127 375 127 375 143 c 2,124,-1
 375 419 l 2,125,126
 375 438 375 438 368.5 451.5 c 128,-1,127
 362 465 362 465 350 473 c 0,128,129
 337 481 337 481 324.5 485 c 128,-1,130
 312 489 312 489 298 489 c 2,131,-1
 225 489 l 1,132,133
 242 479 242 479 251 465.5 c 128,-1,134
 260 452 260 452 260 436 c 0,135,136
 260 424 260 424 255.5 413 c 128,-1,137
 251 402 251 402 241 391 c 0,138,139
 231 381 231 381 218.5 373 c 128,-1,140
 206 365 206 365 189 360 c 0,141,142
 159 351 159 351 144 339 c 128,-1,143
 129 327 129 327 129 312 c 0,144,145
 129 305 129 305 133.5 298.5 c 128,-1,146
 138 292 138 292 146 287 c 0,147,148
 154 283 154 283 166 280.5 c 128,-1,149
 178 278 178 278 193 278 c 0,150,151
 212 278 212 278 230 288.5 c 128,-1,152
 248 299 248 299 264 320 c 1,153,-1
 264 320 l 1,0,1
EndSplineSet
Validated: 5
EndChar

StartChar: u
Encoding: 87 123175 87
Width: 449
GlyphClass: 2
Flags: W
LayerCount: 2
Fore
SplineSet
74 139 m 1,0,1
 74 118 74 118 78 103 c 128,-1,2
 82 88 82 88 90 78 c 0,3,4
 98 69 98 69 112 64.5 c 128,-1,5
 126 60 126 60 147 60 c 2,6,-1
 252 60 l 2,7,8
 278 60 278 60 291 79 c 128,-1,9
 304 98 304 98 304 137 c 2,10,-1
 304 235 l 2,11,12
 304 289 304 289 265 316 c 128,-1,13
 226 343 226 343 149 343 c 1,14,-1
 292 485 l 1,15,-1
 292 489 l 2,16,17
 294 489 294 489 294 489 c 129,-1,18
 294 489 294 489 292 489 c 0,19,20
 291 488 291 488 289 488 c 128,-1,21
 287 488 287 488 285 488 c 0,22,23
 284 488 284 488 286 488 c 128,-1,24
 288 488 288 488 292 489 c 1,25,26
 259 484 259 484 228 481.5 c 128,-1,27
 197 479 197 479 168 479 c 0,28,29
 152 479 152 479 138 480 c 128,-1,30
 124 481 124 481 112 483 c 0,31,32
 101 485 101 485 95 486.5 c 128,-1,33
 89 488 89 488 90 488 c 1,34,35
 83 484 83 484 77.5 481 c 128,-1,36
 72 478 72 478 68 475 c 0,37,38
 65 472 65 472 63.5 467 c 128,-1,39
 62 462 62 462 62 456 c 0,40,41
 62 449 62 449 64.5 439.5 c 128,-1,42
 67 430 67 430 72 419 c 1,43,44
 59 419 59 419 48 425 c 128,-1,45
 37 431 37 431 29 441 c 0,46,47
 22 452 22 452 18 466 c 128,-1,48
 14 480 14 480 14 498 c 0,49,50
 14 514 14 514 19 524.5 c 128,-1,51
 24 535 24 535 34 540 c 0,52,53
 45 545 45 545 53 547.5 c 128,-1,54
 61 550 61 550 68 550 c 0,55,56
 73 550 73 550 79.5 549 c 128,-1,57
 86 548 86 548 95 546 c 0,58,59
 104 545 104 545 113 543.5 c 128,-1,60
 122 542 122 542 130 541 c 0,61,62
 139 540 139 540 151 539.5 c 128,-1,63
 163 539 163 539 177 539 c 0,64,65
 208 539 208 539 241 541.5 c 128,-1,66
 274 544 274 544 310 550 c 0,67,68
 323 550 323 550 332.5 546.5 c 128,-1,69
 342 543 342 543 348 536 c 0,70,71
 355 529 355 529 358.5 521 c 128,-1,72
 362 513 362 513 362 502 c 0,73,74
 362 489 362 489 356.5 476 c 128,-1,75
 351 463 351 463 340 452 c 2,76,-1
 268 379 l 1,77,78
 297 372 297 372 316 358 c 128,-1,79
 335 344 335 344 345 324 c 0,80,81
 355 305 355 305 359.5 287.5 c 128,-1,82
 364 270 364 270 364 254 c 2,83,-1
 364 129 l 2,84,85
 364 98 364 98 356.5 73.5 c 128,-1,86
 349 49 349 49 333 32 c 0,87,88
 318 16 318 16 298 8 c 128,-1,89
 278 0 278 0 254 0 c 2,90,-1
 147 0 l 2,91,92
 110 0 110 0 83.5 9 c 128,-1,93
 57 18 57 18 43 37 c 256,94,95
 29 56 29 56 21.5 75.5 c 128,-1,96
 14 95 14 95 14 117 c 2,97,-1
 14 139 l 2,98,99
 14 162 14 162 20.5 181 c 128,-1,100
 27 200 27 200 40 215 c 0,101,102
 52 230 52 230 71.5 237.5 c 128,-1,103
 91 245 91 245 117 245 c 0,104,105
 147 245 147 245 162 232.5 c 128,-1,106
 177 220 177 220 177 195 c 0,107,108
 177 194 177 194 177 192 c 128,-1,109
 177 190 177 190 177 187 c 0,110,111
 177 183 177 183 177 180 c 128,-1,112
 177 177 177 177 177 175 c 1,113,114
 165 181 165 181 152.5 184.5 c 128,-1,115
 140 188 140 188 126 188 c 0,116,117
 115 188 115 188 106 185 c 128,-1,118
 97 182 97 182 89 176 c 0,119,120
 82 170 82 170 78 161 c 128,-1,121
 74 152 74 152 74 139 c 1,122,-1
 74 139 l 1,0,1
EndSplineSet
Validated: 5
EndChar

StartChar: v
Encoding: 88 123154 88
Width: 558
GlyphClass: 2
Flags: W
LayerCount: 2
Fore
SplineSet
397 254 m 1,0,1
 397 254 397 254 395.5 253.5 c 128,-1,2
 394 253 394 253 392 252 c 0,3,4
 389 251 389 251 386 249.5 c 128,-1,5
 383 248 383 248 378 247 c 0,6,7
 374 246 374 246 368 245.5 c 128,-1,8
 362 245 362 245 354 245 c 2,9,-1
 282 245 l 1,10,-1
 282 110 l 2,11,12
 282 88 282 88 277 71.5 c 128,-1,13
 272 55 272 55 261 43 c 0,14,15
 251 30 251 30 238 22 c 128,-1,16
 225 14 225 14 209 9 c 0,17,18
 194 5 194 5 178.5 2.5 c 128,-1,19
 163 0 163 0 147 0 c 0,20,21
 80 0 80 0 47 25 c 128,-1,22
 14 50 14 50 14 100 c 2,23,-1
 14 149 l 2,24,25
 14 163 14 163 17 172 c 128,-1,26
 20 181 20 181 25 187 c 256,27,28
 30 193 30 193 37 197 c 128,-1,29
 44 201 44 201 53 202 c 0,30,31
 61 204 61 204 74.5 204.5 c 128,-1,32
 88 205 88 205 104 205 c 1,33,34
 95 198 95 198 89 192 c 128,-1,35
 83 186 83 186 80 180 c 256,36,37
 77 174 77 174 75.5 165 c 128,-1,38
 74 156 74 156 74 145 c 2,39,-1
 74 100 l 2,40,41
 74 80 74 80 92 70 c 128,-1,42
 110 60 110 60 147 60 c 0,43,44
 164 60 164 60 178 62.5 c 128,-1,45
 192 65 192 65 202 69 c 0,46,47
 213 74 213 74 217.5 84 c 128,-1,48
 222 94 222 94 222 110 c 2,49,-1
 222 245 l 1,50,51
 201 245 201 245 188 240.5 c 128,-1,52
 175 236 175 236 169 228 c 1,53,54
 169 240 169 240 170 250.5 c 128,-1,55
 171 261 171 261 172 268 c 0,56,57
 174 276 174 276 177 282.5 c 128,-1,58
 180 289 180 289 186 294 c 256,59,60
 192 299 192 299 201 301.5 c 128,-1,61
 210 304 210 304 222 304 c 1,62,-1
 222 439 l 2,63,64
 222 455 222 455 217.5 465 c 128,-1,65
 213 475 213 475 202 480 c 0,66,67
 192 485 192 485 178 487 c 128,-1,68
 164 489 164 489 147 489 c 0,69,70
 131 489 131 489 118 487 c 128,-1,71
 105 485 105 485 94 480 c 0,72,73
 84 475 84 475 79 465 c 128,-1,74
 74 455 74 455 74 439 c 2,75,-1
 74 397 l 2,76,77
 74 388 74 388 75.5 380.5 c 128,-1,78
 77 373 77 373 81 367 c 0,79,80
 83 364 83 364 85 361 c 128,-1,81
 87 358 87 358 90 356 c 0,82,83
 93 353 93 353 96.5 350 c 128,-1,84
 100 347 100 347 104 344 c 1,85,86
 98 344 98 344 93 344.5 c 128,-1,87
 88 345 88 345 83 345 c 256,88,89
 78 345 78 345 73.5 345.5 c 128,-1,90
 69 346 69 346 65 346 c 0,91,92
 56 346 56 346 49.5 347.5 c 128,-1,93
 43 349 43 349 38 351 c 256,94,95
 33 353 33 353 29 357 c 128,-1,96
 25 361 25 361 22 367 c 256,97,98
 19 373 19 373 17.5 381.5 c 128,-1,99
 16 390 16 390 14 403 c 2,100,-1
 14 439 l 2,101,102
 14 471 14 471 24.5 492 c 128,-1,103
 35 513 35 513 54 526 c 0,104,105
 74 538 74 538 97.5 544 c 128,-1,106
 121 550 121 550 147 550 c 0,107,108
 174 550 174 550 197.5 544 c 128,-1,109
 221 538 221 538 241 526 c 0,110,111
 262 513 262 513 272 492 c 128,-1,112
 282 471 282 471 282 439 c 2,113,-1
 282 304 l 1,114,-1
 357 304 l 2,115,116
 372 304 372 304 382.5 308.5 c 128,-1,117
 393 313 393 313 397 322 c 1,118,-1
 397 489 l 2,119,120
 397 502 397 502 395.5 511 c 128,-1,121
 394 520 394 520 391 526 c 256,122,123
 388 532 388 532 380.5 538 c 128,-1,124
 373 544 373 544 360 550 c 1,125,-1
 383 550 l 2,126,127
 404 550 404 550 418.5 547 c 128,-1,128
 433 544 433 544 442 539 c 0,129,130
 450 533 450 533 454 520.5 c 128,-1,131
 458 508 458 508 458 488 c 2,132,-1
 458 68 l 2,133,134
 458 43 458 43 469 26 c 128,-1,135
 480 9 480 9 502 0 c 1,136,137
 478 0 478 0 461 0.5 c 128,-1,138
 444 1 444 1 434 2 c 0,139,140
 424 4 424 4 417 7.5 c 128,-1,141
 410 11 410 11 406 17 c 256,142,143
 402 23 402 23 399.5 34 c 128,-1,144
 397 45 397 45 397 60 c 2,145,-1
 397 254 l 1,146,-1
 397 254 l 1,0,1
EndSplineSet
Validated: 5
EndChar

StartChar: w
Encoding: 89 123174 89
Width: 415
GlyphClass: 2
Flags: W
LayerCount: 2
Fore
SplineSet
139 209 m 1,0,1
 141 217 141 217 147 224 c 128,-1,2
 153 231 153 231 163 235 c 0,3,4
 173 240 173 240 184 243 c 128,-1,5
 195 246 195 246 208 246 c 0,6,7
 226 246 226 246 242 239.5 c 128,-1,8
 258 233 258 233 271 221 c 0,9,10
 285 208 285 208 291.5 189.5 c 128,-1,11
 298 171 298 171 298 145 c 0,12,13
 298 105 298 105 290 77.5 c 128,-1,14
 282 50 282 50 265 33 c 0,15,16
 249 17 249 17 220 8.5 c 128,-1,17
 191 0 191 0 149 0 c 0,18,19
 113 0 113 0 87 9 c 128,-1,20
 61 18 61 18 46 37 c 0,21,22
 30 56 30 56 22 78.5 c 128,-1,23
 14 101 14 101 14 127 c 2,24,-1
 14 452 l 2,25,26
 17 472 17 472 23.5 488 c 128,-1,27
 30 504 30 504 39 514 c 0,28,29
 48 525 48 525 58.5 532 c 128,-1,30
 69 539 69 539 81 542 c 0,31,32
 93 546 93 546 107 548 c 128,-1,33
 121 550 121 550 137 550 c 0,34,35
 160 550 160 550 179.5 546 c 128,-1,36
 199 542 199 542 216 534 c 0,37,38
 233 527 233 527 245 509 c 128,-1,39
 257 491 257 491 262 462 c 2,40,-1
 278 405 l 2,41,42
 282 389 282 389 289 375 c 128,-1,43
 296 361 296 361 306 350 c 0,44,45
 316 340 316 340 326.5 332.5 c 128,-1,46
 337 325 337 325 347 322 c 2,47,-1
 325 322 l 2,48,49
 306 322 306 322 291 323.5 c 128,-1,50
 276 325 276 325 265 328 c 256,51,52
 254 331 254 331 245.5 335.5 c 128,-1,53
 237 340 237 340 232 346 c 0,54,55
 226 352 226 352 221.5 360.5 c 128,-1,56
 217 369 217 369 215 379 c 2,57,-1
 197 445 l 2,58,59
 193 459 193 459 188.5 467.5 c 128,-1,60
 184 476 184 476 177 480 c 0,61,62
 171 484 171 484 161 486 c 128,-1,63
 151 488 151 488 137 488 c 0,64,65
 122 488 122 488 110.5 486 c 128,-1,66
 99 484 99 484 91 479 c 0,67,68
 83 475 83 475 78.5 466 c 128,-1,69
 74 457 74 457 74 443 c 2,70,-1
 74 127 l 2,71,72
 74 106 74 106 80 92.5 c 128,-1,73
 86 79 86 79 97 72 c 0,74,75
 108 66 108 66 122 63 c 128,-1,76
 136 60 136 60 153 60 c 0,77,78
 173 60 173 60 187 61.5 c 128,-1,79
 201 63 201 63 209 66 c 256,80,81
 217 69 217 69 223 77.5 c 128,-1,82
 229 86 229 86 232 100 c 2,83,-1
 232 147 l 2,84,85
 232 162 232 162 226 174 c 128,-1,86
 220 186 220 186 208 193 c 0,87,88
 196 201 196 201 179 205 c 128,-1,89
 162 209 162 209 139 209 c 1,90,-1
 139 209 l 1,0,1
EndSplineSet
Validated: 5
EndChar

StartChar: x
Encoding: 90 123139 90
Width: 577
GlyphClass: 2
Flags: W
LayerCount: 2
Fore
SplineSet
377 310 m 1,0,1
 365 294 365 294 351.5 286.5 c 128,-1,2
 338 279 338 279 322 279 c 0,3,4
 309 279 309 279 297.5 284.5 c 128,-1,5
 286 290 286 290 275 302 c 0,6,7
 265 314 265 314 259.5 328.5 c 128,-1,8
 254 343 254 343 254 360 c 0,9,10
 255 365 255 365 255.5 372.5 c 128,-1,11
 256 380 256 380 256 389 c 0,12,13
 256 392 256 392 256 395.5 c 128,-1,14
 256 399 256 399 256 403 c 0,15,16
 255 407 255 407 255 410.5 c 128,-1,17
 255 414 255 414 255 418 c 256,18,19
 255 422 255 422 255 425.5 c 128,-1,20
 255 429 255 429 255 432 c 0,21,22
 254 435 254 435 254 437.5 c 128,-1,23
 254 440 254 440 254 443 c 0,24,25
 254 496 254 496 285 523 c 128,-1,26
 316 550 316 550 377 550 c 0,27,28
 402 550 402 550 423 544 c 128,-1,29
 444 538 444 538 460 527 c 0,30,31
 477 516 477 516 484.5 496 c 128,-1,32
 492 476 492 476 492 447 c 2,33,-1
 492 173 l 2,34,35
 491 126 491 126 475.5 92.5 c 128,-1,36
 460 59 460 59 431 39 c 0,37,38
 402 20 402 20 369 10 c 128,-1,39
 336 0 336 0 298 0 c 0,40,41
 269 0 269 0 242 5.5 c 128,-1,42
 215 11 215 11 192 22 c 256,43,44
 169 33 169 33 150.5 48.5 c 128,-1,45
 132 64 132 64 119 83 c 0,46,47
 106 103 106 103 99.5 124.5 c 128,-1,48
 93 146 93 146 93 169 c 2,49,-1
 93 465 l 2,50,51
 93 473 93 473 92 478.5 c 128,-1,52
 91 484 91 484 89 486 c 256,53,54
 87 488 87 488 82.5 488.5 c 128,-1,55
 78 489 78 489 70 489 c 0,56,57
 57 489 57 489 48 487.5 c 128,-1,58
 39 486 39 486 32 481 c 0,59,60
 26 477 26 477 21.5 469 c 128,-1,61
 17 461 17 461 14 447 c 1,62,63
 14 470 14 470 15 485.5 c 128,-1,64
 16 501 16 501 17 511 c 0,65,66
 19 521 19 521 22 528.5 c 128,-1,67
 25 536 25 536 31 540 c 0,68,69
 37 545 37 545 47 547.5 c 128,-1,70
 57 550 57 550 70 550 c 2,71,-1
 103 550 l 2,72,73
 117 550 117 550 127 546 c 128,-1,74
 137 542 137 542 142 534 c 0,75,76
 147 527 147 527 150 515 c 128,-1,77
 153 503 153 503 153 488 c 2,78,-1
 153 169 l 2,79,80
 155 136 155 136 168 114 c 128,-1,81
 181 92 181 92 206 81 c 0,82,83
 231 71 231 71 254 65.5 c 128,-1,84
 277 60 277 60 298 60 c 0,85,86
 309 60 309 60 322 61.5 c 128,-1,87
 335 63 335 63 350 66 c 0,88,89
 365 70 365 70 379 77.5 c 128,-1,90
 393 85 393 85 406 98 c 0,91,92
 420 111 420 111 426.5 129.5 c 128,-1,93
 433 148 433 148 433 173 c 2,94,-1
 433 445 l 2,95,96
 433 468 433 468 418.5 480 c 128,-1,97
 404 492 404 492 375 492 c 0,98,99
 362 492 362 492 351 490.5 c 128,-1,100
 340 489 340 489 332 484 c 0,101,102
 323 480 323 480 318.5 470.5 c 128,-1,103
 314 461 314 461 314 447 c 2,104,-1
 314 367 l 2,105,106
 314 337 314 337 325.5 322.5 c 128,-1,107
 337 308 337 308 360 308 c 0,108,109
 362 308 362 308 366 308.5 c 128,-1,110
 370 309 370 309 377 310 c 1,111,-1
 377 310 l 1,0,1
EndSplineSet
Validated: 5
EndChar

StartChar: y
Encoding: 91 123160 91
Width: 527
GlyphClass: 2
Flags: W
LayerCount: 2
Fore
SplineSet
437 395 m 1,0,1
 437 358 437 358 422 332 c 128,-1,2
 407 306 407 306 377 292 c 1,3,4
 392 284 392 284 403.5 272 c 128,-1,5
 415 260 415 260 422 245 c 0,6,7
 430 230 430 230 433.5 214.5 c 128,-1,8
 437 199 437 199 437 183 c 2,9,-1
 437 153 l 2,10,11
 437 133 437 133 433 114 c 128,-1,12
 429 95 429 95 421 78 c 0,13,14
 413 60 413 60 401 46 c 128,-1,15
 389 32 389 32 373 21 c 0,16,17
 357 11 357 11 338.5 5.5 c 128,-1,18
 320 0 320 0 298 0 c 2,19,-1
 157 0 l 2,20,21
 135 0 135 0 115.5 5.5 c 128,-1,22
 96 11 96 11 80 21 c 0,23,24
 64 32 64 32 51.5 46 c 128,-1,25
 39 60 39 60 31 78 c 0,26,27
 23 95 23 95 18.5 114 c 128,-1,28
 14 133 14 133 14 153 c 2,29,-1
 14 489 l 2,30,31
 14 508 14 508 19 520.5 c 128,-1,32
 24 533 24 533 34 538 c 0,33,34
 44 544 44 544 58 547 c 128,-1,35
 72 550 72 550 91 550 c 2,36,-1
 120 550 l 1,37,38
 113 546 113 546 107.5 542.5 c 128,-1,39
 102 539 102 539 98 536 c 0,40,41
 93 532 93 532 89.5 528.5 c 128,-1,42
 86 525 86 525 84 521 c 0,43,44
 80 514 80 514 77 506 c 128,-1,45
 74 498 74 498 74 488 c 2,46,-1
 74 149 l 2,47,48
 74 134 74 134 78.5 121 c 128,-1,49
 83 108 83 108 91 98 c 256,50,51
 99 88 99 88 108.5 80.5 c 128,-1,52
 118 73 118 73 129 68 c 0,53,54
 140 64 140 64 149 62 c 128,-1,55
 158 60 158 60 165 60 c 2,56,-1
 290 60 l 2,57,58
 297 60 297 60 304.5 61 c 128,-1,59
 312 62 312 62 319 65 c 0,60,61
 326 67 326 67 333.5 70.5 c 128,-1,62
 341 74 341 74 348 79 c 0,63,64
 363 88 363 88 370 106 c 128,-1,65
 377 124 377 124 377 149 c 2,66,-1
 377 173 l 2,67,68
 377 189 377 189 372.5 203 c 128,-1,69
 368 217 368 217 358 230 c 0,70,71
 348 244 348 244 336 252 c 128,-1,72
 324 260 324 260 310 262 c 1,73,74
 297 258 297 258 286 250.5 c 128,-1,75
 275 243 275 243 267 232 c 0,76,77
 258 222 258 222 254 210.5 c 128,-1,78
 250 199 250 199 250 187 c 0,79,80
 250 172 250 172 254.5 161 c 128,-1,81
 259 150 259 150 268 143 c 1,82,83
 251 143 251 143 239 143.5 c 128,-1,84
 227 144 227 144 220 145 c 256,85,86
 213 146 213 146 207 149 c 128,-1,87
 201 152 201 152 197 157 c 256,88,89
 193 162 193 162 191 170 c 128,-1,90
 189 178 189 178 189 189 c 0,91,92
 189 203 189 203 193.5 218 c 128,-1,93
 198 233 198 233 205 248 c 0,94,95
 213 264 213 264 224.5 275.5 c 128,-1,96
 236 287 236 287 250 294 c 1,97,98
 231 304 231 304 219 315 c 128,-1,99
 207 326 207 326 201 338 c 256,100,101
 195 350 195 350 192 363.5 c 128,-1,102
 189 377 189 377 189 393 c 2,103,-1
 189 437 l 2,104,105
 189 472 189 472 199.5 494.5 c 128,-1,106
 210 517 210 517 230 527 c 0,107,108
 250 538 250 538 271 544 c 128,-1,109
 292 550 292 550 314 550 c 256,110,111
 336 550 336 550 357 544 c 128,-1,112
 378 538 378 538 398 527 c 256,113,114
 418 516 418 516 427.5 493.5 c 128,-1,115
 437 471 437 471 437 437 c 2,116,-1
 437 395 l 1,117,-1
 437 395 l 1,0,1
375 385 m 1,118,-1
 375 435 l 2,119,120
 375 450 375 450 371 460.5 c 128,-1,121
 367 471 367 471 359 477 c 0,122,123
 352 483 352 483 340.5 486 c 128,-1,124
 329 489 329 489 312 489 c 0,125,126
 296 489 296 489 285 486 c 128,-1,127
 274 483 274 483 266 477 c 0,128,129
 259 470 259 470 255.5 459.5 c 128,-1,130
 252 449 252 449 252 435 c 2,131,-1
 252 385 l 2,132,133
 252 372 252 372 256.5 362 c 128,-1,134
 261 352 261 352 270 344 c 0,135,136
 279 337 279 337 289.5 332 c 128,-1,137
 300 327 300 327 312 324 c 1,138,139
 342 328 342 328 358 343 c 128,-1,140
 374 358 374 358 375 385 c 1,141,-1
 375 385 l 1,118,-1
EndSplineSet
Validated: 5
EndChar

